M48
;Layer_Color=9474304
;FILE_FORMAT=4:4
METRIC,LZ
;TYPE=PLATED
T1F00S00C0.3000
T2F00S00C0.5000
T3F00S00C1.0000
T4F00S00C1.1000
%
T01
X00106611Y00264167
X00102962Y00276486
X00114294Y00273143
X00111104Y00285047
X00099963Y00288979
X00199793Y00347348
X00332652Y00199793
X00319064Y00180972
X00394953Y00111104
X00391021Y00099963
X00403514Y00102962
X00406857Y00114294
X00415833Y00106611
X00414529Y00265471
X0040633Y00258089
X00397405Y00251604
X00421911Y0027367
X00428396Y00282595
X00480207Y00332652
X00499027Y00319064
X00491054Y00224092
X00492618Y00195171
X0076954Y00338
X00919963Y00288979
X00931105Y00285047
X00934294Y00273143
X00922962Y00276486
X00926611Y00264167
X01019793Y00347347
X01152652Y00199792
X01139064Y00180972
X01214953Y00111104
X01211021Y00099963
X01223514Y00102962
X01226857Y00114294
X01235833Y00106611
X01234529Y00265471
X01241911Y00273669
X01248396Y00282595
X0122633Y00258088
X01217405Y00251604
X01311054Y00224092
X01312619Y0019517
X01319028Y00319063
X01300207Y00332652
X01388895Y00394953
X01400037Y00391021
X01397038Y00403514
X01385706Y00406857
X01393389Y00415832
X01167348Y00480207
X01180936Y00499027
X01105047Y00568895
X01108979Y00580037
X01096486Y00577037
X01093143Y00565705
X01084167Y00573388
X01084817Y00413904
X01093016Y00421286
X01101941Y0042777
X01077435Y00405705
X0107095Y0039678
X01000973Y00360936
X01008946Y00455908
X01007382Y00484829
X00957924Y00637439
X00882Y006625
Y0059975
X00879Y00588
X0082625Y0051075
X00774Y00519
X0075125Y0054475
X0074Y00568
Y00588427
X00775Y006145
X00804Y00645
X00807965Y00434965
X0073575
X007015Y00443808
X00701Y00518302
Y00588
X00648396Y00599
X00648396Y00549383
Y00475506
X00573389Y00415833
X00577038Y00403514
X00565706Y00406857
X00568895Y00394953
X00580037Y00391021
X00600953Y00587302
X00548026Y00619
X00360936Y00499028
X00347348Y00480208
X00281941Y00427771
X00273016Y00421286
X00264817Y00413904
X00257435Y00405705
X0025095Y0039678
X00180972Y00360936
X00188946Y00455908
X00187381Y0048483
X00264167Y00573389
X00276486Y00577038
X00273143Y00565706
X00285047Y00568895
X00288979Y00580037
T02
X0067875Y0030795
Y0032895
X0075Y002985
X0082125Y00308
Y00329
X007Y00363465
T03
X00632925Y0053
X0061325Y00568895
X00616234Y00663617
X00562851
X00669617
X00723
T04
X007689Y0066297
X007943Y0066297
X008197Y0066297
X008451Y0066297
M30
