G04 Layer_Physical_Order=2*
G04 Layer_Color=16711680*
%FSLAX44Y44*%
%MOMM*%
G71*
G01*
G75*
%ADD43C,0.5000*%
%ADD44C,0.2540*%
%ADD45C,1.4500*%
%ADD46C,1.5000*%
%ADD47C,1.6000*%
%ADD48R,1.6000X1.6000*%
%ADD49C,0.6000*%
%ADD50C,1.2000*%
%ADD51C,1.0000*%
G36*
X1126175Y596927D02*
X1143626Y464369D01*
X1145249Y464626D01*
X1155072Y465399D01*
X1159999Y465399D01*
X1159999Y465399D01*
X1164926Y465399D01*
X1174750Y464626D01*
X1184482Y463085D01*
X1194064Y460784D01*
X1203436Y457739D01*
X1212540Y453968D01*
X1221320Y449495D01*
X1229722Y444346D01*
X1237693Y438554D01*
X1245187Y432155D01*
X1252154Y425187D01*
X1258554Y417694D01*
X1259520Y416364D01*
X1365592Y497757D01*
X1369650Y493699D01*
X1377216Y485072D01*
X1384201Y475968D01*
X1390577Y466427D01*
X1396314Y456489D01*
X1401390Y446197D01*
X1405781Y435595D01*
X1409470Y424729D01*
X1412440Y413645D01*
X1414678Y402390D01*
X1416176Y391013D01*
X1416927Y379562D01*
X1416927Y373825D01*
X1284369Y356373D01*
X1284626Y354750D01*
X1285399Y344926D01*
X1285399Y340000D01*
X1285399Y340000D01*
X1285399Y339999D01*
X1285399Y335073D01*
X1284626Y325249D01*
X1283085Y315517D01*
X1280784Y305935D01*
X1277739Y296563D01*
X1273969Y287460D01*
X1269495Y278680D01*
X1264346Y270278D01*
X1258554Y262306D01*
X1252155Y254813D01*
X1245187Y247845D01*
X1237694Y241445D01*
X1236365Y240480D01*
X1317595Y134619D01*
X1317595Y134619D01*
X1313542Y130566D01*
X1304923Y123007D01*
X1295829Y116029D01*
X1286297Y109660D01*
X1276369Y103928D01*
X1266088Y98858D01*
X1255497Y94471D01*
X1244642Y90787D01*
X1233569Y87820D01*
X1222326Y85583D01*
X1210961Y84087D01*
X1199522Y83337D01*
X1193790Y83337D01*
X1176374Y215630D01*
X1174751Y215373D01*
X1164927Y214600D01*
X1160000Y214600D01*
X1155073Y214600D01*
X1145249Y215373D01*
X1135517Y216915D01*
X1125935Y219215D01*
X1116563Y222260D01*
X1107460Y226031D01*
X1098680Y230505D01*
X1090278Y235653D01*
X1082306Y241445D01*
X1074813Y247845D01*
X1067845Y254813D01*
X1061445Y262306D01*
X1060479Y263635D01*
X954337Y182189D01*
X950278Y186248D01*
X942710Y194878D01*
X935722Y203985D01*
X929344Y213530D01*
X923604Y223471D01*
X918527Y233766D01*
X914135Y244372D01*
X910445Y255242D01*
X907474Y266330D01*
X905234Y277588D01*
X903736Y288969D01*
X902985Y300424D01*
X902985Y306164D01*
X1035630Y323626D01*
X1035373Y325249D01*
X1034600Y335073D01*
Y344927D01*
X1035373Y354750D01*
X1036915Y364483D01*
X1039215Y374064D01*
X1042260Y383436D01*
X1046031Y392540D01*
X1050504Y401320D01*
X1055653Y409722D01*
X1061445Y417694D01*
X1067845Y425187D01*
X1074812Y432154D01*
X1082305Y438554D01*
X1083635Y439520D01*
X1002243Y545593D01*
X1002244Y545593D01*
X1006301Y549650D01*
X1014928Y557216D01*
X1024032Y564202D01*
X1033573Y570577D01*
X1043511Y576315D01*
X1053803Y581390D01*
X1064404Y585781D01*
X1075271Y589470D01*
X1086355Y592440D01*
X1097609Y594678D01*
X1108987Y596176D01*
X1120437Y596927D01*
X1126175Y596927D01*
D02*
G37*
G36*
X1160900Y665400D02*
X1160900Y665399D01*
X1160900Y665399D01*
X1168866Y665400D01*
X1184779Y664618D01*
X1200634Y663056D01*
X1216393Y660719D01*
X1232019Y657610D01*
X1247474Y653739D01*
X1262720Y649114D01*
X1277721Y643747D01*
X1292440Y637650D01*
X1306842Y630838D01*
X1320893Y623328D01*
X1334559Y615137D01*
X1347806Y606286D01*
X1360602Y596795D01*
X1372918Y586688D01*
X1384723Y575989D01*
X1395988Y564723D01*
X1406688Y552918D01*
X1416795Y540602D01*
X1426286Y527806D01*
X1435137Y514559D01*
X1443328Y500893D01*
X1450838Y486843D01*
X1457650Y472440D01*
X1463747Y457721D01*
X1469114Y442720D01*
X1473739Y427474D01*
X1477610Y412020D01*
X1480718Y396394D01*
X1483056Y380634D01*
X1484618Y364779D01*
X1485399Y348866D01*
X1485399Y340900D01*
X1485400Y340698D01*
X1485399Y340698D01*
Y332690D01*
X1484614Y316694D01*
X1483044Y300756D01*
X1480694Y284914D01*
X1477569Y269206D01*
X1473678Y253671D01*
X1469029Y238345D01*
X1463634Y223266D01*
X1457505Y208469D01*
X1450657Y193992D01*
X1443108Y179867D01*
X1434874Y166130D01*
X1425976Y152814D01*
X1416436Y139950D01*
X1406276Y127570D01*
X1395521Y115704D01*
X1384196Y104379D01*
X1372329Y93624D01*
X1359949Y83464D01*
X1347086Y73923D01*
X1333769Y65026D01*
X1320032Y56792D01*
X1305908Y49242D01*
X1291430Y42395D01*
X1276634Y36266D01*
X1261555Y30871D01*
X1246229Y26222D01*
X1230694Y22330D01*
X1214986Y19206D01*
X1199144Y16856D01*
X1183205Y15286D01*
X1167209Y14500D01*
X1159202Y14500D01*
X1151233Y14500D01*
X1135315Y15282D01*
X1119455Y16844D01*
X1103690Y19183D01*
X1088060Y22292D01*
X1072600Y26164D01*
X1057349Y30790D01*
X1042344Y36159D01*
X1027620Y42258D01*
X1013213Y49072D01*
X999158Y56585D01*
X985489Y64778D01*
X972237Y73632D01*
X959437Y83126D01*
X947117Y93236D01*
X935309Y103939D01*
X924040Y115208D01*
X913337Y127016D01*
X903226Y139336D01*
X893733Y152137D01*
X884879Y165388D01*
X876685Y179057D01*
X869173Y193113D01*
X862359Y207519D01*
X856260Y222243D01*
X850891Y237249D01*
X846265Y252499D01*
X844496Y259559D01*
X845278Y260560D01*
X907619D01*
X909138Y254891D01*
X909166Y254854D01*
X909163Y254807D01*
X912853Y243937D01*
X912885Y243901D01*
Y243854D01*
X917277Y233249D01*
X917311Y233215D01*
X917314Y233168D01*
X922391Y222873D01*
X922427Y222841D01*
X922433Y222794D01*
X928172Y212853D01*
X928210Y212824D01*
X928219Y212778D01*
X934596Y203233D01*
X934636Y203207D01*
X934648Y203162D01*
X941636Y194054D01*
X941677Y194031D01*
X941692Y193986D01*
X949261Y185355D01*
X949304Y185335D01*
X949322Y185291D01*
X953380Y181232D01*
X953783Y181066D01*
X954160Y180848D01*
X954250Y180872D01*
X954337Y180836D01*
X954739Y181003D01*
X955160Y181116D01*
X1059250Y260986D01*
X1060416Y261427D01*
X1066816Y253934D01*
X1066867Y253908D01*
X1066888Y253856D01*
X1073856Y246888D01*
X1073908Y246866D01*
X1073934Y246816D01*
X1081427Y240416D01*
X1081481Y240399D01*
X1081510Y240351D01*
X1089482Y234559D01*
X1089538Y234545D01*
X1089571Y234500D01*
X1097973Y229351D01*
X1098029Y229342D01*
X1098065Y229299D01*
X1106845Y224825D01*
X1106902Y224821D01*
X1106942Y224781D01*
X1116046Y221010D01*
X1116102D01*
X1116145Y220973D01*
X1125517Y217928D01*
X1125574Y217933D01*
X1125619Y217899D01*
X1135201Y215599D01*
X1135257Y215608D01*
X1135305Y215578D01*
X1145038Y214037D01*
X1145093Y214050D01*
X1145143Y214025D01*
X1154967Y213251D01*
X1155021Y213269D01*
X1155073Y213247D01*
X1160000Y213247D01*
X1164927Y213247D01*
X1164979Y213269D01*
X1165033Y213251D01*
X1174857Y214025D01*
X1175370Y212888D01*
X1192449Y83161D01*
X1192667Y82783D01*
X1192834Y82381D01*
X1192920Y82345D01*
X1192967Y82264D01*
X1193388Y82151D01*
X1193790Y81984D01*
X1199522Y81984D01*
X1199566Y82002D01*
X1199611Y81987D01*
X1211049Y82737D01*
X1211092Y82758D01*
X1211137Y82746D01*
X1222503Y84242D01*
X1222544Y84265D01*
X1222590Y84256D01*
X1233833Y86493D01*
X1233873Y86519D01*
X1233920Y86513D01*
X1244993Y89480D01*
X1245030Y89509D01*
X1245077Y89506D01*
X1255932Y93190D01*
X1255968Y93221D01*
X1256015D01*
X1266606Y97608D01*
X1266639Y97642D01*
X1266687Y97645D01*
X1276968Y102715D01*
X1276999Y102751D01*
X1277046Y102757D01*
X1286974Y108489D01*
X1287002Y108526D01*
X1287049Y108535D01*
X1296580Y114904D01*
X1296606Y114943D01*
X1296652Y114956D01*
X1305747Y121934D01*
X1305770Y121975D01*
X1305815Y121990D01*
X1314434Y129549D01*
X1314455Y129591D01*
X1314498Y129609D01*
X1318551Y133662D01*
X1318657Y133918D01*
X1318851Y134116D01*
X1318849Y134291D01*
X1318936Y134442D01*
X1318912Y134532D01*
X1318948Y134619D01*
X1318842Y134874D01*
X1318838Y135152D01*
X1318713Y135274D01*
X1318668Y135443D01*
X1239014Y239250D01*
X1238573Y240417D01*
X1246066Y246816D01*
X1246091Y246867D01*
X1246144Y246888D01*
X1253111Y253856D01*
X1253133Y253908D01*
X1253184Y253934D01*
X1259583Y261427D01*
X1259601Y261481D01*
X1259649Y261510D01*
X1265441Y269482D01*
X1265454Y269538D01*
X1265500Y269571D01*
X1270649Y277973D01*
X1270657Y278029D01*
X1270701Y278065D01*
X1275174Y286845D01*
X1275179Y286902D01*
X1275219Y286942D01*
X1278989Y296045D01*
Y296102D01*
X1279026Y296145D01*
X1282071Y305517D01*
X1282067Y305573D01*
X1282100Y305619D01*
X1284400Y315201D01*
X1284392Y315257D01*
X1284421Y315305D01*
X1285963Y325038D01*
X1285949Y325093D01*
X1285975Y325143D01*
X1286748Y334967D01*
X1286731Y335020D01*
X1286752Y335073D01*
X1286752Y339999D01*
X1286752Y340000D01*
X1286752Y344926D01*
X1286730Y344979D01*
X1286748Y345033D01*
X1285975Y354856D01*
X1287112Y355370D01*
X1417103Y372483D01*
X1417480Y372701D01*
X1417883Y372868D01*
X1417919Y372954D01*
X1418000Y373001D01*
X1418113Y373422D01*
X1418280Y373825D01*
X1418280Y379562D01*
X1418262Y379606D01*
X1418277Y379651D01*
X1417526Y391102D01*
X1417505Y391144D01*
X1417518Y391190D01*
X1416020Y402567D01*
X1415996Y402608D01*
X1416005Y402654D01*
X1413767Y413909D01*
X1413740Y413948D01*
X1413746Y413995D01*
X1410777Y425079D01*
X1410748Y425117D01*
X1410751Y425164D01*
X1407062Y436030D01*
X1407031Y436066D01*
Y436113D01*
X1402640Y446715D01*
X1402606Y446748D01*
X1402603Y446796D01*
X1397528Y457087D01*
X1397492Y457118D01*
X1397486Y457165D01*
X1391748Y467103D01*
X1391711Y467132D01*
X1391702Y467178D01*
X1385326Y476720D01*
X1385287Y476746D01*
X1385275Y476792D01*
X1378289Y485896D01*
X1378248Y485919D01*
X1378233Y485964D01*
X1370667Y494591D01*
X1370624Y494612D01*
X1370606Y494656D01*
X1366549Y498713D01*
X1366146Y498880D01*
X1365769Y499098D01*
X1365679Y499074D01*
X1365592Y499109D01*
X1365190Y498943D01*
X1364769Y498830D01*
X1260749Y419013D01*
X1259583Y418572D01*
X1253183Y426065D01*
X1253133Y426091D01*
X1253111Y426143D01*
X1246143Y433111D01*
X1246091Y433133D01*
X1246065Y433183D01*
X1238572Y439583D01*
X1238518Y439600D01*
X1238489Y439649D01*
X1230517Y445441D01*
X1230462Y445454D01*
X1230428Y445500D01*
X1222027Y450648D01*
X1221971Y450657D01*
X1221934Y450700D01*
X1213154Y455174D01*
X1213098Y455178D01*
X1213057Y455218D01*
X1203954Y458989D01*
X1203897D01*
X1203854Y459026D01*
X1194482Y462071D01*
X1194426Y462067D01*
X1194380Y462100D01*
X1184798Y464400D01*
X1184743Y464391D01*
X1184694Y464421D01*
X1174962Y465962D01*
X1174906Y465949D01*
X1174856Y465975D01*
X1165033Y466748D01*
X1164979Y466730D01*
X1164926Y466752D01*
X1159999Y466752D01*
X1159999Y466752D01*
X1155072Y466752D01*
X1155020Y466730D01*
X1154966Y466748D01*
X1145143Y465975D01*
X1144630Y467112D01*
X1127516Y597103D01*
X1127298Y597481D01*
X1127132Y597883D01*
X1127045Y597919D01*
X1126998Y598000D01*
X1126578Y598113D01*
X1126175Y598280D01*
X1120437Y598280D01*
X1120394Y598262D01*
X1120349Y598277D01*
X1108898Y597526D01*
X1108856Y597505D01*
X1108810Y597518D01*
X1097433Y596020D01*
X1097392Y595996D01*
X1097346Y596006D01*
X1086091Y593767D01*
X1086051Y593741D01*
X1086005Y593747D01*
X1074921Y590777D01*
X1074883Y590748D01*
X1074836Y590751D01*
X1063970Y587063D01*
X1063934Y587031D01*
X1063887D01*
X1053285Y582640D01*
X1053251Y582607D01*
X1053204Y582603D01*
X1042913Y577528D01*
X1042881Y577493D01*
X1042834Y577486D01*
X1032897Y571749D01*
X1032868Y571711D01*
X1032822Y571702D01*
X1023280Y565327D01*
X1023254Y565288D01*
X1023208Y565275D01*
X1014104Y558289D01*
X1014081Y558248D01*
X1014036Y558233D01*
X1005408Y550667D01*
X1005387Y550625D01*
X1005344Y550607D01*
X1001287Y546550D01*
X1001120Y546147D01*
X1000902Y545770D01*
X1000926Y545679D01*
X1000891Y545593D01*
X1001057Y545190D01*
X1001170Y544769D01*
X1080986Y440750D01*
X1081427Y439583D01*
X1073934Y433183D01*
X1073908Y433133D01*
X1073856Y433111D01*
X1066888Y426143D01*
X1066866Y426091D01*
X1066816Y426065D01*
X1060416Y418572D01*
X1060399Y418518D01*
X1060350Y418489D01*
X1054558Y410517D01*
X1054545Y410462D01*
X1054499Y410429D01*
X1049351Y402027D01*
X1049342Y401971D01*
X1049299Y401934D01*
X1044825Y393154D01*
X1044821Y393098D01*
X1044781Y393058D01*
X1041010Y383954D01*
Y383897D01*
X1040973Y383854D01*
X1037928Y374483D01*
X1037933Y374426D01*
X1037899Y374380D01*
X1035599Y364799D01*
X1035608Y364743D01*
X1035578Y364695D01*
X1034037Y354962D01*
X1034050Y354907D01*
X1034024Y354856D01*
X1033251Y345033D01*
X1033269Y344979D01*
X1033247Y344927D01*
Y335073D01*
X1033269Y335020D01*
X1033251Y334967D01*
X1034024Y325143D01*
X1032888Y324630D01*
X902809Y307505D01*
X902431Y307287D01*
X902029Y307120D01*
X901993Y307034D01*
X901912Y306987D01*
X901799Y306566D01*
X901632Y306164D01*
X901632Y300424D01*
X901650Y300380D01*
X901635Y300335D01*
X902386Y288881D01*
X902407Y288838D01*
X902394Y288793D01*
X903662Y279166D01*
X902824Y278211D01*
X840353D01*
X839283Y283590D01*
X836945Y299354D01*
X835383Y315214D01*
X834601Y331132D01*
Y339101D01*
X834601Y347111D01*
X835387Y363112D01*
X836957Y379055D01*
X839308Y394902D01*
X842433Y410615D01*
X846326Y426155D01*
X850976Y441485D01*
X856373Y456569D01*
X862504Y471370D01*
X869354Y485853D01*
X876906Y499981D01*
X885142Y513722D01*
X894042Y527043D01*
X903585Y539911D01*
X913749Y552295D01*
X924507Y564165D01*
X935835Y575493D01*
X947706Y586252D01*
X960090Y596415D01*
X972957Y605958D01*
X986278Y614859D01*
X1000019Y623095D01*
X1014148Y630647D01*
X1028630Y637496D01*
X1043431Y643627D01*
X1058515Y649024D01*
X1073845Y653675D01*
X1089386Y657567D01*
X1105098Y660693D01*
X1120945Y663043D01*
X1136888Y664614D01*
X1152889Y665400D01*
X1160900Y665400D01*
D02*
G37*
G36*
X364779Y664618D02*
X380634Y663056D01*
X396394Y660719D01*
X412019Y657610D01*
X427474Y653739D01*
X442720Y649114D01*
X457721Y643747D01*
X472440Y637650D01*
X486842Y630838D01*
X500893Y623328D01*
X514559Y615137D01*
X527806Y606286D01*
X540602Y596795D01*
X552918Y586688D01*
X564723Y575989D01*
X575989Y564723D01*
X586688Y552918D01*
X596795Y540603D01*
X606286Y527806D01*
X615137Y514559D01*
X623328Y500893D01*
X630838Y486843D01*
X637650Y472440D01*
X643747Y457721D01*
X649114Y442720D01*
X653739Y427474D01*
X657610Y412020D01*
X659836Y400829D01*
X659031Y399847D01*
X596378D01*
X596020Y402567D01*
X595996Y402608D01*
X596005Y402654D01*
X593767Y413909D01*
X593740Y413948D01*
X593746Y413995D01*
X590776Y425079D01*
X590748Y425117D01*
X590751Y425164D01*
X587062Y436030D01*
X587031Y436066D01*
Y436113D01*
X582640Y446715D01*
X582606Y446748D01*
X582603Y446796D01*
X577528Y457087D01*
X577492Y457118D01*
X577486Y457165D01*
X571748Y467103D01*
X571711Y467132D01*
X571702Y467178D01*
X565326Y476720D01*
X565287Y476746D01*
X565275Y476792D01*
X558289Y485896D01*
X558248Y485919D01*
X558233Y485964D01*
X550667Y494591D01*
X550624Y494612D01*
X550606Y494656D01*
X546549Y498713D01*
X546146Y498880D01*
X545769Y499098D01*
X545679Y499074D01*
X545592Y499109D01*
X545190Y498943D01*
X544769Y498830D01*
X440749Y419013D01*
X439583Y418572D01*
X433183Y426065D01*
X433133Y426091D01*
X433111Y426143D01*
X426143Y433111D01*
X426091Y433133D01*
X426065Y433183D01*
X418572Y439583D01*
X418518Y439600D01*
X418489Y439649D01*
X410517Y445441D01*
X410462Y445454D01*
X410429Y445500D01*
X402027Y450648D01*
X401971Y450657D01*
X401934Y450700D01*
X393154Y455174D01*
X393098Y455178D01*
X393058Y455218D01*
X383954Y458989D01*
X383897D01*
X383854Y459026D01*
X374482Y462071D01*
X374426Y462067D01*
X374380Y462100D01*
X364798Y464400D01*
X364743Y464391D01*
X364694Y464421D01*
X354962Y465962D01*
X354907Y465949D01*
X354856Y465975D01*
X345033Y466748D01*
X344979Y466730D01*
X344926Y466752D01*
X339999Y466752D01*
X339999Y466752D01*
X335072Y466752D01*
X335020Y466730D01*
X334966Y466748D01*
X325143Y465975D01*
X324630Y467112D01*
X307516Y597103D01*
X307298Y597481D01*
X307132Y597883D01*
X307045Y597919D01*
X306998Y598000D01*
X306577Y598113D01*
X306175Y598280D01*
X300437Y598280D01*
X300394Y598262D01*
X300349Y598277D01*
X288898Y597526D01*
X288856Y597505D01*
X288810Y597518D01*
X277433Y596020D01*
X277392Y595996D01*
X277346Y596006D01*
X266091Y593767D01*
X266052Y593741D01*
X266005Y593747D01*
X254921Y590777D01*
X254883Y590748D01*
X254836Y590751D01*
X243970Y587063D01*
X243934Y587031D01*
X243887D01*
X233285Y582640D01*
X233252Y582607D01*
X233204Y582603D01*
X222913Y577528D01*
X222881Y577493D01*
X222834Y577486D01*
X212897Y571749D01*
X212868Y571711D01*
X212822Y571702D01*
X203280Y565327D01*
X203254Y565288D01*
X203208Y565275D01*
X194104Y558289D01*
X194081Y558248D01*
X194036Y558233D01*
X185408Y550667D01*
X185388Y550625D01*
X185344Y550607D01*
X181287Y546550D01*
X181120Y546147D01*
X180902Y545770D01*
X180926Y545679D01*
X180891Y545593D01*
X181057Y545190D01*
X181170Y544769D01*
X260986Y440750D01*
X261427Y439583D01*
X253934Y433183D01*
X253908Y433133D01*
X253856Y433111D01*
X246888Y426143D01*
X246866Y426091D01*
X246816Y426065D01*
X240416Y418572D01*
X240399Y418518D01*
X240350Y418489D01*
X234559Y410517D01*
X234545Y410462D01*
X234499Y410429D01*
X229351Y402027D01*
X229342Y401971D01*
X229299Y401934D01*
X224825Y393154D01*
X224821Y393098D01*
X224781Y393058D01*
X221010Y383954D01*
Y383897D01*
X220973Y383854D01*
X217928Y374483D01*
X217932Y374426D01*
X217899Y374380D01*
X215599Y364799D01*
X215608Y364743D01*
X215578Y364695D01*
X214037Y354962D01*
X214050Y354907D01*
X214024Y354856D01*
X213251Y345033D01*
X213269Y344979D01*
X213247Y344927D01*
Y335073D01*
X213269Y335020D01*
X213251Y334967D01*
X214024Y325143D01*
X212888Y324630D01*
X82809Y307505D01*
X82431Y307287D01*
X82029Y307120D01*
X81993Y307034D01*
X81912Y306987D01*
X81799Y306566D01*
X81632Y306164D01*
X81632Y300424D01*
X81650Y300380D01*
X81635Y300335D01*
X82386Y288881D01*
X82407Y288838D01*
X82395Y288793D01*
X83893Y277412D01*
X83917Y277371D01*
X83907Y277324D01*
X86147Y266066D01*
X86173Y266026D01*
X86167Y265980D01*
X89138Y254891D01*
X89166Y254854D01*
X89163Y254807D01*
X92853Y243937D01*
X92885Y243901D01*
Y243854D01*
X97277Y233249D01*
X97311Y233215D01*
X97314Y233168D01*
X102391Y222873D01*
X102427Y222841D01*
X102433Y222794D01*
X108172Y212853D01*
X108210Y212824D01*
X108219Y212778D01*
X114597Y203233D01*
X114636Y203207D01*
X114648Y203162D01*
X121636Y194054D01*
X121677Y194031D01*
X121692Y193986D01*
X129261Y185355D01*
X129304Y185335D01*
X129322Y185291D01*
X133380Y181232D01*
X133783Y181066D01*
X134160Y180848D01*
X134250Y180872D01*
X134337Y180836D01*
X134739Y181003D01*
X135161Y181116D01*
X239250Y260986D01*
X240417Y261427D01*
X246816Y253934D01*
X246867Y253908D01*
X246888Y253856D01*
X253856Y246888D01*
X253908Y246866D01*
X253934Y246816D01*
X261427Y240416D01*
X261481Y240399D01*
X261511Y240351D01*
X269482Y234559D01*
X269538Y234545D01*
X269571Y234500D01*
X277973Y229351D01*
X278029Y229342D01*
X278065Y229299D01*
X286845Y224825D01*
X286902Y224821D01*
X286942Y224781D01*
X296046Y221010D01*
X296102D01*
X296145Y220973D01*
X305517Y217928D01*
X305574Y217933D01*
X305619Y217899D01*
X315201Y215599D01*
X315257Y215608D01*
X315305Y215578D01*
X325038Y214037D01*
X325093Y214050D01*
X325143Y214025D01*
X334967Y213251D01*
X335021Y213269D01*
X335073Y213247D01*
X340000Y213247D01*
X344927Y213247D01*
X344979Y213269D01*
X345033Y213251D01*
X354857Y214025D01*
X355370Y212888D01*
X372449Y83161D01*
X372667Y82783D01*
X372834Y82381D01*
X372920Y82345D01*
X372967Y82264D01*
X373388Y82151D01*
X373790Y81984D01*
X379522Y81984D01*
X379566Y82002D01*
X379611Y81987D01*
X391049Y82737D01*
X391092Y82758D01*
X391138Y82746D01*
X402503Y84242D01*
X402544Y84265D01*
X402590Y84256D01*
X413833Y86493D01*
X413873Y86519D01*
X413920Y86513D01*
X424992Y89480D01*
X425030Y89509D01*
X425077Y89506D01*
X435932Y93190D01*
X435968Y93221D01*
X436015D01*
X446606Y97608D01*
X446639Y97642D01*
X446687Y97645D01*
X456968Y102715D01*
X456999Y102751D01*
X457046Y102757D01*
X466974Y108489D01*
X467002Y108526D01*
X467049Y108535D01*
X476580Y114904D01*
X476606Y114943D01*
X476652Y114956D01*
X485747Y121934D01*
X485770Y121975D01*
X485815Y121990D01*
X494434Y129549D01*
X494455Y129591D01*
X494498Y129609D01*
X498551Y133662D01*
X498657Y133918D01*
X498851Y134116D01*
X498849Y134291D01*
X498936Y134442D01*
X498912Y134532D01*
X498948Y134619D01*
X498842Y134874D01*
X498838Y135152D01*
X498713Y135274D01*
X498668Y135443D01*
X419014Y239250D01*
X418573Y240417D01*
X426066Y246816D01*
X426091Y246867D01*
X426144Y246888D01*
X433111Y253856D01*
X433133Y253908D01*
X433184Y253934D01*
X439583Y261427D01*
X439601Y261481D01*
X439649Y261510D01*
X445441Y269482D01*
X445454Y269538D01*
X445500Y269571D01*
X450649Y277973D01*
X450657Y278029D01*
X450700Y278065D01*
X455174Y286845D01*
X455178Y286902D01*
X455219Y286942D01*
X458989Y296045D01*
Y296102D01*
X459026Y296145D01*
X462071Y305517D01*
X462067Y305573D01*
X462100Y305619D01*
X464400Y315201D01*
X464392Y315257D01*
X464421Y315305D01*
X465963Y325038D01*
X465950Y325093D01*
X465975Y325143D01*
X466748Y334967D01*
X466731Y335020D01*
X466753Y335073D01*
X466752Y339999D01*
X466752Y340000D01*
X466752Y344926D01*
X466731Y344979D01*
X466748Y345033D01*
X465975Y354856D01*
X467112Y355370D01*
X597103Y372483D01*
X597481Y372701D01*
X597883Y372868D01*
X597919Y372954D01*
X598000Y373001D01*
X598113Y373422D01*
X598279Y373825D01*
X598280Y379562D01*
X598261Y379606D01*
X598277Y379651D01*
X598171Y381269D01*
X599039Y382196D01*
X662824D01*
X663056Y380634D01*
X664618Y364779D01*
X665399Y348866D01*
X665399Y340900D01*
X665400Y340698D01*
Y332690D01*
X664614Y316694D01*
X663044Y300756D01*
X660694Y284914D01*
X657570Y269206D01*
X653678Y253671D01*
X649029Y238345D01*
X643634Y223266D01*
X637505Y208469D01*
X630657Y193992D01*
X623108Y179867D01*
X614874Y166130D01*
X605976Y152814D01*
X596436Y139950D01*
X586276Y127570D01*
X575521Y115704D01*
X564196Y104379D01*
X552329Y93624D01*
X539949Y83464D01*
X527086Y73923D01*
X513769Y65026D01*
X500032Y56792D01*
X485908Y49242D01*
X471430Y42395D01*
X456634Y36266D01*
X441555Y30871D01*
X426229Y26222D01*
X410694Y22330D01*
X394986Y19206D01*
X379144Y16856D01*
X363205Y15286D01*
X347209Y14500D01*
X339202D01*
X331233Y14500D01*
X315315Y15282D01*
X299455Y16844D01*
X283690Y19183D01*
X268060Y22292D01*
X252600Y26164D01*
X237350Y30790D01*
X222344Y36159D01*
X207620Y42258D01*
X193213Y49072D01*
X179158Y56585D01*
X165489Y64778D01*
X152238Y73632D01*
X139437Y83126D01*
X127117Y93236D01*
X115309Y103939D01*
X104040Y115208D01*
X93337Y127016D01*
X83227Y139336D01*
X73733Y152137D01*
X64879Y165388D01*
X56686Y179057D01*
X49173Y193113D01*
X42359Y207519D01*
X36260Y222243D01*
X30891Y237249D01*
X26265Y252499D01*
X22392Y267959D01*
X19283Y283590D01*
X16945Y299354D01*
X15383Y315214D01*
X14601Y331132D01*
Y339101D01*
X14601Y347111D01*
X15387Y363112D01*
X16957Y379055D01*
X19308Y394902D01*
X22433Y410615D01*
X26326Y426155D01*
X30976Y441486D01*
X36373Y456570D01*
X42504Y471370D01*
X49354Y485853D01*
X56906Y499981D01*
X65142Y513722D01*
X74042Y527043D01*
X83586Y539911D01*
X93749Y552295D01*
X104507Y564165D01*
X115836Y575493D01*
X127706Y586252D01*
X140090Y596415D01*
X152957Y605958D01*
X166278Y614859D01*
X180019Y623095D01*
X194148Y630647D01*
X208630Y637496D01*
X223431Y643627D01*
X238515Y649024D01*
X253845Y653675D01*
X269386Y657567D01*
X285098Y660693D01*
X300945Y663043D01*
X316888Y664614D01*
X332890Y665400D01*
X340900Y665400D01*
X348866Y665400D01*
X364779Y664618D01*
D02*
G37*
G36*
X306175Y596927D02*
X323627Y464369D01*
X325249Y464626D01*
X335072Y465399D01*
X339999Y465399D01*
X339999Y465399D01*
X344926Y465399D01*
X354750Y464626D01*
X364482Y463085D01*
X374064Y460784D01*
X383436Y457739D01*
X392540Y453968D01*
X401320Y449495D01*
X409722Y444346D01*
X417694Y438554D01*
X425187Y432155D01*
X432154Y425187D01*
X438554Y417694D01*
X439520Y416364D01*
X545592Y497757D01*
X549650Y493699D01*
X557216Y485072D01*
X564201Y475968D01*
X570577Y466427D01*
X576314Y456489D01*
X581390Y446197D01*
X585781Y435595D01*
X589470Y424729D01*
X592440Y413645D01*
X594678Y402390D01*
X596176Y391013D01*
X596927Y379562D01*
X596926Y373825D01*
X464369Y356373D01*
X464626Y354750D01*
X465399Y344926D01*
X465399Y340000D01*
X465399Y340000D01*
X465399Y339999D01*
X465400Y335073D01*
X464626Y325249D01*
X463085Y315517D01*
X460784Y305935D01*
X457739Y296563D01*
X453969Y287460D01*
X449495Y278680D01*
X444346Y270278D01*
X438554Y262306D01*
X432155Y254813D01*
X425187Y247845D01*
X417694Y241445D01*
X416365Y240480D01*
X497595Y134619D01*
X497595Y134619D01*
X493542Y130566D01*
X484923Y123007D01*
X475829Y116029D01*
X466297Y109660D01*
X456369Y103928D01*
X446088Y98858D01*
X435497Y94471D01*
X424642Y90787D01*
X413569Y87820D01*
X402326Y85583D01*
X390961Y84087D01*
X379522Y83337D01*
X373790Y83337D01*
X356374Y215630D01*
X354751Y215373D01*
X344927Y214600D01*
X340000Y214600D01*
X335073Y214600D01*
X325249Y215373D01*
X315517Y216915D01*
X305935Y219215D01*
X296563Y222260D01*
X287460Y226031D01*
X278680Y230505D01*
X270278Y235653D01*
X262306Y241445D01*
X254813Y247845D01*
X247845Y254813D01*
X241445Y262306D01*
X240479Y263635D01*
X134337Y182189D01*
X130278Y186248D01*
X122710Y194878D01*
X115722Y203985D01*
X109344Y213530D01*
X103604Y223471D01*
X98527Y233766D01*
X94135Y244372D01*
X90445Y255242D01*
X87474Y266330D01*
X85234Y277588D01*
X83736Y288969D01*
X82985Y300424D01*
X82985Y306164D01*
X215630Y323626D01*
X215373Y325249D01*
X214600Y335073D01*
Y344927D01*
X215373Y354750D01*
X216915Y364483D01*
X219215Y374064D01*
X222260Y383436D01*
X226031Y392540D01*
X230504Y401320D01*
X235653Y409722D01*
X241445Y417694D01*
X247845Y425187D01*
X254812Y432154D01*
X262305Y438554D01*
X263635Y439520D01*
X182244Y545593D01*
X182244Y545593D01*
X186301Y549650D01*
X194928Y557216D01*
X204032Y564202D01*
X213573Y570577D01*
X223511Y576315D01*
X233803Y581390D01*
X244405Y585781D01*
X255271Y589470D01*
X266355Y592440D01*
X277610Y594678D01*
X288987Y596176D01*
X300437Y596927D01*
X306175Y596927D01*
D02*
G37*
%LPC*%
G36*
X1246877Y271129D02*
X1235891D01*
X1235785Y270998D01*
X1235617Y270903D01*
X1234529Y271119D01*
X1232367Y270689D01*
X1230535Y269465D01*
X1229310Y267632D01*
X1228880Y265471D01*
X1229097Y264383D01*
X1229002Y264214D01*
X1228870Y264109D01*
Y258088D01*
Y253123D01*
X1230324Y254094D01*
X1231549Y255927D01*
X1231979Y258088D01*
X1231762Y259176D01*
X1231857Y259345D01*
X1231989Y259450D01*
Y265471D01*
X1234529D01*
Y268011D01*
X1240549D01*
X1240655Y268142D01*
X1240824Y268237D01*
X1241911Y268021D01*
X1244073Y268451D01*
X1245905Y269675D01*
X1246877Y271129D01*
D02*
G37*
G36*
X922503Y293944D02*
Y288979D01*
Y284013D01*
X923957Y284984D01*
X924230Y285392D01*
X925213Y285115D01*
X925472Y284966D01*
X925886Y282885D01*
X926083Y282591D01*
X925167Y281676D01*
X925502Y281452D01*
Y276486D01*
Y271520D01*
X926956Y272492D01*
X927436Y273210D01*
X927670Y273197D01*
X928708Y272828D01*
X929076Y270981D01*
X929430Y270452D01*
X929053Y269841D01*
X928590Y269422D01*
X926611Y269816D01*
X924450Y269386D01*
X922617Y268162D01*
X921645Y266707D01*
X931577D01*
X931476Y266859D01*
X931852Y267470D01*
X932315Y267888D01*
X934294Y267494D01*
X936456Y267924D01*
X938288Y269149D01*
X939260Y270603D01*
X934294D01*
Y275683D01*
X939260D01*
X938288Y277137D01*
X936456Y278361D01*
X934294Y278791D01*
X933627Y278659D01*
X933266Y279828D01*
X935099Y281053D01*
X936070Y282507D01*
X931105D01*
Y285047D01*
X928565D01*
Y290013D01*
X927110Y289041D01*
X926838Y288633D01*
X925854Y288910D01*
X925595Y289060D01*
X925182Y291140D01*
X923957Y292973D01*
X922503Y293944D01*
D02*
G37*
G36*
X920422Y273946D02*
X917997D01*
X918968Y272492D01*
X920422Y271520D01*
Y273946D01*
D02*
G37*
G36*
X1253361Y280055D02*
X1243036D01*
X1242469Y279207D01*
X1241911Y279318D01*
X1239749Y278888D01*
X1237917Y277663D01*
X1236945Y276209D01*
X1247271D01*
X1247838Y277057D01*
X1248396Y276946D01*
X1250557Y277376D01*
X1252390Y278601D01*
X1253361Y280055D01*
D02*
G37*
G36*
X920422Y281452D02*
X918968Y280480D01*
X917997Y279026D01*
X920422D01*
Y281452D01*
D02*
G37*
G36*
X1239495Y262931D02*
X1237069D01*
Y260505D01*
X1238523Y261476D01*
X1239495Y262931D01*
D02*
G37*
G36*
X1223790Y263054D02*
X1222336Y262083D01*
X1221112Y260250D01*
X1220682Y258088D01*
X1220793Y257530D01*
X1219945Y256964D01*
Y251604D01*
Y246638D01*
X1221399Y247610D01*
X1222623Y249442D01*
X1223053Y251604D01*
X1222942Y252162D01*
X1223790Y252728D01*
Y258088D01*
Y263054D01*
D02*
G37*
G36*
X1214865Y249064D02*
X1212439D01*
X1213411Y247610D01*
X1214865Y246638D01*
Y249064D01*
D02*
G37*
G36*
Y256569D02*
X1213411Y255598D01*
X1212439Y254144D01*
X1214865D01*
Y256569D01*
D02*
G37*
G36*
X931577Y261627D02*
X929151D01*
Y259202D01*
X930605Y260173D01*
X931577Y261627D01*
D02*
G37*
G36*
X924071D02*
X921645D01*
X922617Y260173D01*
X924071Y259202D01*
Y261627D01*
D02*
G37*
G36*
X917423Y286439D02*
X914997D01*
X915969Y284984D01*
X917423Y284013D01*
Y286439D01*
D02*
G37*
G36*
X1250936Y287560D02*
Y285135D01*
X1253361D01*
X1252390Y286589D01*
X1250936Y287560D01*
D02*
G37*
G36*
X1245856D02*
X1244402Y286589D01*
X1243430Y285135D01*
X1245856D01*
Y287560D01*
D02*
G37*
G36*
X933644Y290013D02*
Y287587D01*
X936070D01*
X935099Y289041D01*
X933644Y290013D01*
D02*
G37*
G36*
X917423Y293944D02*
X915969Y292973D01*
X914997Y291518D01*
X917423D01*
Y293944D01*
D02*
G37*
G36*
X1229397Y119260D02*
Y114294D01*
X1224317D01*
Y119260D01*
X1222863Y118288D01*
X1221638Y116455D01*
X1221208Y114294D01*
X1221341Y113627D01*
X1220172Y113266D01*
X1218947Y115098D01*
X1217493Y116070D01*
Y111104D01*
X1214953D01*
Y108564D01*
X1209987D01*
X1210959Y107110D01*
X1211367Y106837D01*
X1211090Y105854D01*
X1210940Y105595D01*
X1208860Y105181D01*
X1207027Y103957D01*
X1206056Y102503D01*
X1215987D01*
X1215015Y103957D01*
X1214607Y104229D01*
X1214884Y105213D01*
X1215034Y105472D01*
X1217114Y105885D01*
X1217409Y106082D01*
X1218324Y105167D01*
X1218548Y105502D01*
X1228480D01*
X1227508Y106956D01*
X1226790Y107436D01*
X1226803Y107669D01*
X1227172Y108708D01*
X1229019Y109075D01*
X1229548Y109429D01*
X1230159Y109053D01*
X1230578Y108589D01*
X1230184Y106611D01*
X1230614Y104449D01*
X1231839Y102617D01*
X1233293Y101645D01*
Y106611D01*
Y111576D01*
X1233141Y111475D01*
X1232530Y111852D01*
X1232112Y112315D01*
X1232506Y114294D01*
X1232076Y116455D01*
X1230851Y118288D01*
X1229397Y119260D01*
D02*
G37*
G36*
X1212413Y116070D02*
X1210959Y115098D01*
X1209987Y113644D01*
X1212413D01*
Y116070D01*
D02*
G37*
G36*
X1220974Y100422D02*
X1218548D01*
X1219520Y98968D01*
X1220974Y97996D01*
Y100422D01*
D02*
G37*
G36*
X1208481Y97423D02*
X1206056D01*
X1207027Y95968D01*
X1208481Y94997D01*
Y97423D01*
D02*
G37*
G36*
X1215987D02*
X1213561D01*
Y94997D01*
X1215015Y95968D01*
X1215987Y97423D01*
D02*
G37*
G36*
X1228480Y100422D02*
X1226054D01*
Y97996D01*
X1227508Y98968D01*
X1228480Y100422D01*
D02*
G37*
G36*
X1238373Y111576D02*
Y109151D01*
X1240798D01*
X1239827Y110605D01*
X1238373Y111576D01*
D02*
G37*
G36*
X1240798Y104071D02*
X1238373D01*
Y101645D01*
X1239827Y102617D01*
X1240798Y104071D01*
D02*
G37*
G36*
X1093946Y582003D02*
X1092492Y581031D01*
X1091520Y579577D01*
X1093946D01*
Y582003D01*
D02*
G37*
G36*
X1099026D02*
Y579577D01*
X1101452D01*
X1100480Y581031D01*
X1099026Y582003D01*
D02*
G37*
G36*
X1081627Y570848D02*
X1079202D01*
X1080173Y569394D01*
X1081627Y568423D01*
Y570848D01*
D02*
G37*
G36*
Y578354D02*
X1080173Y577383D01*
X1079202Y575928D01*
X1081627D01*
Y578354D01*
D02*
G37*
G36*
X1111518Y585002D02*
Y582576D01*
X1113944D01*
X1112973Y584031D01*
X1111518Y585002D01*
D02*
G37*
G36*
X1106439D02*
X1104984Y584031D01*
X1104013Y582576D01*
X1106439D01*
Y585002D01*
D02*
G37*
G36*
X1110013Y566355D02*
X1107587D01*
Y563929D01*
X1109041Y564901D01*
X1110013Y566355D01*
D02*
G37*
G36*
X1086707Y578354D02*
Y573388D01*
Y568423D01*
X1086859Y568524D01*
X1087469Y568147D01*
X1087888Y567684D01*
X1087494Y565705D01*
X1087924Y563544D01*
X1089149Y561711D01*
X1090603Y560740D01*
Y565705D01*
X1095683D01*
Y560740D01*
X1097137Y561711D01*
X1098361Y563544D01*
X1098791Y565705D01*
X1098659Y566372D01*
X1099828Y566733D01*
X1101053Y564901D01*
X1102507Y563929D01*
Y568895D01*
X1105047D01*
Y571435D01*
X1110013D01*
X1109041Y572889D01*
X1108633Y573162D01*
X1108910Y574145D01*
X1109060Y574404D01*
X1111140Y574818D01*
X1112973Y576042D01*
X1113944Y577496D01*
X1104013D01*
X1104984Y576042D01*
X1105393Y575770D01*
X1105115Y574786D01*
X1104966Y574527D01*
X1102885Y574114D01*
X1102591Y573917D01*
X1101676Y574832D01*
X1101452Y574497D01*
X1091520D01*
X1092492Y573043D01*
X1093210Y572564D01*
X1093197Y572330D01*
X1092828Y571291D01*
X1090981Y570924D01*
X1090452Y570570D01*
X1089841Y570947D01*
X1089422Y571410D01*
X1089816Y573388D01*
X1089386Y575550D01*
X1088161Y577383D01*
X1086707Y578354D01*
D02*
G37*
G36*
X1405003Y388481D02*
X1402577D01*
Y386055D01*
X1404031Y387027D01*
X1405003Y388481D01*
D02*
G37*
G36*
X1068410Y394240D02*
X1065984D01*
X1066956Y392785D01*
X1068410Y391814D01*
Y394240D01*
D02*
G37*
G36*
X1075916D02*
X1073490D01*
Y391814D01*
X1074944Y392785D01*
X1075916Y394240D01*
D02*
G37*
G36*
X1386355Y392412D02*
X1383930D01*
X1384901Y390958D01*
X1386355Y389987D01*
Y392412D01*
D02*
G37*
G36*
X1082277Y418869D02*
X1080823Y417898D01*
X1079851Y416444D01*
X1082277D01*
Y418869D01*
D02*
G37*
G36*
X1390849Y420798D02*
X1389395Y419826D01*
X1388423Y418372D01*
X1390849D01*
Y420798D01*
D02*
G37*
G36*
X1099401Y432736D02*
X1097947Y431764D01*
X1096722Y429932D01*
X1096292Y427770D01*
X1096403Y427212D01*
X1095555Y426646D01*
Y421286D01*
Y416320D01*
X1097010Y417292D01*
X1098234Y419124D01*
X1098664Y421286D01*
X1098553Y421844D01*
X1099401Y422410D01*
Y427770D01*
Y432736D01*
D02*
G37*
G36*
X1106907Y425230D02*
X1104481D01*
Y422805D01*
X1105935Y423776D01*
X1106907Y425230D01*
D02*
G37*
G36*
X1104481Y432736D02*
Y430310D01*
X1106907D01*
X1105935Y431764D01*
X1104481Y432736D01*
D02*
G37*
G36*
X1395929Y420798D02*
Y418372D01*
X1398354D01*
X1397383Y419826D01*
X1395929Y420798D01*
D02*
G37*
G36*
X1402003Y400974D02*
X1399578D01*
Y398548D01*
X1401032Y399520D01*
X1402003Y400974D01*
D02*
G37*
G36*
X1082401Y403165D02*
X1072075D01*
X1071508Y402317D01*
X1070950Y402428D01*
X1068789Y401998D01*
X1066956Y400774D01*
X1065984Y399319D01*
X1076310D01*
X1076877Y400167D01*
X1077435Y400056D01*
X1079596Y400486D01*
X1081429Y401711D01*
X1082401Y403165D01*
D02*
G37*
G36*
X1402577Y395987D02*
Y393561D01*
X1405003D01*
X1404031Y395015D01*
X1402577Y395987D01*
D02*
G37*
G36*
X1090475Y426251D02*
X1089021Y425280D01*
X1087797Y423447D01*
X1087367Y421286D01*
X1087583Y420198D01*
X1087489Y420030D01*
X1087357Y419924D01*
Y413904D01*
X1084817D01*
Y411364D01*
X1078797D01*
X1078691Y411232D01*
X1078522Y411137D01*
X1077435Y411353D01*
X1075273Y410924D01*
X1073441Y409699D01*
X1072469Y408245D01*
X1083455D01*
X1083561Y408377D01*
X1083729Y408471D01*
X1084817Y408255D01*
X1086978Y408685D01*
X1088811Y409910D01*
X1090035Y411742D01*
X1090465Y413904D01*
X1090249Y414991D01*
X1090344Y415160D01*
X1090475Y415266D01*
Y421286D01*
Y426251D01*
D02*
G37*
G36*
X1398354Y413292D02*
X1388423D01*
X1388524Y413141D01*
X1388148Y412530D01*
X1387684Y412112D01*
X1385706Y412505D01*
X1383544Y412075D01*
X1381712Y410851D01*
X1380740Y409397D01*
X1385706D01*
Y404317D01*
X1380740D01*
X1381712Y402863D01*
X1383544Y401638D01*
X1385706Y401208D01*
X1386373Y401341D01*
X1386734Y400171D01*
X1384901Y398947D01*
X1383930Y397492D01*
X1388895D01*
Y394953D01*
X1391435D01*
Y389987D01*
X1392890Y390958D01*
X1393162Y391367D01*
X1394146Y391089D01*
X1394405Y390940D01*
X1394818Y388859D01*
X1396043Y387027D01*
X1397497Y386055D01*
Y391021D01*
Y395987D01*
X1396043Y395015D01*
X1395770Y394607D01*
X1394787Y394884D01*
X1394528Y395034D01*
X1394114Y397114D01*
X1393918Y397408D01*
X1394833Y398323D01*
X1394498Y398547D01*
Y403514D01*
Y408479D01*
X1393044Y407508D01*
X1392564Y406790D01*
X1392330Y406803D01*
X1391292Y407172D01*
X1390924Y409018D01*
X1390570Y409548D01*
X1390947Y410159D01*
X1391410Y410577D01*
X1393389Y410184D01*
X1395550Y410614D01*
X1397383Y411838D01*
X1398354Y413292D01*
D02*
G37*
G36*
X1399578Y408479D02*
Y406054D01*
X1402003D01*
X1401032Y407508D01*
X1399578Y408479D01*
D02*
G37*
G36*
X1321568Y324029D02*
Y321603D01*
X1323993D01*
X1323022Y323057D01*
X1321568Y324029D01*
D02*
G37*
G36*
X1316487D02*
X1315033Y323057D01*
X1314062Y321603D01*
X1316487D01*
Y324029D01*
D02*
G37*
G36*
X1297667Y330112D02*
X1295242D01*
X1296213Y328657D01*
X1297667Y327686D01*
Y330112D01*
D02*
G37*
G36*
Y337617D02*
X1296213Y336646D01*
X1295242Y335192D01*
X1297667D01*
Y337617D01*
D02*
G37*
G36*
X1302747D02*
Y335192D01*
X1305173D01*
X1304202Y336646D01*
X1302747Y337617D01*
D02*
G37*
G36*
X1305173Y330112D02*
X1302747D01*
Y327686D01*
X1304202Y328657D01*
X1305173Y330112D01*
D02*
G37*
G36*
X1316487Y316523D02*
X1314062D01*
X1315033Y315069D01*
X1316487Y314097D01*
Y316523D01*
D02*
G37*
G36*
X1323993D02*
X1321568D01*
Y314097D01*
X1323022Y315069D01*
X1323993Y316523D01*
D02*
G37*
G36*
X1136524Y178432D02*
X1134098D01*
X1135069Y176978D01*
X1136524Y176006D01*
Y178432D01*
D02*
G37*
G36*
X1144029D02*
X1141604D01*
Y176006D01*
X1143058Y176978D01*
X1144029Y178432D01*
D02*
G37*
G36*
X1141604Y185938D02*
Y183512D01*
X1144029D01*
X1143058Y184966D01*
X1141604Y185938D01*
D02*
G37*
G36*
X1136524D02*
X1135069Y184966D01*
X1134098Y183512D01*
X1136524D01*
Y185938D01*
D02*
G37*
G36*
X1308514Y221552D02*
X1306089D01*
X1307060Y220098D01*
X1308514Y219126D01*
Y221552D01*
D02*
G37*
G36*
X1150112Y204758D02*
X1148658Y203786D01*
X1147686Y202332D01*
X1150112D01*
Y204758D01*
D02*
G37*
G36*
X1155192D02*
Y202332D01*
X1157618D01*
X1156646Y203786D01*
X1155192Y204758D01*
D02*
G37*
G36*
X1316020Y221552D02*
X1313594D01*
Y219126D01*
X1315048Y220098D01*
X1316020Y221552D01*
D02*
G37*
G36*
X1313594Y229058D02*
Y226632D01*
X1316020D01*
X1315048Y228086D01*
X1313594Y229058D01*
D02*
G37*
G36*
X1308514D02*
X1307060Y228086D01*
X1306089Y226632D01*
X1308514D01*
Y229058D01*
D02*
G37*
G36*
X1150112Y197252D02*
X1147686D01*
X1148658Y195798D01*
X1150112Y194826D01*
Y197252D01*
D02*
G37*
G36*
X1310078Y192630D02*
X1307653D01*
X1308624Y191176D01*
X1310078Y190205D01*
Y192630D01*
D02*
G37*
G36*
X1317584D02*
X1315159D01*
Y190205D01*
X1316613Y191176D01*
X1317584Y192630D01*
D02*
G37*
G36*
X1157618Y197252D02*
X1155192D01*
Y194826D01*
X1156646Y195798D01*
X1157618Y197252D01*
D02*
G37*
G36*
X1315159Y200136D02*
Y197710D01*
X1317584D01*
X1316613Y199164D01*
X1315159Y200136D01*
D02*
G37*
G36*
X1310078D02*
X1308624Y199164D01*
X1307653Y197710D01*
X1310078D01*
Y200136D01*
D02*
G37*
G36*
X1164808Y485173D02*
X1163354Y484201D01*
X1162382Y482747D01*
X1164808D01*
Y485173D01*
D02*
G37*
G36*
X1169888D02*
Y482747D01*
X1172314D01*
X1171342Y484201D01*
X1169888Y485173D01*
D02*
G37*
G36*
X1004842Y482289D02*
X1002416D01*
X1003387Y480835D01*
X1004842Y479863D01*
Y482289D01*
D02*
G37*
G36*
X1012347D02*
X1009921D01*
Y479863D01*
X1011376Y480835D01*
X1012347Y482289D01*
D02*
G37*
G36*
X1009921Y489795D02*
Y487369D01*
X1012347D01*
X1011376Y488823D01*
X1009921Y489795D01*
D02*
G37*
G36*
X1004842D02*
X1003387Y488823D01*
X1002416Y487369D01*
X1004842D01*
Y489795D01*
D02*
G37*
G36*
X1006406Y460873D02*
X1004952Y459902D01*
X1003980Y458447D01*
X1006406D01*
Y460873D01*
D02*
G37*
G36*
X1011486D02*
Y458447D01*
X1013912D01*
X1012940Y459902D01*
X1011486Y460873D01*
D02*
G37*
G36*
X1006406Y453368D02*
X1003980D01*
X1004952Y451913D01*
X1006406Y450942D01*
Y453368D01*
D02*
G37*
G36*
X1013912D02*
X1011486D01*
Y450942D01*
X1012940Y451913D01*
X1013912Y453368D01*
D02*
G37*
G36*
X1172314Y477667D02*
X1169888D01*
Y475242D01*
X1171342Y476213D01*
X1172314Y477667D01*
D02*
G37*
G36*
X1164808D02*
X1162382D01*
X1163354Y476213D01*
X1164808Y475242D01*
Y477667D01*
D02*
G37*
G36*
X1178396Y503993D02*
X1176942Y503022D01*
X1175971Y501567D01*
X1178396D01*
Y503993D01*
D02*
G37*
G36*
X1183476D02*
Y501567D01*
X1185902D01*
X1184930Y503022D01*
X1183476Y503993D01*
D02*
G37*
G36*
X1178396Y496487D02*
X1175971D01*
X1176942Y495033D01*
X1178396Y494062D01*
Y496487D01*
D02*
G37*
G36*
X1185902D02*
X1183476D01*
Y494062D01*
X1184930Y495033D01*
X1185902Y496487D01*
D02*
G37*
G36*
X998432Y365902D02*
X996978Y364930D01*
X996007Y363476D01*
X998432D01*
Y365902D01*
D02*
G37*
G36*
X1003512D02*
Y363476D01*
X1005938D01*
X1004967Y364930D01*
X1003512Y365902D01*
D02*
G37*
G36*
X1017253Y352313D02*
X1015798Y351342D01*
X1014827Y349888D01*
X1017253D01*
Y352313D01*
D02*
G37*
G36*
Y344808D02*
X1014827D01*
X1015798Y343353D01*
X1017253Y342382D01*
Y344808D01*
D02*
G37*
G36*
X1024758D02*
X1022333D01*
Y342382D01*
X1023787Y343353D01*
X1024758Y344808D01*
D02*
G37*
G36*
X998432Y358396D02*
X996007D01*
X996978Y356942D01*
X998432Y355970D01*
Y358396D01*
D02*
G37*
G36*
X1005938D02*
X1003512D01*
Y355970D01*
X1004967Y356942D01*
X1005938Y358396D01*
D02*
G37*
G36*
X1022333Y352313D02*
Y349888D01*
X1024758D01*
X1023787Y351342D01*
X1022333Y352313D01*
D02*
G37*
G36*
X493594Y229058D02*
Y226632D01*
X496020D01*
X495048Y228086D01*
X493594Y229058D01*
D02*
G37*
G36*
X496488Y324029D02*
X495033Y323058D01*
X494062Y321604D01*
X496488D01*
Y324029D01*
D02*
G37*
G36*
X501567D02*
Y321604D01*
X503993D01*
X503022Y323058D01*
X501567Y324029D01*
D02*
G37*
G36*
X503993Y316524D02*
X501567D01*
Y314098D01*
X503022Y315070D01*
X503993Y316524D01*
D02*
G37*
G36*
X485173Y330112D02*
X482747D01*
Y327686D01*
X484202Y328658D01*
X485173Y330112D01*
D02*
G37*
G36*
X477667D02*
X475242D01*
X476213Y328658D01*
X477667Y327686D01*
Y330112D01*
D02*
G37*
G36*
X496488Y316524D02*
X494062D01*
X495033Y315070D01*
X496488Y314098D01*
Y316524D01*
D02*
G37*
G36*
X316524Y185938D02*
X315070Y184967D01*
X314098Y183512D01*
X316524D01*
Y185938D01*
D02*
G37*
G36*
Y178433D02*
X314098D01*
X315070Y176978D01*
X316524Y176007D01*
Y178433D01*
D02*
G37*
G36*
X324029D02*
X321604D01*
Y176007D01*
X323058Y176978D01*
X324029Y178433D01*
D02*
G37*
G36*
X321604Y185938D02*
Y183512D01*
X324029D01*
X323058Y184967D01*
X321604Y185938D01*
D02*
G37*
G36*
X335192Y204758D02*
Y202333D01*
X337618D01*
X336646Y203787D01*
X335192Y204758D01*
D02*
G37*
G36*
X330112D02*
X328658Y203787D01*
X327686Y202333D01*
X330112D01*
Y204758D01*
D02*
G37*
G36*
X488514Y229058D02*
X487060Y228086D01*
X486088Y226632D01*
X488514D01*
Y229058D01*
D02*
G37*
G36*
Y221552D02*
X486088D01*
X487060Y220098D01*
X488514Y219127D01*
Y221552D01*
D02*
G37*
G36*
X496020D02*
X493594D01*
Y219127D01*
X495048Y220098D01*
X496020Y221552D01*
D02*
G37*
G36*
X495159Y200137D02*
Y197711D01*
X497584D01*
X496613Y199165D01*
X495159Y200137D01*
D02*
G37*
G36*
X497584Y192631D02*
X495159D01*
Y190205D01*
X496613Y191177D01*
X497584Y192631D01*
D02*
G37*
G36*
X490079D02*
X487653D01*
X488624Y191177D01*
X490079Y190205D01*
Y192631D01*
D02*
G37*
G36*
Y200137D02*
X488624Y199165D01*
X487653Y197711D01*
X490079D01*
Y200137D01*
D02*
G37*
G36*
X330112Y197253D02*
X327686D01*
X328658Y195798D01*
X330112Y194827D01*
Y197253D01*
D02*
G37*
G36*
X337618D02*
X335192D01*
Y194827D01*
X336646Y195798D01*
X337618Y197253D01*
D02*
G37*
G36*
X477667Y337618D02*
X476213Y336646D01*
X475242Y335192D01*
X477667D01*
Y337618D01*
D02*
G37*
G36*
X192347Y482290D02*
X189921D01*
Y479864D01*
X191376Y480835D01*
X192347Y482290D01*
D02*
G37*
G36*
X184841D02*
X182416D01*
X183387Y480835D01*
X184841Y479864D01*
Y482290D01*
D02*
G37*
G36*
Y489795D02*
X183387Y488824D01*
X182416Y487370D01*
X184841D01*
Y489795D01*
D02*
G37*
G36*
X189921D02*
Y487370D01*
X192347D01*
X191376Y488824D01*
X189921Y489795D01*
D02*
G37*
G36*
X344808Y485173D02*
X343354Y484202D01*
X342382Y482748D01*
X344808D01*
Y485173D01*
D02*
G37*
G36*
X349888D02*
Y482748D01*
X352314D01*
X351342Y484202D01*
X349888Y485173D01*
D02*
G37*
G36*
X193911Y453368D02*
X191486D01*
Y450942D01*
X192940Y451914D01*
X193911Y453368D01*
D02*
G37*
G36*
X186406D02*
X183980D01*
X184952Y451914D01*
X186406Y450942D01*
Y453368D01*
D02*
G37*
G36*
X344808Y477668D02*
X342382D01*
X343354Y476214D01*
X344808Y475242D01*
Y477668D01*
D02*
G37*
G36*
X352314D02*
X349888D01*
Y475242D01*
X351342Y476214D01*
X352314Y477668D01*
D02*
G37*
G36*
X186406Y460874D02*
X184952Y459902D01*
X183980Y458448D01*
X186406D01*
Y460874D01*
D02*
G37*
G36*
X191486D02*
Y458448D01*
X193911D01*
X192940Y459902D01*
X191486Y460874D01*
D02*
G37*
G36*
X365902Y496488D02*
X363476D01*
Y494062D01*
X364930Y495034D01*
X365902Y496488D01*
D02*
G37*
G36*
X358396D02*
X355971D01*
X356942Y495034D01*
X358396Y494062D01*
Y496488D01*
D02*
G37*
G36*
Y503994D02*
X356942Y503022D01*
X355971Y501568D01*
X358396D01*
Y503994D01*
D02*
G37*
G36*
X363476D02*
Y501568D01*
X365902D01*
X364930Y503022D01*
X363476Y503994D01*
D02*
G37*
G36*
X178433Y365902D02*
X176978Y364930D01*
X176007Y363476D01*
X178433D01*
Y365902D01*
D02*
G37*
G36*
X183512D02*
Y363476D01*
X185938D01*
X184967Y364930D01*
X183512Y365902D01*
D02*
G37*
G36*
X185938Y358396D02*
X183512D01*
Y355971D01*
X184967Y356942D01*
X185938Y358396D01*
D02*
G37*
G36*
X197253Y344808D02*
X194827D01*
X195798Y343354D01*
X197253Y342382D01*
Y344808D01*
D02*
G37*
G36*
X204758D02*
X202333D01*
Y342382D01*
X203787Y343354D01*
X204758Y344808D01*
D02*
G37*
G36*
X482747Y337618D02*
Y335192D01*
X485173D01*
X484202Y336646D01*
X482747Y337618D01*
D02*
G37*
G36*
X178433Y358396D02*
X176007D01*
X176978Y356942D01*
X178433Y355971D01*
Y358396D01*
D02*
G37*
G36*
X197253Y352314D02*
X195798Y351342D01*
X194827Y349888D01*
X197253D01*
Y352314D01*
D02*
G37*
G36*
X202333D02*
Y349888D01*
X204758D01*
X203787Y351342D01*
X202333Y352314D01*
D02*
G37*
G36*
X426877Y271130D02*
X415891D01*
X415785Y270998D01*
X415616Y270903D01*
X414529Y271120D01*
X412367Y270690D01*
X410535Y269465D01*
X409310Y267633D01*
X408880Y265471D01*
X409097Y264384D01*
X409002Y264215D01*
X408870Y264109D01*
Y258089D01*
Y253123D01*
X410324Y254095D01*
X411549Y255927D01*
X411979Y258089D01*
X411763Y259177D01*
X411857Y259345D01*
X411989Y259451D01*
Y265471D01*
X414529D01*
Y268011D01*
X420549D01*
X420655Y268143D01*
X420824Y268237D01*
X421911Y268021D01*
X424073Y268451D01*
X425905Y269676D01*
X426877Y271130D01*
D02*
G37*
G36*
X102503Y293944D02*
Y288979D01*
Y284013D01*
X103957Y284984D01*
X104230Y285393D01*
X105213Y285115D01*
X105472Y284966D01*
X105886Y282885D01*
X106082Y282591D01*
X105167Y281676D01*
X105502Y281452D01*
Y276486D01*
Y271520D01*
X106956Y272492D01*
X107436Y273210D01*
X107670Y273197D01*
X108708Y272828D01*
X109076Y270981D01*
X109430Y270452D01*
X109053Y269841D01*
X108590Y269422D01*
X106611Y269816D01*
X104450Y269386D01*
X102617Y268162D01*
X101645Y266707D01*
X111577D01*
X111476Y266859D01*
X111852Y267470D01*
X112315Y267888D01*
X114294Y267494D01*
X116456Y267924D01*
X118288Y269149D01*
X119260Y270603D01*
X114294D01*
Y275683D01*
X119260D01*
X118288Y277137D01*
X116456Y278361D01*
X114294Y278791D01*
X113628Y278659D01*
X113266Y279828D01*
X115099Y281053D01*
X116070Y282507D01*
X111104D01*
Y285047D01*
X108565D01*
Y290013D01*
X107110Y289041D01*
X106838Y288633D01*
X105854Y288910D01*
X105595Y289060D01*
X105182Y291140D01*
X103957Y292973D01*
X102503Y293944D01*
D02*
G37*
G36*
X419495Y262931D02*
X417069D01*
Y260505D01*
X418523Y261477D01*
X419495Y262931D01*
D02*
G37*
G36*
X433362Y280055D02*
X423036D01*
X422469Y279207D01*
X421911Y279318D01*
X419749Y278888D01*
X417917Y277664D01*
X416945Y276210D01*
X427271D01*
X427838Y277058D01*
X428396Y276947D01*
X430557Y277377D01*
X432390Y278601D01*
X433362Y280055D01*
D02*
G37*
G36*
X100422Y281452D02*
X98968Y280480D01*
X97997Y279026D01*
X100422D01*
Y281452D01*
D02*
G37*
G36*
Y273946D02*
X97997D01*
X98968Y272492D01*
X100422Y271520D01*
Y273946D01*
D02*
G37*
G36*
X394865Y249064D02*
X392439D01*
X393411Y247610D01*
X394865Y246639D01*
Y249064D01*
D02*
G37*
G36*
X403790Y263055D02*
X402336Y262083D01*
X401112Y260250D01*
X400682Y258089D01*
X400793Y257531D01*
X399945Y256964D01*
Y251604D01*
Y246639D01*
X401399Y247610D01*
X402623Y249443D01*
X403053Y251604D01*
X402942Y252162D01*
X403790Y252729D01*
Y258089D01*
Y263055D01*
D02*
G37*
G36*
X104071Y261627D02*
X101645D01*
X102617Y260173D01*
X104071Y259202D01*
Y261627D01*
D02*
G37*
G36*
X111577D02*
X109151D01*
Y259202D01*
X110605Y260173D01*
X111577Y261627D01*
D02*
G37*
G36*
X394865Y256570D02*
X393411Y255598D01*
X392439Y254144D01*
X394865D01*
Y256570D01*
D02*
G37*
G36*
X425856Y287561D02*
X424402Y286589D01*
X423430Y285135D01*
X425856D01*
Y287561D01*
D02*
G37*
G36*
X430936D02*
Y285135D01*
X433362D01*
X432390Y286589D01*
X430936Y287561D01*
D02*
G37*
G36*
X97423Y286439D02*
X94997D01*
X95969Y284984D01*
X97423Y284013D01*
Y286439D01*
D02*
G37*
G36*
Y293944D02*
X95969Y292973D01*
X94997Y291519D01*
X97423D01*
Y293944D01*
D02*
G37*
G36*
X113645Y290013D02*
Y287587D01*
X116070D01*
X115099Y289041D01*
X113645Y290013D01*
D02*
G37*
G36*
X409397Y119260D02*
Y114294D01*
X404317D01*
Y119260D01*
X402863Y118288D01*
X401638Y116456D01*
X401209Y114294D01*
X401341Y113628D01*
X400172Y113266D01*
X398947Y115099D01*
X397493Y116070D01*
Y111104D01*
X394953D01*
Y108565D01*
X389987D01*
X390959Y107110D01*
X391367Y106838D01*
X391090Y105854D01*
X390940Y105595D01*
X388860Y105182D01*
X387027Y103957D01*
X386056Y102503D01*
X395987D01*
X395016Y103957D01*
X394607Y104230D01*
X394885Y105213D01*
X395034Y105472D01*
X397114Y105886D01*
X397409Y106082D01*
X398324Y105167D01*
X398548Y105502D01*
X408480D01*
X407508Y106956D01*
X406790Y107436D01*
X406803Y107670D01*
X407172Y108708D01*
X409019Y109076D01*
X409548Y109430D01*
X410159Y109053D01*
X410578Y108590D01*
X410184Y106611D01*
X410614Y104450D01*
X411838Y102617D01*
X413293Y101645D01*
Y106611D01*
Y111577D01*
X413141Y111476D01*
X412531Y111852D01*
X412112Y112315D01*
X412506Y114294D01*
X412076Y116456D01*
X410851Y118288D01*
X409397Y119260D01*
D02*
G37*
G36*
X392413Y116070D02*
X390959Y115099D01*
X389987Y113645D01*
X392413D01*
Y116070D01*
D02*
G37*
G36*
X418373Y111577D02*
Y109151D01*
X420798D01*
X419827Y110605D01*
X418373Y111577D01*
D02*
G37*
G36*
X395987Y97423D02*
X393561D01*
Y94997D01*
X395016Y95969D01*
X395987Y97423D01*
D02*
G37*
G36*
X388481D02*
X386056D01*
X387027Y95969D01*
X388481Y94997D01*
Y97423D01*
D02*
G37*
G36*
X420798Y104071D02*
X418373D01*
Y101645D01*
X419827Y102617D01*
X420798Y104071D01*
D02*
G37*
G36*
X400974Y100422D02*
X398548D01*
X399520Y98968D01*
X400974Y97997D01*
Y100422D01*
D02*
G37*
G36*
X408480D02*
X406054D01*
Y97997D01*
X407508Y98968D01*
X408480Y100422D01*
D02*
G37*
G36*
X261627Y578355D02*
X260173Y577383D01*
X259202Y575929D01*
X261627D01*
Y578355D01*
D02*
G37*
G36*
Y570849D02*
X259202D01*
X260173Y569395D01*
X261627Y568423D01*
Y570849D01*
D02*
G37*
G36*
X286439Y585003D02*
X284984Y584031D01*
X284013Y582577D01*
X286439D01*
Y585003D01*
D02*
G37*
G36*
X291519D02*
Y582577D01*
X293944D01*
X292973Y584031D01*
X291519Y585003D01*
D02*
G37*
G36*
X273946Y582004D02*
X272492Y581032D01*
X271520Y579578D01*
X273946D01*
Y582004D01*
D02*
G37*
G36*
X279026D02*
Y579578D01*
X281452D01*
X280480Y581032D01*
X279026Y582004D01*
D02*
G37*
G36*
X266707Y578355D02*
Y573389D01*
Y568423D01*
X266859Y568524D01*
X267470Y568148D01*
X267888Y567685D01*
X267494Y565706D01*
X267924Y563544D01*
X269149Y561712D01*
X270603Y560740D01*
Y565706D01*
X275683D01*
Y560740D01*
X277137Y561712D01*
X278361Y563544D01*
X278791Y565706D01*
X278659Y566372D01*
X279828Y566734D01*
X281053Y564901D01*
X282507Y563930D01*
Y568895D01*
X285047D01*
Y571436D01*
X290013D01*
X289041Y572890D01*
X288633Y573162D01*
X288910Y574146D01*
X289060Y574405D01*
X291140Y574818D01*
X292973Y576043D01*
X293944Y577497D01*
X284013D01*
X284984Y576043D01*
X285393Y575770D01*
X285115Y574787D01*
X284966Y574528D01*
X282885Y574114D01*
X282591Y573918D01*
X281676Y574833D01*
X281452Y574498D01*
X271520D01*
X272492Y573044D01*
X273210Y572564D01*
X273197Y572330D01*
X272828Y571292D01*
X270981Y570924D01*
X270452Y570570D01*
X269841Y570947D01*
X269422Y571410D01*
X269816Y573389D01*
X269386Y575550D01*
X268162Y577383D01*
X266707Y578355D01*
D02*
G37*
G36*
X290013Y566356D02*
X287587D01*
Y563930D01*
X289041Y564901D01*
X290013Y566356D01*
D02*
G37*
G36*
X284481Y432737D02*
Y430311D01*
X286907D01*
X285935Y431765D01*
X284481Y432737D01*
D02*
G37*
G36*
X248410Y394240D02*
X245984D01*
X246956Y392786D01*
X248410Y391814D01*
Y394240D01*
D02*
G37*
G36*
X585003Y388481D02*
X582577D01*
Y386056D01*
X584031Y387027D01*
X585003Y388481D01*
D02*
G37*
G36*
X566356Y392413D02*
X563930D01*
X564901Y390959D01*
X566356Y389987D01*
Y392413D01*
D02*
G37*
G36*
X262277Y418870D02*
X260823Y417898D01*
X259851Y416444D01*
X262277D01*
Y418870D01*
D02*
G37*
G36*
X578355Y413293D02*
X568423D01*
X568524Y413141D01*
X568148Y412531D01*
X567685Y412112D01*
X565706Y412506D01*
X563544Y412076D01*
X561712Y410851D01*
X560740Y409397D01*
X565706D01*
Y404317D01*
X560740D01*
X561712Y402863D01*
X563544Y401638D01*
X565706Y401209D01*
X566372Y401341D01*
X566734Y400172D01*
X564901Y398947D01*
X563930Y397493D01*
X568895D01*
Y394953D01*
X571436D01*
Y389987D01*
X572890Y390959D01*
X573162Y391367D01*
X574146Y391090D01*
X574405Y390940D01*
X574818Y388860D01*
X576043Y387027D01*
X577497Y386056D01*
Y391021D01*
Y395987D01*
X576043Y395016D01*
X575770Y394607D01*
X574787Y394885D01*
X574528Y395034D01*
X574114Y397114D01*
X573918Y397409D01*
X574833Y398324D01*
X574498Y398548D01*
Y403514D01*
Y408480D01*
X573044Y407508D01*
X572564Y406790D01*
X572330Y406803D01*
X571292Y407172D01*
X570924Y409019D01*
X570570Y409548D01*
X570947Y410159D01*
X571410Y410578D01*
X573389Y410184D01*
X575550Y410614D01*
X577383Y411838D01*
X578355Y413293D01*
D02*
G37*
G36*
X279401Y432737D02*
X277947Y431765D01*
X276722Y429932D01*
X276292Y427771D01*
X276403Y427213D01*
X275556Y426646D01*
Y421286D01*
Y416320D01*
X277010Y417292D01*
X278234Y419125D01*
X278664Y421286D01*
X278553Y421844D01*
X279401Y422411D01*
Y427771D01*
Y432737D01*
D02*
G37*
G36*
X286907Y425231D02*
X284481D01*
Y422805D01*
X285935Y423777D01*
X286907Y425231D01*
D02*
G37*
G36*
X570849Y420798D02*
X569395Y419827D01*
X568423Y418373D01*
X570849D01*
Y420798D01*
D02*
G37*
G36*
X575929D02*
Y418373D01*
X578355D01*
X577383Y419827D01*
X575929Y420798D01*
D02*
G37*
G36*
X582004Y400974D02*
X579578D01*
Y398548D01*
X581032Y399520D01*
X582004Y400974D01*
D02*
G37*
G36*
X255916Y394240D02*
X253490D01*
Y391814D01*
X254944Y392786D01*
X255916Y394240D01*
D02*
G37*
G36*
X582577Y395987D02*
Y393561D01*
X585003D01*
X584031Y395016D01*
X582577Y395987D01*
D02*
G37*
G36*
X270476Y426252D02*
X269021Y425280D01*
X267797Y423448D01*
X267367Y421286D01*
X267583Y420199D01*
X267489Y420030D01*
X267357Y419924D01*
Y413904D01*
X264817D01*
Y411364D01*
X258797D01*
X258691Y411232D01*
X258522Y411138D01*
X257435Y411354D01*
X255273Y410924D01*
X253441Y409700D01*
X252469Y408245D01*
X263455D01*
X263561Y408377D01*
X263729Y408472D01*
X264817Y408256D01*
X266978Y408685D01*
X268811Y409910D01*
X270035Y411743D01*
X270465Y413904D01*
X270249Y414992D01*
X270344Y415160D01*
X270476Y415266D01*
Y421286D01*
Y426252D01*
D02*
G37*
G36*
X262400Y403165D02*
X252075D01*
X251508Y402318D01*
X250950Y402429D01*
X248789Y401998D01*
X246956Y400774D01*
X245984Y399320D01*
X256310D01*
X256877Y400168D01*
X257435Y400057D01*
X259596Y400487D01*
X261429Y401711D01*
X262400Y403165D01*
D02*
G37*
G36*
X579578Y408480D02*
Y406054D01*
X582004D01*
X581032Y407508D01*
X579578Y408480D01*
D02*
G37*
%LPD*%
D43*
X574806Y417250D02*
G03*
X573389Y415833I0J-1417D01*
G01*
X882000Y599750D02*
Y662500D01*
X775000Y614500D02*
X867250D01*
X882000Y599750D01*
X807965Y492465D02*
X826250Y510750D01*
X807965Y434965D02*
Y492465D01*
X723000Y644000D02*
X724000Y645000D01*
X740000Y568000D02*
Y588427D01*
Y568000D02*
X751250Y556750D01*
X740000Y588427D02*
X766073Y614500D01*
X751250Y544750D02*
Y556750D01*
X766073Y614500D02*
X775000D01*
X701500Y443808D02*
X722808D01*
X701000Y518302D02*
X721698D01*
X701000Y588000D02*
X723000D01*
X724000Y645000D02*
X804000D01*
X750000Y298500D02*
X769540Y318040D01*
Y338000D01*
X723000Y435000D02*
X723035Y434965D01*
X735750D01*
X908485Y588000D02*
X957924Y637439D01*
X879000Y588000D02*
X908485D01*
X869854Y599750D02*
X882000D01*
X826250Y556146D02*
X869854Y599750D01*
X826250Y510750D02*
Y556146D01*
D44*
X722808Y443808D02*
X723000Y444000D01*
X721698Y518302D02*
X723000Y517000D01*
D45*
X660851Y328950D02*
X678750D01*
X649384Y307950D02*
X678750D01*
X821250Y308000D02*
X850616D01*
X821250Y329000D02*
X839150D01*
D46*
X723000Y588000D02*
Y644000D01*
X741009Y269386D02*
X911203D01*
X700000Y310395D02*
X741009Y269386D01*
X700000Y310395D02*
Y363465D01*
X723000Y444000D02*
Y517000D01*
Y435000D02*
Y444000D01*
Y517000D02*
Y588000D01*
X580037Y391021D02*
X672444D01*
X700000Y363465D01*
X672000Y391465D02*
X672444Y391021D01*
X616234Y663617D02*
X672000Y607851D01*
Y391465D02*
Y607851D01*
X723000Y644000D02*
Y663617D01*
Y325500D02*
X750000Y298500D01*
X723000Y325500D02*
Y435000D01*
D47*
X616234Y663617D02*
D03*
X768900Y662970D02*
D03*
X794300Y662970D02*
D03*
X819700Y662970D02*
D03*
X723000Y663617D02*
D03*
X632925Y530000D02*
D03*
X613250Y568895D02*
D03*
X562851Y663617D02*
D03*
X669617D02*
D03*
D48*
X845100Y662970D02*
D03*
D49*
X882000Y662500D02*
D03*
X807965Y434965D02*
D03*
X740000Y568000D02*
D03*
Y588427D02*
D03*
X934294Y273143D02*
D03*
X931105Y285047D02*
D03*
X926611Y264167D02*
D03*
X919963Y288979D02*
D03*
X922962Y276486D02*
D03*
X548026Y619000D02*
D03*
X648396Y475506D02*
D03*
Y549383D02*
D03*
X701500Y443808D02*
D03*
X701000Y518302D02*
D03*
X600953Y587302D02*
D03*
X648396Y599000D02*
D03*
X701000Y588000D02*
D03*
X804000Y645000D02*
D03*
X769540Y338000D02*
D03*
X735750Y434965D02*
D03*
X414529Y265471D02*
D03*
X406330Y258089D02*
D03*
X421911Y273670D02*
D03*
X397405Y251604D02*
D03*
X428396Y282595D02*
D03*
X257435Y405705D02*
D03*
X273016Y421286D02*
D03*
X276486Y577038D02*
D03*
X288979Y580037D02*
D03*
X264167Y573389D02*
D03*
X273143Y565706D02*
D03*
X285047Y568895D02*
D03*
X102962Y276486D02*
D03*
X99963Y288979D02*
D03*
X106611Y264167D02*
D03*
X111104Y285047D02*
D03*
X114294Y273143D02*
D03*
X577038Y403514D02*
D03*
X573389Y415833D02*
D03*
X580037Y391021D02*
D03*
X565706Y406857D02*
D03*
X568895Y394953D02*
D03*
X403514Y102962D02*
D03*
X415833Y106611D02*
D03*
X391021Y99963D02*
D03*
X394953Y111104D02*
D03*
X406857Y114294D02*
D03*
X188946Y455908D02*
D03*
X187381Y484830D02*
D03*
X264817Y413904D02*
D03*
X281941Y427771D02*
D03*
X250950Y396780D02*
D03*
X492618Y195171D02*
D03*
X491054Y224092D02*
D03*
X180972Y360936D02*
D03*
X199793Y347348D02*
D03*
X480207Y332652D02*
D03*
X499027Y319064D02*
D03*
X347348Y480208D02*
D03*
X360936Y499028D02*
D03*
X332652Y199793D02*
D03*
X319064Y180972D02*
D03*
X1139064Y180972D02*
D03*
X1152652Y199792D02*
D03*
X1180936Y499027D02*
D03*
X1167348Y480207D02*
D03*
X1319028Y319063D02*
D03*
X1300207Y332652D02*
D03*
X1019793Y347347D02*
D03*
X1000973Y360936D02*
D03*
X1311054Y224092D02*
D03*
X1312619Y195170D02*
D03*
X1070950Y396780D02*
D03*
X1101941Y427770D02*
D03*
X1007382Y484829D02*
D03*
X1008946Y455908D02*
D03*
X1226857Y114294D02*
D03*
X1214953Y111104D02*
D03*
X1211021Y99963D02*
D03*
X1235833Y106611D02*
D03*
X1223514Y102962D02*
D03*
X1388895Y394953D02*
D03*
X1385706Y406857D02*
D03*
X1400037Y391021D02*
D03*
X1393389Y415832D02*
D03*
X1397038Y403514D02*
D03*
X1105047Y568895D02*
D03*
X1093143Y565705D02*
D03*
X1084167Y573388D02*
D03*
X1108979Y580037D02*
D03*
X1096486Y577037D02*
D03*
X1093016Y421286D02*
D03*
X1248396Y282595D02*
D03*
X1217405Y251604D02*
D03*
X1241911Y273669D02*
D03*
X1226330Y258088D02*
D03*
X1234529Y265471D02*
D03*
X751250Y544750D02*
D03*
X826250Y510750D02*
D03*
X882000Y599750D02*
D03*
X879000Y588000D02*
D03*
X957924Y637439D02*
D03*
X775000Y614500D02*
D03*
X774000Y519000D02*
D03*
X1077435Y405705D02*
D03*
X1084817Y413904D02*
D03*
D50*
X750000Y298500D02*
D03*
X678750Y328950D02*
D03*
Y307950D02*
D03*
X821250Y308000D02*
D03*
Y329000D02*
D03*
X700000Y363465D02*
D03*
D51*
X648396Y475506D02*
Y549383D01*
X648396Y549383D01*
Y599000D01*
X548026Y619000D02*
X628396D01*
X648396Y599000D01*
M02*
