G04 Layer_Color=8388736*
%FSLAX44Y44*%
%MOMM*%
G71*
G01*
G75*
%ADD58O,0.5032X1.6532*%
%ADD59O,1.6532X0.5032*%
%ADD60O,1.6532X0.8032*%
%ADD61R,1.0032X1.1532*%
G04:AMPARAMS|DCode=62|XSize=1.2532mm|YSize=1.9532mm|CornerRadius=0mm|HoleSize=0mm|Usage=FLASHONLY|Rotation=314.423|XOffset=0mm|YOffset=0mm|HoleType=Round|Shape=Rectangle|*
%AMROTATEDRECTD62*
4,1,4,-1.1361,-0.2361,0.2589,1.1311,1.1361,0.2361,-0.2589,-1.1311,-1.1361,-0.2361,0.0*
%
%ADD62ROTATEDRECTD62*%

%ADD63R,1.1532X1.6032*%
%ADD64R,1.9532X1.2032*%
%ADD65R,1.9532X3.4532*%
G04:AMPARAMS|DCode=66|XSize=1.1032mm|YSize=1.7032mm|CornerRadius=0mm|HoleSize=0mm|Usage=FLASHONLY|Rotation=180.309|XOffset=0mm|YOffset=0mm|HoleType=Round|Shape=Rectangle|*
%AMROTATEDRECTD66*
4,1,4,0.5470,0.8546,0.5562,-0.8486,-0.5470,-0.8546,-0.5562,0.8486,0.5470,0.8546,0.0*
%
%ADD66ROTATEDRECTD66*%

%ADD67R,1.1032X2.0032*%
%ADD68R,1.3532X1.6532*%
%ADD69R,1.3532X1.6532*%
%ADD70R,1.6032X1.1532*%
%ADD71R,1.6532X1.3532*%
G04:AMPARAMS|DCode=72|XSize=1.2532mm|YSize=1.9532mm|CornerRadius=0mm|HoleSize=0mm|Usage=FLASHONLY|Rotation=105.000|XOffset=0mm|YOffset=0mm|HoleType=Round|Shape=Rectangle|*
%AMROTATEDRECTD72*
4,1,4,1.1055,-0.3525,-0.7812,-0.8580,-1.1055,0.3525,0.7812,0.8580,1.1055,-0.3525,0.0*
%
%ADD72ROTATEDRECTD72*%

G04:AMPARAMS|DCode=73|XSize=1.2532mm|YSize=1.9532mm|CornerRadius=0mm|HoleSize=0mm|Usage=FLASHONLY|Rotation=195.000|XOffset=0mm|YOffset=0mm|HoleType=Round|Shape=Rectangle|*
%AMROTATEDRECTD73*
4,1,4,0.3525,1.1055,0.8580,-0.7812,-0.3525,-1.1055,-0.8580,0.7812,0.3525,1.1055,0.0*
%
%ADD73ROTATEDRECTD73*%

G04:AMPARAMS|DCode=74|XSize=1.2532mm|YSize=1.9532mm|CornerRadius=0mm|HoleSize=0mm|Usage=FLASHONLY|Rotation=195.000|XOffset=0mm|YOffset=0mm|HoleType=Round|Shape=Rectangle|*
%AMROTATEDRECTD74*
4,1,4,0.3525,1.1055,0.8580,-0.7812,-0.3525,-1.1055,-0.8580,0.7812,0.3525,1.1055,0.0*
%
%ADD74ROTATEDRECTD74*%

G04:AMPARAMS|DCode=75|XSize=1.2532mm|YSize=1.9532mm|CornerRadius=0mm|HoleSize=0mm|Usage=FLASHONLY|Rotation=135.000|XOffset=0mm|YOffset=0mm|HoleType=Round|Shape=Rectangle|*
%AMROTATEDRECTD75*
4,1,4,1.1336,0.2475,-0.2475,-1.1336,-1.1336,-0.2475,0.2475,1.1336,1.1336,0.2475,0.0*
%
%ADD75ROTATEDRECTD75*%

G04:AMPARAMS|DCode=76|XSize=1.2532mm|YSize=1.9532mm|CornerRadius=0mm|HoleSize=0mm|Usage=FLASHONLY|Rotation=105.000|XOffset=0mm|YOffset=0mm|HoleType=Round|Shape=Rectangle|*
%AMROTATEDRECTD76*
4,1,4,1.1055,-0.3525,-0.7812,-0.8580,-1.1055,0.3525,0.7812,0.8580,1.1055,-0.3525,0.0*
%
%ADD76ROTATEDRECTD76*%

G04:AMPARAMS|DCode=77|XSize=1.2532mm|YSize=1.9532mm|CornerRadius=0mm|HoleSize=0mm|Usage=FLASHONLY|Rotation=195.015|XOffset=0mm|YOffset=0mm|HoleType=Round|Shape=Rectangle|*
%AMROTATEDRECTD77*
4,1,4,0.3522,1.1056,0.8582,-0.7809,-0.3522,-1.1056,-0.8582,0.7809,0.3522,1.1056,0.0*
%
%ADD77ROTATEDRECTD77*%

G04:AMPARAMS|DCode=78|XSize=1.2532mm|YSize=1.9532mm|CornerRadius=0mm|HoleSize=0mm|Usage=FLASHONLY|Rotation=105.000|XOffset=0mm|YOffset=0mm|HoleType=Round|Shape=Rectangle|*
%AMROTATEDRECTD78*
4,1,4,1.1055,-0.3525,-0.7812,-0.8580,-1.1055,0.3525,0.7812,0.8580,1.1055,-0.3525,0.0*
%
%ADD78ROTATEDRECTD78*%

%ADD79R,1.7032X1.1032*%
G04:AMPARAMS|DCode=80|XSize=1.1032mm|YSize=1.7032mm|CornerRadius=0mm|HoleSize=0mm|Usage=FLASHONLY|Rotation=60.000|XOffset=0mm|YOffset=0mm|HoleType=Round|Shape=Rectangle|*
%AMROTATEDRECTD80*
4,1,4,0.4617,-0.9035,-1.0133,-0.0519,-0.4617,0.9035,1.0133,0.0519,0.4617,-0.9035,0.0*
%
%ADD80ROTATEDRECTD80*%

G04:AMPARAMS|DCode=81|XSize=1.1032mm|YSize=1.7032mm|CornerRadius=0mm|HoleSize=0mm|Usage=FLASHONLY|Rotation=30.000|XOffset=0mm|YOffset=0mm|HoleType=Round|Shape=Rectangle|*
%AMROTATEDRECTD81*
4,1,4,-0.0519,-1.0133,-0.9035,0.4617,0.0519,1.0133,0.9035,-0.4617,-0.0519,-1.0133,0.0*
%
%ADD81ROTATEDRECTD81*%

%ADD82R,1.1032X1.7032*%
G04:AMPARAMS|DCode=83|XSize=1.1032mm|YSize=1.7032mm|CornerRadius=0mm|HoleSize=0mm|Usage=FLASHONLY|Rotation=150.000|XOffset=0mm|YOffset=0mm|HoleType=Round|Shape=Rectangle|*
%AMROTATEDRECTD83*
4,1,4,0.9035,0.4617,0.0519,-1.0133,-0.9035,-0.4617,-0.0519,1.0133,0.9035,0.4617,0.0*
%
%ADD83ROTATEDRECTD83*%

G04:AMPARAMS|DCode=84|XSize=1.1032mm|YSize=1.7032mm|CornerRadius=0mm|HoleSize=0mm|Usage=FLASHONLY|Rotation=120.000|XOffset=0mm|YOffset=0mm|HoleType=Round|Shape=Rectangle|*
%AMROTATEDRECTD84*
4,1,4,1.0133,-0.0519,-0.4617,-0.9035,-1.0133,0.0519,0.4617,0.9035,1.0133,-0.0519,0.0*
%
%ADD84ROTATEDRECTD84*%

G04:AMPARAMS|DCode=85|XSize=1.1032mm|YSize=1.7032mm|CornerRadius=0mm|HoleSize=0mm|Usage=FLASHONLY|Rotation=45.000|XOffset=0mm|YOffset=0mm|HoleType=Round|Shape=Rectangle|*
%AMROTATEDRECTD85*
4,1,4,0.2121,-0.9922,-0.9922,0.2121,-0.2121,0.9922,0.9922,-0.2121,0.2121,-0.9922,0.0*
%
%ADD85ROTATEDRECTD85*%

G04:AMPARAMS|DCode=86|XSize=1.1032mm|YSize=1.7032mm|CornerRadius=0mm|HoleSize=0mm|Usage=FLASHONLY|Rotation=315.064|XOffset=0mm|YOffset=0mm|HoleType=Round|Shape=Rectangle|*
%AMROTATEDRECTD86*
4,1,4,-0.9920,-0.2132,0.2110,0.9925,0.9920,0.2132,-0.2110,-0.9925,-0.9920,-0.2132,0.0*
%
%ADD86ROTATEDRECTD86*%

G04:AMPARAMS|DCode=87|XSize=1.1032mm|YSize=1.7032mm|CornerRadius=0mm|HoleSize=0mm|Usage=FLASHONLY|Rotation=315.064|XOffset=0mm|YOffset=0mm|HoleType=Round|Shape=Rectangle|*
%AMROTATEDRECTD87*
4,1,4,-0.9920,-0.2132,0.2110,0.9925,0.9920,0.2132,-0.2110,-0.9925,-0.9920,-0.2132,0.0*
%
%ADD87ROTATEDRECTD87*%

G04:AMPARAMS|DCode=88|XSize=1.1032mm|YSize=1.7032mm|CornerRadius=0mm|HoleSize=0mm|Usage=FLASHONLY|Rotation=315.000|XOffset=0mm|YOffset=0mm|HoleType=Round|Shape=Rectangle|*
%AMROTATEDRECTD88*
4,1,4,-0.9922,-0.2121,0.2121,0.9922,0.9922,0.2121,-0.2121,-0.9922,-0.9922,-0.2121,0.0*
%
%ADD88ROTATEDRECTD88*%

G04:AMPARAMS|DCode=89|XSize=1.1032mm|YSize=1.7032mm|CornerRadius=0mm|HoleSize=0mm|Usage=FLASHONLY|Rotation=45.000|XOffset=0mm|YOffset=0mm|HoleType=Round|Shape=Rectangle|*
%AMROTATEDRECTD89*
4,1,4,0.2121,-0.9922,-0.9922,0.2121,-0.2121,0.9922,0.9922,-0.2121,0.2121,-0.9922,0.0*
%
%ADD89ROTATEDRECTD89*%

%ADD90R,1.7032X1.1032*%
%ADD91C,1.8032*%
%ADD92R,1.8032X1.8032*%
%ADD93C,0.8032*%
%ADD94C,1.4032*%
D58*
X786250Y530000D02*
D03*
X791250Y530000D02*
D03*
X796250Y530000D02*
D03*
X801250Y530000D02*
D03*
X806250Y530000D02*
D03*
X811250D02*
D03*
X816250Y530000D02*
D03*
X821250Y530000D02*
D03*
X826250D02*
D03*
X831250D02*
D03*
X836250Y530000D02*
D03*
X841250D02*
D03*
X841250Y614500D02*
D03*
X836250Y614500D02*
D03*
X831250Y614500D02*
D03*
X826250Y614500D02*
D03*
X821250Y614500D02*
D03*
X816250Y614500D02*
D03*
X811250Y614500D02*
D03*
X806250Y614500D02*
D03*
X801250Y614500D02*
D03*
X796250D02*
D03*
X791250Y614500D02*
D03*
X786250D02*
D03*
D59*
X856000Y544750D02*
D03*
X856000Y549750D02*
D03*
X856000Y554750D02*
D03*
X856000Y559750D02*
D03*
X856000Y564750D02*
D03*
Y569750D02*
D03*
X856000Y574750D02*
D03*
X856000Y579750D02*
D03*
Y584750D02*
D03*
Y589750D02*
D03*
X856000Y594750D02*
D03*
Y599750D02*
D03*
X771500Y599750D02*
D03*
X771500Y594750D02*
D03*
X771500Y589750D02*
D03*
X771500Y584750D02*
D03*
X771500Y579750D02*
D03*
X771500Y574750D02*
D03*
X771500Y569750D02*
D03*
X771500Y564750D02*
D03*
X771500Y559750D02*
D03*
Y554750D02*
D03*
X771500Y549750D02*
D03*
Y544750D02*
D03*
D60*
X678750Y279300D02*
D03*
Y266600D02*
D03*
Y253900D02*
D03*
Y241200D02*
D03*
X733250Y279300D02*
D03*
Y266600D02*
D03*
Y253900D02*
D03*
Y241200D02*
D03*
X821250Y241250D02*
D03*
Y253950D02*
D03*
Y266650D02*
D03*
Y279350D02*
D03*
X766750Y241250D02*
D03*
Y253950D02*
D03*
Y266650D02*
D03*
Y279350D02*
D03*
D61*
X723000Y567000D02*
D03*
Y531000D02*
D03*
X622747Y636000D02*
D03*
Y600000D02*
D03*
X600953Y600000D02*
D03*
Y636000D02*
D03*
X723000Y636698D02*
D03*
Y600698D02*
D03*
X701000Y600698D02*
D03*
Y636698D02*
D03*
X723500Y492506D02*
D03*
Y456506D02*
D03*
X701500Y456506D02*
D03*
Y492506D02*
D03*
X701000Y531000D02*
D03*
Y567000D02*
D03*
D62*
X382616Y296517D02*
D03*
X402915Y275806D02*
D03*
D63*
X662500Y570000D02*
D03*
X681500D02*
D03*
X881925Y637439D02*
D03*
X900925D02*
D03*
X935925D02*
D03*
X916925D02*
D03*
X783750Y298500D02*
D03*
X764750D02*
D03*
X562630Y619000D02*
D03*
X581630D02*
D03*
X562630Y639000D02*
D03*
X581630D02*
D03*
X716250Y298500D02*
D03*
X735250D02*
D03*
X681500Y619000D02*
D03*
X662500D02*
D03*
Y639000D02*
D03*
X681500D02*
D03*
X970925Y662439D02*
D03*
X951925D02*
D03*
X916925D02*
D03*
X935925D02*
D03*
X682000Y475506D02*
D03*
X663000D02*
D03*
Y495506D02*
D03*
X682000D02*
D03*
X662500Y550000D02*
D03*
X681500D02*
D03*
D64*
X726250Y409465D02*
D03*
Y386465D02*
D03*
Y363465D02*
D03*
D65*
X788750Y386465D02*
D03*
D66*
X333320Y280621D02*
D03*
X347320Y280697D02*
D03*
X347487Y249697D02*
D03*
X333487Y249622D02*
D03*
X347000Y499899D02*
D03*
X333000D02*
D03*
X347000Y599899D02*
D03*
X333000D02*
D03*
X1167000Y149101D02*
D03*
X1153000D02*
D03*
X1167000Y49101D02*
D03*
X1153000D02*
D03*
X347000Y399531D02*
D03*
X333000D02*
D03*
X1167000Y248805D02*
D03*
X1153000D02*
D03*
X1167000Y499899D02*
D03*
X1153000D02*
D03*
X1167000Y599899D02*
D03*
X1153000D02*
D03*
X347000Y149101D02*
D03*
X333000D02*
D03*
X347000Y49101D02*
D03*
X333000D02*
D03*
X1167000Y399899D02*
D03*
X1153000D02*
D03*
D67*
X721750Y338000D02*
D03*
X754250D02*
D03*
X793250Y434965D02*
D03*
X760750D02*
D03*
D68*
X663000Y530000D02*
D03*
X681000D02*
D03*
X563247Y599000D02*
D03*
X581247D02*
D03*
X663000D02*
D03*
X681000D02*
D03*
X663500Y455267D02*
D03*
X681500D02*
D03*
D69*
X789000Y639000D02*
D03*
X771000D02*
D03*
X900000Y614646D02*
D03*
X882000Y614646D02*
D03*
D70*
X773250Y477629D02*
D03*
Y496629D02*
D03*
X802250Y296500D02*
D03*
Y315500D02*
D03*
X697750Y296500D02*
D03*
Y315500D02*
D03*
X794500Y496629D02*
D03*
Y477629D02*
D03*
D71*
X820500Y478129D02*
D03*
Y496129D02*
D03*
X751250Y512250D02*
D03*
X751250Y530250D02*
D03*
D72*
X1235032Y59978D02*
D03*
X1227526Y87991D02*
D03*
X264968Y620022D02*
D03*
X1084968Y620021D02*
D03*
X407525Y87991D02*
D03*
D73*
X620022Y415032D02*
D03*
X592010Y407526D02*
D03*
X879979Y264968D02*
D03*
X1411993Y407591D02*
D03*
X59979Y264968D02*
D03*
D74*
X907990Y272474D02*
D03*
X87991Y272474D02*
D03*
D75*
X296937Y383063D02*
D03*
X276431Y403569D02*
D03*
X1203063Y296937D02*
D03*
X1223569Y276431D02*
D03*
X1116937Y383063D02*
D03*
X1096431Y403569D02*
D03*
D76*
X272474Y592010D02*
D03*
X1092474Y592010D02*
D03*
D77*
X1440003Y415104D02*
D03*
D78*
X415031Y59979D02*
D03*
D79*
X1319899Y333000D02*
D03*
Y347000D02*
D03*
X1350899D02*
D03*
Y333000D02*
D03*
X1419899D02*
D03*
Y347000D02*
D03*
X1450899D02*
D03*
Y333000D02*
D03*
X399531D02*
D03*
Y347000D02*
D03*
X430531D02*
D03*
Y333000D02*
D03*
X1100469Y347000D02*
D03*
Y333000D02*
D03*
X1069469D02*
D03*
Y347000D02*
D03*
X180101D02*
D03*
Y333000D02*
D03*
X149101D02*
D03*
Y347000D02*
D03*
X80101D02*
D03*
Y333000D02*
D03*
X49101D02*
D03*
Y347000D02*
D03*
X1000101D02*
D03*
Y333000D02*
D03*
X969101D02*
D03*
Y347000D02*
D03*
X900101D02*
D03*
Y333000D02*
D03*
X869101D02*
D03*
Y347000D02*
D03*
X499899Y333000D02*
D03*
Y347000D02*
D03*
X530899D02*
D03*
Y333000D02*
D03*
X599899D02*
D03*
Y347000D02*
D03*
X630899D02*
D03*
Y333000D02*
D03*
X1219899D02*
D03*
Y347000D02*
D03*
X1250899D02*
D03*
Y333000D02*
D03*
X280469Y347000D02*
D03*
Y333000D02*
D03*
D80*
X1415427Y200612D02*
D03*
X1408427Y188488D02*
D03*
X1381580Y203988D02*
D03*
X1388580Y216112D02*
D03*
X84573Y479388D02*
D03*
X91573Y491512D02*
D03*
X118420Y476012D02*
D03*
X111420Y463888D02*
D03*
X904573Y479388D02*
D03*
X911573Y491512D02*
D03*
X938420Y476012D02*
D03*
X931420Y463888D02*
D03*
X595427Y200612D02*
D03*
X588427Y188488D02*
D03*
X561580Y203988D02*
D03*
X568580Y216112D02*
D03*
D81*
X1311512Y91573D02*
D03*
X1299388Y84573D02*
D03*
X1283888Y111420D02*
D03*
X1296012Y118420D02*
D03*
X188488Y588427D02*
D03*
X200612Y595427D02*
D03*
X216112Y568580D02*
D03*
X203988Y561580D02*
D03*
X1008488Y588427D02*
D03*
X1020612Y595427D02*
D03*
X1036112Y568580D02*
D03*
X1023988Y561580D02*
D03*
X491512Y91573D02*
D03*
X479388Y84573D02*
D03*
X463888Y111420D02*
D03*
X476012Y118420D02*
D03*
D82*
X333000Y530899D02*
D03*
X347000D02*
D03*
X333000Y630899D02*
D03*
X347000D02*
D03*
X1153000Y180101D02*
D03*
X1167000D02*
D03*
X1153000Y80101D02*
D03*
X1167000D02*
D03*
X333000Y430531D02*
D03*
X347000D02*
D03*
X1153000Y279804D02*
D03*
X1167000D02*
D03*
X1153000Y530899D02*
D03*
X1167000D02*
D03*
X1153000Y630899D02*
D03*
X1167000D02*
D03*
X333000Y180101D02*
D03*
X347000D02*
D03*
X333000Y80101D02*
D03*
X347000D02*
D03*
X1153000Y430899D02*
D03*
X1167000D02*
D03*
D83*
X479388Y595428D02*
D03*
X491513Y588428D02*
D03*
X476013Y561581D02*
D03*
X463888Y568581D02*
D03*
X1020612Y84573D02*
D03*
X1008488Y91573D02*
D03*
X1023988Y118420D02*
D03*
X1036112Y111420D02*
D03*
X1299388Y595427D02*
D03*
X1311512Y588427D02*
D03*
X1296012Y561580D02*
D03*
X1283888Y568580D02*
D03*
X200612Y84573D02*
D03*
X188488Y91573D02*
D03*
X203988Y118420D02*
D03*
X216112Y111420D02*
D03*
D84*
X588428Y491513D02*
D03*
X595428Y479388D02*
D03*
X568581Y463888D02*
D03*
X561581Y476013D02*
D03*
X911573Y188488D02*
D03*
X904573Y200612D02*
D03*
X931420Y216112D02*
D03*
X938420Y203988D02*
D03*
X1408427Y491512D02*
D03*
X1415427Y479388D02*
D03*
X1388580Y463888D02*
D03*
X1381580Y476012D02*
D03*
X91573Y188488D02*
D03*
X84573Y200612D02*
D03*
X111420Y216112D02*
D03*
X118420Y203988D02*
D03*
D85*
X479798Y210101D02*
D03*
X469899Y200202D02*
D03*
X447979Y222122D02*
D03*
X457878Y232021D02*
D03*
X1020063Y470037D02*
D03*
X1029963Y479937D02*
D03*
X1051883Y458017D02*
D03*
X1041983Y448117D02*
D03*
X1299937Y209963D02*
D03*
X1290037Y200063D02*
D03*
X1268117Y221984D02*
D03*
X1278017Y231883D02*
D03*
X200202Y469899D02*
D03*
X210101Y479799D02*
D03*
D86*
X457895Y448247D02*
D03*
X447984Y458136D02*
D03*
X469880Y480081D02*
D03*
X479790Y470192D02*
D03*
X1042105Y231753D02*
D03*
X1052016Y221864D02*
D03*
X1290036Y479936D02*
D03*
X1299936Y470036D02*
D03*
X221985Y231884D02*
D03*
X231884Y221985D02*
D03*
D87*
X1030120Y199919D02*
D03*
X1020209Y209808D02*
D03*
D88*
X1278015Y448116D02*
D03*
X1268116Y458015D02*
D03*
X209964Y200064D02*
D03*
X200064Y209964D02*
D03*
D89*
X232022Y457878D02*
D03*
X222122Y447979D02*
D03*
D90*
X249469Y333000D02*
D03*
Y347000D02*
D03*
D91*
X616234Y663617D02*
D03*
X768900Y662970D02*
D03*
X794300Y662970D02*
D03*
X819700Y662970D02*
D03*
X723000Y663617D02*
D03*
X632925Y530000D02*
D03*
X613250Y568895D02*
D03*
X562851Y663617D02*
D03*
X669617D02*
D03*
D92*
X845100Y662970D02*
D03*
D93*
X882000Y662500D02*
D03*
X807965Y434965D02*
D03*
X740000Y568000D02*
D03*
Y588427D02*
D03*
X934294Y273143D02*
D03*
X931105Y285047D02*
D03*
X926611Y264167D02*
D03*
X919963Y288979D02*
D03*
X922962Y276486D02*
D03*
X548026Y619000D02*
D03*
X648396Y475506D02*
D03*
Y549383D02*
D03*
X701500Y443808D02*
D03*
X701000Y518302D02*
D03*
X600953Y587302D02*
D03*
X648396Y599000D02*
D03*
X701000Y588000D02*
D03*
X804000Y645000D02*
D03*
X769540Y338000D02*
D03*
X735750Y434965D02*
D03*
X414529Y265471D02*
D03*
X406330Y258089D02*
D03*
X421911Y273670D02*
D03*
X397405Y251604D02*
D03*
X428396Y282595D02*
D03*
X257435Y405705D02*
D03*
X273016Y421286D02*
D03*
X276486Y577038D02*
D03*
X288979Y580037D02*
D03*
X264167Y573389D02*
D03*
X273143Y565706D02*
D03*
X285047Y568895D02*
D03*
X102962Y276486D02*
D03*
X99963Y288979D02*
D03*
X106611Y264167D02*
D03*
X111104Y285047D02*
D03*
X114294Y273143D02*
D03*
X577038Y403514D02*
D03*
X573389Y415833D02*
D03*
X580037Y391021D02*
D03*
X565706Y406857D02*
D03*
X568895Y394953D02*
D03*
X403514Y102962D02*
D03*
X415833Y106611D02*
D03*
X391021Y99963D02*
D03*
X394953Y111104D02*
D03*
X406857Y114294D02*
D03*
X188946Y455908D02*
D03*
X187381Y484830D02*
D03*
X264817Y413904D02*
D03*
X281941Y427771D02*
D03*
X250950Y396780D02*
D03*
X492618Y195171D02*
D03*
X491054Y224092D02*
D03*
X180972Y360936D02*
D03*
X199793Y347348D02*
D03*
X480207Y332652D02*
D03*
X499027Y319064D02*
D03*
X347348Y480208D02*
D03*
X360936Y499028D02*
D03*
X332652Y199793D02*
D03*
X319064Y180972D02*
D03*
X1139064Y180972D02*
D03*
X1152652Y199792D02*
D03*
X1180936Y499027D02*
D03*
X1167348Y480207D02*
D03*
X1319028Y319063D02*
D03*
X1300207Y332652D02*
D03*
X1019793Y347347D02*
D03*
X1000973Y360936D02*
D03*
X1311054Y224092D02*
D03*
X1312619Y195170D02*
D03*
X1070950Y396780D02*
D03*
X1101941Y427770D02*
D03*
X1007382Y484829D02*
D03*
X1008946Y455908D02*
D03*
X1226857Y114294D02*
D03*
X1214953Y111104D02*
D03*
X1211021Y99963D02*
D03*
X1235833Y106611D02*
D03*
X1223514Y102962D02*
D03*
X1388895Y394953D02*
D03*
X1385706Y406857D02*
D03*
X1400037Y391021D02*
D03*
X1393389Y415832D02*
D03*
X1397038Y403514D02*
D03*
X1105047Y568895D02*
D03*
X1093143Y565705D02*
D03*
X1084167Y573388D02*
D03*
X1108979Y580037D02*
D03*
X1096486Y577037D02*
D03*
X1093016Y421286D02*
D03*
X1248396Y282595D02*
D03*
X1217405Y251604D02*
D03*
X1241911Y273669D02*
D03*
X1226330Y258088D02*
D03*
X1234529Y265471D02*
D03*
X751250Y544750D02*
D03*
X826250Y510750D02*
D03*
X882000Y599750D02*
D03*
X879000Y588000D02*
D03*
X957924Y637439D02*
D03*
X775000Y614500D02*
D03*
X774000Y519000D02*
D03*
X1077435Y405705D02*
D03*
X1084817Y413904D02*
D03*
D94*
X750000Y298500D02*
D03*
X678750Y328950D02*
D03*
Y307950D02*
D03*
X821250Y308000D02*
D03*
Y329000D02*
D03*
X700000Y363465D02*
D03*
M02*
