G04 Layer_Color=16711935*
%FSLAX44Y44*%
%MOMM*%
G71*
G01*
G75*
%ADD54C,0.1000*%
%ADD56C,0.1270*%
D54*
X792750Y546250D02*
G03*
X792750Y546250I-5000J0D01*
G01*
X722000Y244250D02*
G03*
X722000Y244250I-5000J0D01*
G01*
X788000Y276300D02*
G03*
X788000Y276300I-5000J0D01*
G01*
X778750Y537250D02*
X848750Y537250D01*
X778750Y607250D02*
X848750Y607250D01*
X778750Y537250D02*
X778750Y607250D01*
X848750Y537250D02*
X848750Y607250D01*
X686000Y285250D02*
X726000D01*
X686000Y235250D02*
X726000D01*
X686000D02*
Y285250D01*
X726000Y235250D02*
Y285250D01*
X731500Y534750D02*
Y563250D01*
X714500Y534750D02*
Y563250D01*
X731500D01*
X714500Y534750D02*
X731500D01*
X375851Y291989D02*
X387278Y303188D01*
X409677Y280334D01*
X398250Y269135D02*
X409677Y280334D01*
X375851Y291989D02*
X398250Y269135D01*
X662000Y576250D02*
X682000D01*
X662000Y563750D02*
Y576250D01*
Y563750D02*
X682000D01*
Y576250D01*
X739000Y352965D02*
Y419965D01*
X776000Y352965D02*
Y419965D01*
X739000D02*
X776000D01*
X739000Y352965D02*
X776000D01*
X756100Y650270D02*
Y675670D01*
X756200Y675670D02*
X857800Y675670D01*
X756100Y650270D02*
X857800Y650269D01*
X857800Y675670D02*
X857800Y650269D01*
X721000Y347000D02*
X755000D01*
X721000Y329000D02*
X755000D01*
X721000D02*
Y347000D01*
X755000Y329000D02*
Y347000D01*
X662002Y536251D02*
X682001D01*
Y523752D02*
Y536251D01*
X662002Y523752D02*
X682001D01*
X662002D02*
Y536251D01*
X791000Y631750D02*
Y646250D01*
X769000Y631750D02*
Y646250D01*
Y631750D02*
X791000D01*
X769000Y646250D02*
X791000D01*
X881425Y643689D02*
X901425D01*
X881425Y631189D02*
Y643689D01*
Y631189D02*
X901425D01*
Y643689D01*
X916425Y631189D02*
X936425D01*
Y643689D01*
X916425D02*
X936425D01*
X916425Y631189D02*
Y643689D01*
X767000Y477129D02*
Y497129D01*
Y477129D02*
X779500D01*
Y497129D01*
X767000D02*
X779500D01*
X764250Y292250D02*
X784250D01*
Y304750D01*
X764250D02*
X784250D01*
X764250Y292250D02*
Y304750D01*
X796000Y296000D02*
Y316000D01*
Y296000D02*
X808500D01*
Y316000D01*
X796000D02*
X808500D01*
X562130Y625250D02*
X582130D01*
X562130Y612750D02*
Y625250D01*
Y612750D02*
X582130D01*
Y625250D01*
X562130Y645250D02*
X582130D01*
X562130Y632750D02*
Y645250D01*
Y632750D02*
X582130D01*
Y645250D01*
X715750Y304750D02*
X735750D01*
X715750Y292250D02*
Y304750D01*
Y292250D02*
X735750D01*
Y304750D01*
X691500Y296000D02*
Y316000D01*
Y296000D02*
X704000D01*
Y316000D01*
X691500D02*
X704000D01*
X662000Y612750D02*
X682000D01*
Y625250D01*
X662000D02*
X682000D01*
X662000Y612750D02*
Y625250D01*
Y645250D02*
X682000D01*
X662000Y632750D02*
Y645250D01*
Y632750D02*
X682000D01*
Y645250D01*
X951425Y656189D02*
X971425D01*
Y668689D01*
X951425D02*
X971425D01*
X951425Y656189D02*
Y668689D01*
X916425D02*
X936425D01*
X916425Y656189D02*
Y668689D01*
Y656189D02*
X936425D01*
Y668689D01*
X662500Y469256D02*
X682500D01*
Y481756D01*
X662500D02*
X682500D01*
X662500Y469256D02*
Y481756D01*
X800750Y477129D02*
Y497130D01*
X788250Y497129D02*
X800750Y497130D01*
X788250Y477129D02*
Y497129D01*
Y477129D02*
X800750Y477129D01*
X662500Y501756D02*
X682500D01*
X662500Y489256D02*
Y501756D01*
Y489256D02*
X682500D01*
Y501756D01*
X662000Y556250D02*
X682000D01*
X662000Y543750D02*
Y556250D01*
Y543750D02*
X682000D01*
Y556250D01*
X774000Y235300D02*
X814000D01*
X774000Y285300D02*
X814000D01*
Y235300D02*
Y285300D01*
X774000Y235300D02*
Y285300D01*
X631247Y603750D02*
Y632250D01*
X614247Y603750D02*
Y632250D01*
X631247D01*
X614247Y603750D02*
X631247D01*
X592453Y603750D02*
Y632250D01*
X609453Y603750D02*
Y632250D01*
X592453Y603750D02*
X609453D01*
X592453Y632250D02*
X609453D01*
X731500Y604448D02*
Y632948D01*
X714500Y604448D02*
Y632948D01*
X731500D01*
X714500Y604448D02*
X731500D01*
X692500Y604448D02*
Y632948D01*
X709500Y604448D02*
Y632948D01*
X692500Y604448D02*
X709500D01*
X692500Y632948D02*
X709500D01*
X732000Y460256D02*
Y488756D01*
X715000Y460256D02*
Y488756D01*
X732000D01*
X715000Y460256D02*
X732000D01*
X693000Y460256D02*
Y488756D01*
X710000Y460256D02*
Y488756D01*
X693000Y460256D02*
X710000D01*
X693000Y488756D02*
X710000D01*
X692500Y534750D02*
Y563250D01*
X709500Y534750D02*
Y563250D01*
X692500Y534750D02*
X709500D01*
X692500Y563250D02*
X709500D01*
X562248Y605251D02*
X582248D01*
Y592752D02*
Y605251D01*
X562248Y592752D02*
X582248D01*
X562248D02*
Y605251D01*
X760000Y425965D02*
X794000D01*
X760000Y443965D02*
X794000D01*
Y425965D02*
Y443965D01*
X760000Y425965D02*
Y443965D01*
X813250Y476129D02*
X827750D01*
X813250Y498130D02*
X827750D01*
X813250Y476129D02*
Y498130D01*
X827750Y476129D02*
Y498130D01*
X744000Y510250D02*
X758500Y510250D01*
X744000Y532250D02*
X758500Y532250D01*
X744000Y510250D02*
X744000Y532250D01*
X758500Y510250D02*
X758500Y532250D01*
X902000Y621896D02*
X902000Y607396D01*
X880000Y621896D02*
X880000Y607396D01*
X902000D01*
X880000Y621896D02*
X902000Y621896D01*
X662002Y605251D02*
X682001D01*
Y592752D02*
Y605251D01*
X662002Y592752D02*
X682001D01*
X662002D02*
Y605251D01*
X662502Y461518D02*
X682502D01*
Y449019D02*
Y461518D01*
X662502Y449019D02*
X682502D01*
X662502D02*
Y461518D01*
X1227693Y56459D02*
X1243148Y60600D01*
X1219411Y87368D02*
X1227693Y56459D01*
X1219411Y87368D02*
X1234866Y91510D01*
X1243148Y60600D01*
X619401Y423148D02*
X623542Y407693D01*
X592632Y399411D02*
X623542Y407693D01*
X588491Y414866D02*
X592632Y399411D01*
X588491Y414866D02*
X619401Y423148D01*
X876459Y272307D02*
X880600Y256852D01*
X876459Y272307D02*
X907368Y280589D01*
X911509Y265134D01*
X880600Y256852D02*
X911509Y265134D01*
X292342Y376345D02*
X303656Y387659D01*
X269715Y398973D02*
X292342Y376345D01*
X269715Y398973D02*
X281029Y410286D01*
X303656Y387659D01*
X1196344Y292341D02*
X1207658Y303655D01*
X1230285Y281027D01*
X1218971Y269714D02*
X1230285Y281027D01*
X1196344Y292341D02*
X1218971Y269714D01*
X256852Y619400D02*
X272307Y623541D01*
X280589Y592632D01*
X265134Y588491D02*
X280589Y592632D01*
X256852Y619400D02*
X265134Y588491D01*
X1439380Y423220D02*
X1443525Y407767D01*
X1412617Y399477D02*
X1443525Y407767D01*
X1408472Y414930D02*
X1412617Y399477D01*
X1408472Y414930D02*
X1439380Y423220D01*
X56459Y272307D02*
X60600Y256852D01*
X56459Y272307D02*
X87368Y280589D01*
X91509Y265134D01*
X60600Y256852D02*
X91509Y265134D01*
X1076852Y619400D02*
X1092307Y623541D01*
X1100589Y592632D01*
X1085134Y588491D02*
X1100589Y592632D01*
X1076852Y619400D02*
X1085134Y588491D01*
X407693Y56459D02*
X423148Y60600D01*
X399411Y87368D02*
X407693Y56459D01*
X399411Y87368D02*
X414865Y91509D01*
X423148Y60600D01*
X1112342Y376345D02*
X1123656Y387659D01*
X1089715Y398973D02*
X1112342Y376345D01*
X1089715Y398973D02*
X1101029Y410286D01*
X1123656Y387659D01*
D56*
X326317Y281084D02*
X326490Y249084D01*
X326317Y281084D02*
X354317Y281234D01*
X354490Y249235D01*
X326490Y249084D02*
X354490Y249235D01*
X326317Y281084D02*
X326490Y249084D01*
X326317Y281084D02*
X354317Y281234D01*
X354490Y249235D01*
X326490Y249084D02*
X354490Y249235D01*
X1319399Y326000D02*
X1351399D01*
X1319399D02*
Y354000D01*
X1351399D01*
Y326000D02*
Y354000D01*
X1319399Y326000D02*
X1351399D01*
X1319399D02*
Y354000D01*
X1351399D01*
Y326000D02*
Y354000D01*
X1419399Y326000D02*
X1451399D01*
X1419399D02*
Y354000D01*
X1451399D01*
Y326000D02*
Y354000D01*
X1419399Y326000D02*
X1451399D01*
X1419399D02*
Y354000D01*
X1451399D01*
Y326000D02*
Y354000D01*
X1391647Y222424D02*
X1419360Y206424D01*
X1405360Y182176D02*
X1419360Y206424D01*
X1377647Y198176D02*
X1405360Y182176D01*
X1377647Y198176D02*
X1391647Y222424D01*
X1419360Y206424D01*
X1405360Y182176D02*
X1419360Y206424D01*
X1377647Y198176D02*
X1405360Y182176D01*
X1377647Y198176D02*
X1391647Y222424D01*
X1301824Y122353D02*
X1317825Y94640D01*
X1293576Y80640D02*
X1317825Y94640D01*
X1277576Y108353D02*
X1293576Y80640D01*
X1277576Y108353D02*
X1301824Y122353D01*
X1317825Y94640D01*
X1293576Y80640D02*
X1317825Y94640D01*
X1277576Y108353D02*
X1293576Y80640D01*
X1277576Y108353D02*
X1301824Y122353D01*
X354000Y499399D02*
Y531399D01*
X326000Y499399D02*
X354000D01*
X326000D02*
Y531399D01*
X354000D01*
Y499399D02*
Y531399D01*
X326000Y499399D02*
X354000D01*
X326000D02*
Y531399D01*
X354000D01*
Y599399D02*
Y631399D01*
X326000Y599399D02*
X354000D01*
X326000D02*
Y631399D01*
X354000D01*
Y599399D02*
Y631399D01*
X326000Y599399D02*
X354000D01*
X326000D02*
Y631399D01*
X354000D01*
X457576Y571648D02*
X473576Y599361D01*
X497825Y585360D01*
X481825Y557648D02*
X497825Y585360D01*
X457576Y571648D02*
X481825Y557648D01*
X457576Y571648D02*
X473576Y599361D01*
X497825Y585360D01*
X481825Y557648D02*
X497825Y585360D01*
X457576Y571648D02*
X481825Y557648D01*
X557648Y481825D02*
X585360Y497825D01*
X599361Y473576D01*
X571648Y457576D02*
X599361Y473576D01*
X557648Y481825D02*
X571648Y457576D01*
X557648Y481825D02*
X585360Y497825D01*
X599361Y473576D01*
X571648Y457576D02*
X599361Y473576D01*
X557648Y481825D02*
X571648Y457576D01*
X1146000Y148601D02*
Y180601D01*
X1174000D01*
Y148601D02*
Y180601D01*
X1146000Y148601D02*
X1174000D01*
X1146000D02*
Y180601D01*
X1174000D01*
Y148601D02*
Y180601D01*
X1146000Y148601D02*
X1174000D01*
X1146000Y48601D02*
Y80601D01*
X1174000D01*
Y48601D02*
Y80601D01*
X1146000Y48601D02*
X1174000D01*
X1146000D02*
Y80601D01*
X1174000D01*
Y48601D02*
Y80601D01*
X1146000Y48601D02*
X1174000D01*
X1026424Y80640D02*
X1042424Y108353D01*
X1002176Y94640D02*
X1026424Y80640D01*
X1002176Y94640D02*
X1018176Y122353D01*
X1042424Y108353D01*
X1026424Y80640D02*
X1042424Y108353D01*
X1002176Y94640D02*
X1026424Y80640D01*
X1002176Y94640D02*
X1018176Y122353D01*
X1042424Y108353D01*
X914640Y182176D02*
X942353Y198176D01*
X900640Y206424D02*
X914640Y182176D01*
X900640Y206424D02*
X928353Y222424D01*
X942353Y198176D01*
X914640Y182176D02*
X942353Y198176D01*
X900640Y206424D02*
X914640Y182176D01*
X900640Y206424D02*
X928353Y222424D01*
X942353Y198176D01*
X462474Y237325D02*
X485102Y214697D01*
X465303Y194898D02*
X485102Y214697D01*
X442675Y217526D02*
X465303Y194898D01*
X442675Y217526D02*
X462474Y237325D01*
X485102Y214697D01*
X465303Y194898D02*
X485102Y214697D01*
X442675Y217526D02*
X465303Y194898D01*
X442675Y217526D02*
X462474Y237325D01*
X399031Y326000D02*
X431031D01*
X399031D02*
Y354000D01*
X431031D01*
Y326000D02*
Y354000D01*
X399031Y326000D02*
X431031D01*
X399031D02*
Y354000D01*
X431031D01*
Y326000D02*
Y354000D01*
X462497Y442949D02*
X485099Y465602D01*
X442676Y462726D02*
X462497Y442949D01*
X442676Y462726D02*
X465278Y485379D01*
X485099Y465602D01*
X462497Y442949D02*
X485099Y465602D01*
X442676Y462726D02*
X462497Y442949D01*
X442676Y462726D02*
X465278Y485379D01*
X485099Y465602D01*
X354000Y399031D02*
Y431031D01*
X326000Y399031D02*
X354000D01*
X326000D02*
Y431031D01*
X354000D01*
Y399031D02*
Y431031D01*
X326000Y399031D02*
X354000D01*
X326000D02*
Y431031D01*
X354000D01*
X1014760Y465441D02*
X1037387Y442814D01*
X1014760Y465441D02*
X1034559Y485240D01*
X1057186Y462613D01*
X1037387Y442814D02*
X1057186Y462613D01*
X1014760Y465441D02*
X1037387Y442814D01*
X1014760Y465441D02*
X1034559Y485240D01*
X1057186Y462613D01*
X1037387Y442814D02*
X1057186Y462613D01*
X1068969Y354000D02*
X1100969D01*
Y326000D02*
Y354000D01*
X1068969Y326000D02*
X1100969D01*
X1068969D02*
Y354000D01*
X1100969D01*
Y326000D02*
Y354000D01*
X1068969Y326000D02*
X1100969D01*
X1068969D02*
Y354000D01*
X1014901Y214398D02*
X1037503Y237051D01*
X1057324Y217274D01*
X1034722Y194621D02*
X1057324Y217274D01*
X1014901Y214398D02*
X1034722Y194621D01*
X1014901Y214398D02*
X1037503Y237051D01*
X1057324Y217274D01*
X1034722Y194621D02*
X1057324Y217274D01*
X1014901Y214398D02*
X1034722Y194621D01*
X1146000Y248305D02*
Y280305D01*
X1174000D01*
Y248305D02*
Y280305D01*
X1146000Y248305D02*
X1174000D01*
X1146000D02*
Y280305D01*
X1174000D01*
Y248305D02*
Y280305D01*
X1146000Y248305D02*
X1174000D01*
X148601Y354000D02*
X180601D01*
Y326000D02*
Y354000D01*
X148601Y326000D02*
X180601D01*
X148601D02*
Y354000D01*
X180601D01*
Y326000D02*
Y354000D01*
X148601Y326000D02*
X180601D01*
X148601D02*
Y354000D01*
X48601D02*
X80601D01*
Y326000D02*
Y354000D01*
X48601Y326000D02*
X80601D01*
X48601D02*
Y354000D01*
X80601D01*
Y326000D02*
Y354000D01*
X48601Y326000D02*
X80601D01*
X48601D02*
Y354000D01*
X80640Y473576D02*
X108353Y457576D01*
X80640Y473576D02*
X94640Y497825D01*
X122353Y481824D01*
X108353Y457576D02*
X122353Y481824D01*
X80640Y473576D02*
X108353Y457576D01*
X80640Y473576D02*
X94640Y497825D01*
X122353Y481824D01*
X108353Y457576D02*
X122353Y481824D01*
X182176Y585360D02*
X198176Y557647D01*
X182176Y585360D02*
X206424Y599360D01*
X222424Y571647D01*
X198176Y557647D02*
X222424Y571647D01*
X182176Y585360D02*
X198176Y557647D01*
X182176Y585360D02*
X206424Y599360D01*
X222424Y571647D01*
X198176Y557647D02*
X222424Y571647D01*
X1174000Y499399D02*
Y531399D01*
X1146000Y499399D02*
X1174000D01*
X1146000D02*
Y531399D01*
X1174000D01*
Y499399D02*
Y531399D01*
X1146000Y499399D02*
X1174000D01*
X1146000D02*
Y531399D01*
X1174000D01*
Y599399D02*
Y631399D01*
X1146000Y599399D02*
X1174000D01*
X1146000D02*
Y631399D01*
X1174000D01*
Y599399D02*
Y631399D01*
X1146000Y599399D02*
X1174000D01*
X1146000D02*
Y631399D01*
X1174000D01*
X1277576Y571647D02*
X1293576Y599360D01*
X1317825Y585360D01*
X1301824Y557647D02*
X1317825Y585360D01*
X1277576Y571647D02*
X1301824Y557647D01*
X1277576Y571647D02*
X1293576Y599360D01*
X1317825Y585360D01*
X1301824Y557647D02*
X1317825Y585360D01*
X1277576Y571647D02*
X1301824Y557647D01*
X1377647Y481824D02*
X1405360Y497825D01*
X1419360Y473576D01*
X1391647Y457576D02*
X1419360Y473576D01*
X1377647Y481824D02*
X1391647Y457576D01*
X1377647Y481824D02*
X1405360Y497825D01*
X1419360Y473576D01*
X1391647Y457576D02*
X1419360Y473576D01*
X1377647Y481824D02*
X1391647Y457576D01*
X326000Y148601D02*
Y180601D01*
X354000D01*
Y148601D02*
Y180601D01*
X326000Y148601D02*
X354000D01*
X326000D02*
Y180601D01*
X354000D01*
Y148601D02*
Y180601D01*
X326000Y148601D02*
X354000D01*
X326000Y48601D02*
Y80601D01*
X354000D01*
Y48601D02*
Y80601D01*
X326000Y48601D02*
X354000D01*
X326000D02*
Y80601D01*
X354000D01*
Y48601D02*
Y80601D01*
X326000Y48601D02*
X354000D01*
X206424Y80640D02*
X222424Y108353D01*
X182176Y94640D02*
X206424Y80640D01*
X182176Y94640D02*
X198176Y122353D01*
X222424Y108353D01*
X206424Y80640D02*
X222424Y108353D01*
X182176Y94640D02*
X206424Y80640D01*
X182176Y94640D02*
X198176Y122353D01*
X222424Y108353D01*
X94640Y182176D02*
X122353Y198176D01*
X80640Y206424D02*
X94640Y182176D01*
X80640Y206424D02*
X108353Y222424D01*
X122353Y198176D01*
X94640Y182176D02*
X122353Y198176D01*
X80640Y206424D02*
X94640Y182176D01*
X80640Y206424D02*
X108353Y222424D01*
X122353Y198176D01*
X968601Y354000D02*
X1000601D01*
Y326000D02*
Y354000D01*
X968601Y326000D02*
X1000601D01*
X968601D02*
Y354000D01*
X1000601D01*
Y326000D02*
Y354000D01*
X968601Y326000D02*
X1000601D01*
X968601D02*
Y354000D01*
X868601D02*
X900601D01*
Y326000D02*
Y354000D01*
X868601Y326000D02*
X900601D01*
X868601D02*
Y354000D01*
X900601D01*
Y326000D02*
Y354000D01*
X868601Y326000D02*
X900601D01*
X868601D02*
Y354000D01*
X900640Y473576D02*
X928353Y457576D01*
X900640Y473576D02*
X914640Y497825D01*
X942353Y481824D01*
X928353Y457576D02*
X942353Y481824D01*
X900640Y473576D02*
X928353Y457576D01*
X900640Y473576D02*
X914640Y497825D01*
X942353Y481824D01*
X928353Y457576D02*
X942353Y481824D01*
X1002176Y585360D02*
X1018176Y557647D01*
X1002176Y585360D02*
X1026424Y599360D01*
X1042424Y571647D01*
X1018176Y557647D02*
X1042424Y571647D01*
X1002176Y585360D02*
X1018176Y557647D01*
X1002176Y585360D02*
X1026424Y599360D01*
X1042424Y571647D01*
X1018176Y557647D02*
X1042424Y571647D01*
X499399Y326000D02*
X531399D01*
X499399D02*
Y354000D01*
X531399D01*
Y326000D02*
Y354000D01*
X499399Y326000D02*
X531399D01*
X499399D02*
Y354000D01*
X531399D01*
Y326000D02*
Y354000D01*
X599399Y326000D02*
X631399D01*
X599399D02*
Y354000D01*
X631399D01*
Y326000D02*
Y354000D01*
X599399Y326000D02*
X631399D01*
X599399D02*
Y354000D01*
X631399D01*
Y326000D02*
Y354000D01*
X571647Y222424D02*
X599360Y206424D01*
X585360Y182176D02*
X599360Y206424D01*
X557647Y198176D02*
X585360Y182176D01*
X557647Y198176D02*
X571647Y222424D01*
X599360Y206424D01*
X585360Y182176D02*
X599360Y206424D01*
X557647Y198176D02*
X585360Y182176D01*
X557647Y198176D02*
X571647Y222424D01*
X481824Y122353D02*
X497825Y94640D01*
X473576Y80640D02*
X497825Y94640D01*
X457576Y108353D02*
X473576Y80640D01*
X457576Y108353D02*
X481824Y122353D01*
X497825Y94640D01*
X473576Y80640D02*
X497825Y94640D01*
X457576Y108353D02*
X473576Y80640D01*
X457576Y108353D02*
X481824Y122353D01*
X1282613Y237186D02*
X1305240Y214559D01*
X1285441Y194760D02*
X1305240Y214559D01*
X1262814Y217387D02*
X1285441Y194760D01*
X1262814Y217387D02*
X1282613Y237186D01*
X1305240Y214559D01*
X1285441Y194760D02*
X1305240Y214559D01*
X1262814Y217387D02*
X1285441Y194760D01*
X1262814Y217387D02*
X1282613Y237186D01*
X1219399Y326000D02*
X1251399D01*
X1219399D02*
Y354000D01*
X1251399D01*
Y326000D02*
Y354000D01*
X1219399Y326000D02*
X1251399D01*
X1219399D02*
Y354000D01*
X1251399D01*
Y326000D02*
Y354000D01*
X1282612Y442813D02*
X1305239Y465440D01*
X1262812Y462612D02*
X1282612Y442813D01*
X1262812Y462612D02*
X1285440Y485239D01*
X1305239Y465440D01*
X1282612Y442813D02*
X1305239Y465440D01*
X1262812Y462612D02*
X1282612Y442813D01*
X1262812Y462612D02*
X1285440Y485239D01*
X1305239Y465440D01*
X1174000Y399399D02*
Y431399D01*
X1146000Y399399D02*
X1174000D01*
X1146000D02*
Y431399D01*
X1174000D01*
Y399399D02*
Y431399D01*
X1146000Y399399D02*
X1174000D01*
X1146000D02*
Y431399D01*
X1174000D01*
X194898Y465303D02*
X217526Y442675D01*
X194898Y465303D02*
X214697Y485102D01*
X237325Y462474D01*
X217526Y442675D02*
X237325Y462474D01*
X194898Y465303D02*
X217526Y442675D01*
X194898Y465303D02*
X214697Y485102D01*
X237325Y462474D01*
X217526Y442675D02*
X237325Y462474D01*
X248969Y354000D02*
X280969D01*
Y326000D02*
Y354000D01*
X248969Y326000D02*
X280969D01*
X248969D02*
Y354000D01*
X280969D01*
Y326000D02*
Y354000D01*
X248969Y326000D02*
X280969D01*
X248969D02*
Y354000D01*
X194761Y214560D02*
X217388Y237188D01*
X237188Y217388D01*
X214560Y194761D02*
X237188Y217388D01*
X194761Y214560D02*
X214560Y194761D01*
X194761Y214560D02*
X217388Y237188D01*
X237188Y217388D01*
X214560Y194761D02*
X237188Y217388D01*
X194761Y214560D02*
X214560Y194761D01*
M02*
