G04 Layer_Color=32896*
%FSLAX44Y44*%
%MOMM*%
G71*
G01*
G75*
G36*
X736077Y459068D02*
X736370Y459039D01*
X736634Y458951D01*
X736868Y458863D01*
X737044Y458775D01*
X737161Y458716D01*
X737249Y458658D01*
X737278Y458629D01*
X737483Y458424D01*
X737688Y458189D01*
X738068Y457662D01*
X738215Y457398D01*
X738332Y457223D01*
X738391Y457076D01*
X738420Y457018D01*
Y458834D01*
X742374D01*
Y447822D01*
X738127D01*
Y451512D01*
Y451981D01*
X738098Y452420D01*
X738068Y452830D01*
X738039Y453181D01*
X737981Y453503D01*
X737922Y453826D01*
X737863Y454060D01*
X737805Y454294D01*
X737746Y454499D01*
X737688Y454675D01*
X737571Y454909D01*
X737512Y455056D01*
X737483Y455114D01*
X737307Y455348D01*
X737102Y455524D01*
X736868Y455641D01*
X736663Y455729D01*
X736487Y455788D01*
X736341Y455817D01*
X736019D01*
X735843Y455758D01*
X735462Y455671D01*
X735286Y455612D01*
X735140Y455553D01*
X735052Y455524D01*
X735023Y455495D01*
X733705Y458482D01*
X734115Y458687D01*
X734496Y458834D01*
X734847Y458951D01*
X735140Y459009D01*
X735404Y459068D01*
X735579Y459097D01*
X735755D01*
X736077Y459068D01*
D02*
G37*
G36*
X761410Y463256D02*
X761761Y463226D01*
X762054Y463168D01*
X762318Y463109D01*
X762464Y463051D01*
X762581Y463021D01*
X762610Y462992D01*
X762845Y462875D01*
X763079Y462729D01*
X763284Y462582D01*
X763430Y462436D01*
X763548Y462319D01*
X763635Y462231D01*
X763694Y462172D01*
X763723Y462143D01*
X763987Y461703D01*
X764163Y461264D01*
X764221Y461088D01*
X764250Y460942D01*
X764280Y460825D01*
Y460796D01*
X764338Y460239D01*
X764368Y459976D01*
Y459771D01*
X764397Y459595D01*
Y459449D01*
Y459361D01*
Y459331D01*
Y458834D01*
X765978D01*
Y455729D01*
X764397D01*
Y447822D01*
X760150D01*
Y455729D01*
X758130D01*
Y458834D01*
X760150D01*
Y459097D01*
Y459302D01*
Y459449D01*
X760121Y459595D01*
Y459683D01*
Y459741D01*
Y459800D01*
X760004Y460064D01*
X759887Y460269D01*
X759799Y460386D01*
X759770Y460415D01*
X759535Y460532D01*
X759272Y460591D01*
X759125Y460620D01*
X758950D01*
X758540Y460591D01*
X758159Y460561D01*
X757983Y460532D01*
X757837Y460503D01*
X757749Y460474D01*
X757719D01*
X757222Y463051D01*
X757983Y463139D01*
X758627Y463197D01*
X759184Y463256D01*
X759652Y463285D01*
X760004Y463314D01*
X760970D01*
X761410Y463256D01*
D02*
G37*
G36*
X788704Y441613D02*
X784487D01*
Y444512D01*
X788704D01*
Y441613D01*
D02*
G37*
G36*
X751364Y459068D02*
X751862Y459039D01*
X752331Y458951D01*
X752770Y458834D01*
X753180Y458716D01*
X753532Y458570D01*
X753883Y458424D01*
X754205Y458277D01*
X754469Y458131D01*
X754703Y457984D01*
X754937Y457838D01*
X755084Y457721D01*
X755230Y457603D01*
X755318Y457516D01*
X755377Y457486D01*
X755406Y457457D01*
X755699Y457135D01*
X755962Y456813D01*
X756197Y456461D01*
X756372Y456110D01*
X756548Y455758D01*
X756694Y455407D01*
X756899Y454763D01*
X756958Y454441D01*
X757017Y454177D01*
X757046Y453913D01*
X757075Y453708D01*
X757104Y453503D01*
Y453386D01*
Y453298D01*
Y453269D01*
X757075Y452771D01*
X757017Y452303D01*
X756929Y451863D01*
X756782Y451453D01*
X756636Y451073D01*
X756460Y450692D01*
X756284Y450370D01*
X756109Y450077D01*
X755933Y449813D01*
X755728Y449579D01*
X755582Y449374D01*
X755435Y449198D01*
X755289Y449081D01*
X755201Y448993D01*
X755142Y448935D01*
X755113Y448905D01*
X754791Y448671D01*
X754469Y448466D01*
X753737Y448115D01*
X753034Y447881D01*
X752331Y447734D01*
X752038Y447676D01*
X751745Y447617D01*
X751482Y447588D01*
X751247D01*
X751072Y447558D01*
X750808D01*
X750281Y447588D01*
X749754Y447617D01*
X749285Y447705D01*
X748846Y447822D01*
X748407Y447939D01*
X748026Y448056D01*
X747674Y448203D01*
X747382Y448378D01*
X747089Y448525D01*
X746854Y448671D01*
X746649Y448788D01*
X746474Y448905D01*
X746327Y449023D01*
X746239Y449110D01*
X746181Y449140D01*
X746152Y449169D01*
X745859Y449491D01*
X745595Y449813D01*
X745361Y450165D01*
X745156Y450516D01*
X745009Y450868D01*
X744863Y451219D01*
X744658Y451893D01*
X744599Y452186D01*
X744541Y452478D01*
X744511Y452713D01*
X744482Y452947D01*
X744453Y453123D01*
Y453240D01*
Y453328D01*
Y453357D01*
Y453767D01*
X744511Y454177D01*
X744658Y454909D01*
X744892Y455553D01*
X745126Y456110D01*
X745390Y456549D01*
X745507Y456725D01*
X745624Y456901D01*
X745712Y457018D01*
X745771Y457106D01*
X745800Y457135D01*
X745829Y457164D01*
X746152Y457516D01*
X746532Y457808D01*
X746913Y458072D01*
X747323Y458277D01*
X747733Y458482D01*
X748172Y458629D01*
X748963Y458863D01*
X749344Y458951D01*
X749695Y459009D01*
X750017Y459039D01*
X750281Y459068D01*
X750515Y459097D01*
X750837D01*
X751364Y459068D01*
D02*
G37*
G36*
X744306Y486304D02*
X745039Y486245D01*
X745683Y486128D01*
X746210Y486040D01*
X746649Y485923D01*
X746825Y485865D01*
X746942Y485806D01*
X747059Y485777D01*
X747147Y485747D01*
X747177Y485718D01*
X747206D01*
X747674Y485484D01*
X748084Y485220D01*
X748436Y484957D01*
X748729Y484693D01*
X748934Y484430D01*
X749109Y484254D01*
X749197Y484137D01*
X749227Y484078D01*
X749461Y483668D01*
X749607Y483288D01*
X749724Y482907D01*
X749812Y482585D01*
X749871Y482292D01*
X749900Y482057D01*
Y481911D01*
Y481852D01*
X749871Y481530D01*
X749842Y481208D01*
X749695Y480652D01*
X749490Y480154D01*
X749227Y479715D01*
X748992Y479392D01*
X748787Y479129D01*
X748641Y478982D01*
X748582Y478924D01*
X748319Y478719D01*
X748026Y478514D01*
X747352Y478133D01*
X746620Y477811D01*
X745888Y477547D01*
X745536Y477430D01*
X745244Y477342D01*
X744951Y477254D01*
X744687Y477167D01*
X744482Y477137D01*
X744336Y477079D01*
X744219Y477049D01*
X744189D01*
X743867Y476962D01*
X743545Y476903D01*
X743018Y476727D01*
X742608Y476581D01*
X742286Y476464D01*
X742051Y476347D01*
X741905Y476259D01*
X741817Y476200D01*
X741788Y476171D01*
X741612Y475995D01*
X741495Y475820D01*
X741378Y475644D01*
X741319Y475468D01*
X741290Y475322D01*
X741261Y475205D01*
Y475146D01*
Y475117D01*
X741290Y474882D01*
X741349Y474677D01*
X741524Y474355D01*
X741641Y474209D01*
X741729Y474121D01*
X741788Y474062D01*
X741817Y474033D01*
X742022Y473887D01*
X742286Y473769D01*
X742520Y473682D01*
X742784Y473623D01*
X742989Y473594D01*
X743164Y473564D01*
X743340D01*
X743809Y473594D01*
X744219Y473711D01*
X744570Y473857D01*
X744863Y474033D01*
X745097Y474179D01*
X745244Y474326D01*
X745361Y474443D01*
X745390Y474472D01*
X745536Y474707D01*
X745683Y474970D01*
X745859Y475527D01*
X745917Y475761D01*
X745947Y475966D01*
X745976Y476083D01*
Y476142D01*
X750457Y475849D01*
X750398Y475439D01*
X750339Y475029D01*
X750134Y474267D01*
X749842Y473623D01*
X749549Y473067D01*
X749256Y472627D01*
X749139Y472452D01*
X749022Y472305D01*
X748934Y472188D01*
X748846Y472100D01*
X748817Y472071D01*
X748787Y472042D01*
X748494Y471778D01*
X748114Y471573D01*
X747733Y471368D01*
X747323Y471192D01*
X746444Y470929D01*
X745536Y470753D01*
X745126Y470694D01*
X744716Y470665D01*
X744365Y470636D01*
X744043Y470607D01*
X743779Y470577D01*
X743428D01*
X742637Y470607D01*
X741934Y470665D01*
X741319Y470782D01*
X740792Y470899D01*
X740353Y470987D01*
X740206Y471046D01*
X740060Y471104D01*
X739943Y471134D01*
X739855Y471163D01*
X739826Y471192D01*
X739796D01*
X739269Y471456D01*
X738830Y471749D01*
X738420Y472071D01*
X738098Y472364D01*
X737834Y472657D01*
X737658Y472862D01*
X737541Y473008D01*
X737512Y473067D01*
X737249Y473535D01*
X737044Y474033D01*
X736897Y474472D01*
X736780Y474912D01*
X736721Y475263D01*
X736692Y475556D01*
Y475644D01*
Y475732D01*
Y475761D01*
Y475790D01*
X736721Y476230D01*
X736780Y476669D01*
X736897Y477049D01*
X736985Y477372D01*
X737102Y477635D01*
X737219Y477840D01*
X737278Y477957D01*
X737307Y478016D01*
X737571Y478397D01*
X737863Y478719D01*
X738186Y479012D01*
X738508Y479246D01*
X738801Y479451D01*
X739035Y479597D01*
X739211Y479685D01*
X739240Y479715D01*
X739269D01*
X739533Y479832D01*
X739826Y479978D01*
X740499Y480212D01*
X741231Y480447D01*
X741964Y480652D01*
X742286Y480740D01*
X742608Y480827D01*
X742901Y480886D01*
X743164Y480945D01*
X743369Y481003D01*
X743516Y481032D01*
X743633Y481062D01*
X743662D01*
X744072Y481150D01*
X744424Y481267D01*
X744687Y481355D01*
X744892Y481442D01*
X745039Y481501D01*
X745156Y481560D01*
X745185Y481618D01*
X745214D01*
X745331Y481735D01*
X745390Y481852D01*
X745507Y482057D01*
X745536Y482233D01*
Y482262D01*
Y482292D01*
X745507Y482467D01*
X745478Y482643D01*
X745331Y482907D01*
X745185Y483083D01*
X745156Y483112D01*
X745126Y483141D01*
X744951Y483258D01*
X744775Y483346D01*
X744365Y483463D01*
X744189D01*
X744043Y483493D01*
X743926D01*
X743574Y483463D01*
X743252Y483434D01*
X742989Y483346D01*
X742784Y483258D01*
X742608Y483170D01*
X742461Y483112D01*
X742403Y483053D01*
X742374Y483024D01*
X742169Y482819D01*
X741993Y482585D01*
X741876Y482350D01*
X741759Y482116D01*
X741700Y481882D01*
X741641Y481706D01*
X741612Y481589D01*
Y481530D01*
X737190Y481765D01*
X737249Y482204D01*
X737366Y482585D01*
X737454Y482965D01*
X737600Y483317D01*
X737893Y483903D01*
X738215Y484371D01*
X738537Y484752D01*
X738801Y485015D01*
X738976Y485162D01*
X739006Y485220D01*
X739035D01*
X739328Y485425D01*
X739650Y485601D01*
X740353Y485865D01*
X741114Y486070D01*
X741817Y486187D01*
X742139Y486245D01*
X742461Y486275D01*
X742725Y486304D01*
X742989D01*
X743164Y486333D01*
X743457D01*
X744306Y486304D01*
D02*
G37*
G36*
X812309Y480769D02*
X812543Y481003D01*
X812807Y481208D01*
X813041Y481384D01*
X813276Y481530D01*
X813481Y481618D01*
X813627Y481706D01*
X813744Y481765D01*
X813773D01*
X814066Y481882D01*
X814388Y481970D01*
X814681Y482028D01*
X814945Y482087D01*
X815179D01*
X815355Y482116D01*
X815530D01*
X815911Y482087D01*
X816263Y482057D01*
X816907Y481882D01*
X817463Y481647D01*
X817961Y481384D01*
X818342Y481120D01*
X818635Y480886D01*
X818811Y480710D01*
X818840Y480681D01*
X818869Y480652D01*
X819103Y480359D01*
X819279Y480037D01*
X819601Y479363D01*
X819836Y478660D01*
X819982Y477987D01*
X820099Y477372D01*
X820128Y477108D01*
Y476903D01*
X820158Y476698D01*
Y476552D01*
Y476464D01*
Y476435D01*
X820099Y475556D01*
X819982Y474765D01*
X819777Y474062D01*
X819572Y473447D01*
X819455Y473184D01*
X819367Y472949D01*
X819250Y472744D01*
X819162Y472598D01*
X819103Y472452D01*
X819045Y472364D01*
X818986Y472305D01*
Y472276D01*
X818752Y471983D01*
X818488Y471719D01*
X818225Y471485D01*
X817961Y471309D01*
X817668Y471134D01*
X817375Y470987D01*
X816819Y470782D01*
X816321Y470665D01*
X816116Y470636D01*
X815940Y470607D01*
X815765Y470577D01*
X815560D01*
X815150Y470607D01*
X814769Y470665D01*
X814418Y470724D01*
X814125Y470812D01*
X813861Y470899D01*
X813686Y470987D01*
X813539Y471017D01*
X813510Y471046D01*
X813246Y471222D01*
X812983Y471427D01*
X812748Y471632D01*
X812514Y471895D01*
X812309Y472100D01*
X812163Y472276D01*
X812045Y472393D01*
X812016Y472452D01*
Y470841D01*
X808033D01*
Y486070D01*
X812309D01*
Y480769D01*
D02*
G37*
G36*
X673844Y482087D02*
X674342Y482057D01*
X674810Y481970D01*
X675250Y481852D01*
X675660Y481735D01*
X676011Y481589D01*
X676363Y481442D01*
X676685Y481296D01*
X676948Y481150D01*
X677182Y481003D01*
X677417Y480857D01*
X677563Y480740D01*
X677710Y480622D01*
X677797Y480535D01*
X677856Y480505D01*
X677885Y480476D01*
X678178Y480154D01*
X678442Y479832D01*
X678676Y479480D01*
X678852Y479129D01*
X679027Y478777D01*
X679174Y478426D01*
X679379Y477782D01*
X679437Y477459D01*
X679496Y477196D01*
X679525Y476932D01*
X679555Y476727D01*
X679584Y476522D01*
Y476405D01*
Y476317D01*
Y476288D01*
X679555Y475790D01*
X679496Y475322D01*
X679408Y474882D01*
X679262Y474472D01*
X679115Y474092D01*
X678940Y473711D01*
X678764Y473389D01*
X678588Y473096D01*
X678412Y472832D01*
X678207Y472598D01*
X678061Y472393D01*
X677915Y472217D01*
X677768Y472100D01*
X677680Y472012D01*
X677622Y471954D01*
X677592Y471924D01*
X677270Y471690D01*
X676948Y471485D01*
X676216Y471134D01*
X675513Y470899D01*
X674810Y470753D01*
X674517Y470694D01*
X674225Y470636D01*
X673961Y470607D01*
X673727D01*
X673551Y470577D01*
X673287D01*
X672760Y470607D01*
X672233Y470636D01*
X671765Y470724D01*
X671325Y470841D01*
X670886Y470958D01*
X670505Y471075D01*
X670154Y471222D01*
X669861Y471397D01*
X669568Y471544D01*
X669334Y471690D01*
X669129Y471807D01*
X668953Y471924D01*
X668807Y472042D01*
X668719Y472129D01*
X668660Y472159D01*
X668631Y472188D01*
X668338Y472510D01*
X668074Y472832D01*
X667840Y473184D01*
X667635Y473535D01*
X667489Y473887D01*
X667342Y474238D01*
X667137Y474912D01*
X667079Y475205D01*
X667020Y475497D01*
X666991Y475732D01*
X666962Y475966D01*
X666932Y476142D01*
Y476259D01*
Y476347D01*
Y476376D01*
Y476786D01*
X666991Y477196D01*
X667137Y477928D01*
X667372Y478572D01*
X667606Y479129D01*
X667869Y479568D01*
X667987Y479744D01*
X668104Y479920D01*
X668192Y480037D01*
X668250Y480125D01*
X668279Y480154D01*
X668309Y480183D01*
X668631Y480535D01*
X669012Y480827D01*
X669392Y481091D01*
X669802Y481296D01*
X670212Y481501D01*
X670652Y481647D01*
X671442Y481882D01*
X671823Y481970D01*
X672175Y482028D01*
X672497Y482057D01*
X672760Y482087D01*
X672995Y482116D01*
X673317D01*
X673844Y482087D01*
D02*
G37*
G36*
X716045D02*
X716631Y482057D01*
X717129Y481999D01*
X717568Y481911D01*
X717920Y481823D01*
X718154Y481765D01*
X718300Y481735D01*
X718359Y481706D01*
X718740Y481560D01*
X719091Y481355D01*
X719384Y481179D01*
X719618Y480974D01*
X719823Y480798D01*
X719970Y480652D01*
X720058Y480564D01*
X720087Y480535D01*
X720292Y480242D01*
X720438Y479920D01*
X720555Y479597D01*
X720614Y479305D01*
X720673Y479041D01*
X720702Y478836D01*
Y478719D01*
Y478660D01*
X720673Y478309D01*
X720614Y477957D01*
X720526Y477664D01*
X720409Y477401D01*
X720292Y477167D01*
X720204Y477020D01*
X720145Y476903D01*
X720116Y476874D01*
X719882Y476610D01*
X719648Y476376D01*
X719413Y476200D01*
X719179Y476025D01*
X718974Y475907D01*
X718828Y475820D01*
X718710Y475790D01*
X718681Y475761D01*
X718505Y475702D01*
X718300Y475644D01*
X717832Y475527D01*
X717334Y475410D01*
X716836Y475292D01*
X716367Y475205D01*
X716162Y475146D01*
X715987Y475117D01*
X715840Y475087D01*
X715723D01*
X715665Y475058D01*
X715635D01*
X715137Y474970D01*
X714727Y474882D01*
X714405Y474795D01*
X714171Y474736D01*
X713995Y474677D01*
X713907Y474648D01*
X713849Y474619D01*
X713820D01*
X713644Y474531D01*
X713527Y474414D01*
X713439Y474297D01*
X713380Y474179D01*
X713322Y474004D01*
Y473945D01*
Y473916D01*
X713351Y473769D01*
X713380Y473652D01*
X713497Y473418D01*
X713644Y473301D01*
X713673Y473242D01*
X713702D01*
X713878Y473125D01*
X714112Y473037D01*
X714522Y472949D01*
X714727Y472920D01*
X714874Y472891D01*
X715020D01*
X715313Y472920D01*
X715547Y472949D01*
X715752Y473008D01*
X715957Y473067D01*
X716075Y473125D01*
X716192Y473154D01*
X716250Y473213D01*
X716280D01*
X716455Y473359D01*
X716572Y473506D01*
X716807Y473887D01*
X716895Y474033D01*
X716924Y474179D01*
X716982Y474267D01*
Y474297D01*
X721170Y473887D01*
X720995Y473330D01*
X720760Y472832D01*
X720497Y472393D01*
X720233Y472042D01*
X719970Y471778D01*
X719765Y471573D01*
X719618Y471456D01*
X719560Y471427D01*
X719296Y471280D01*
X719003Y471134D01*
X718330Y470929D01*
X717627Y470782D01*
X716895Y470694D01*
X716250Y470636D01*
X715957Y470607D01*
X715723Y470577D01*
X715225D01*
X714464Y470607D01*
X713790Y470665D01*
X713234Y470753D01*
X712736Y470841D01*
X712355Y470929D01*
X712092Y471017D01*
X711916Y471075D01*
X711857Y471104D01*
X711418Y471309D01*
X711067Y471544D01*
X710744Y471778D01*
X710481Y472012D01*
X710305Y472217D01*
X710159Y472393D01*
X710071Y472510D01*
X710042Y472539D01*
X709837Y472891D01*
X709690Y473213D01*
X709602Y473535D01*
X709514Y473799D01*
X709485Y474033D01*
X709456Y474238D01*
Y474355D01*
Y474384D01*
X709485Y474736D01*
X709544Y475058D01*
X709632Y475380D01*
X709719Y475615D01*
X709837Y475849D01*
X709924Y475995D01*
X709983Y476112D01*
X710012Y476142D01*
X710247Y476435D01*
X710481Y476669D01*
X710744Y476874D01*
X711008Y477049D01*
X711242Y477167D01*
X711418Y477254D01*
X711535Y477313D01*
X711594Y477342D01*
X712033Y477489D01*
X712502Y477635D01*
X713029Y477752D01*
X713556Y477840D01*
X713995Y477928D01*
X714200Y477957D01*
X714376Y477987D01*
X714522D01*
X714640Y478016D01*
X714727D01*
X715196Y478074D01*
X715577Y478162D01*
X715899Y478221D01*
X716133Y478279D01*
X716309Y478338D01*
X716426Y478367D01*
X716485Y478397D01*
X716514D01*
X716660Y478484D01*
X716748Y478572D01*
X716865Y478777D01*
X716924Y478953D01*
Y478982D01*
Y479012D01*
X716895Y479129D01*
X716865Y479246D01*
X716748Y479451D01*
X716660Y479568D01*
X716602Y479627D01*
X716455Y479715D01*
X716309Y479773D01*
X715957Y479861D01*
X715811Y479890D01*
X715313D01*
X715079Y479832D01*
X714874Y479773D01*
X714698Y479715D01*
X714581Y479656D01*
X714464Y479597D01*
X714405Y479568D01*
X714376Y479539D01*
X714142Y479334D01*
X713966Y479070D01*
X713907Y478953D01*
X713878Y478865D01*
X713849Y478807D01*
Y478777D01*
X709837Y479187D01*
X710012Y479568D01*
X710188Y479890D01*
X710364Y480183D01*
X710539Y480417D01*
X710686Y480593D01*
X710774Y480740D01*
X710862Y480827D01*
X710891Y480857D01*
X711125Y481091D01*
X711389Y481267D01*
X711652Y481442D01*
X711916Y481560D01*
X712121Y481677D01*
X712297Y481735D01*
X712443Y481794D01*
X712472D01*
X712853Y481911D01*
X713322Y481970D01*
X713790Y482028D01*
X714259Y482087D01*
X714698D01*
X715050Y482116D01*
X715372D01*
X716045Y482087D01*
D02*
G37*
G36*
X788704Y429284D02*
X784487D01*
Y440295D01*
X788704D01*
Y429284D01*
D02*
G37*
G36*
X802762D02*
X790725D01*
Y433032D01*
X798047D01*
Y444512D01*
X802762D01*
Y429284D01*
D02*
G37*
G36*
X757690Y440530D02*
X758188Y440500D01*
X758657Y440412D01*
X759096Y440295D01*
X759506Y440178D01*
X759857Y440032D01*
X760209Y439885D01*
X760531Y439739D01*
X760795Y439593D01*
X761029Y439446D01*
X761263Y439300D01*
X761410Y439183D01*
X761556Y439065D01*
X761644Y438978D01*
X761702Y438948D01*
X761732Y438919D01*
X762025Y438597D01*
X762288Y438275D01*
X762523Y437923D01*
X762698Y437572D01*
X762874Y437220D01*
X763020Y436869D01*
X763225Y436225D01*
X763284Y435902D01*
X763343Y435639D01*
X763372Y435375D01*
X763401Y435170D01*
X763430Y434965D01*
Y434848D01*
Y434760D01*
Y434731D01*
X763401Y434233D01*
X763343Y433764D01*
X763255Y433325D01*
X763108Y432915D01*
X762962Y432534D01*
X762786Y432154D01*
X762610Y431832D01*
X762435Y431539D01*
X762259Y431275D01*
X762054Y431041D01*
X761908Y430836D01*
X761761Y430660D01*
X761615Y430543D01*
X761527Y430455D01*
X761468Y430397D01*
X761439Y430367D01*
X761117Y430133D01*
X760795Y429928D01*
X760062Y429577D01*
X759360Y429342D01*
X758657Y429196D01*
X758364Y429137D01*
X758071Y429079D01*
X757807Y429049D01*
X757573D01*
X757397Y429020D01*
X757134D01*
X756607Y429049D01*
X756079Y429079D01*
X755611Y429167D01*
X755172Y429284D01*
X754732Y429401D01*
X754352Y429518D01*
X754000Y429664D01*
X753707Y429840D01*
X753415Y429987D01*
X753180Y430133D01*
X752975Y430250D01*
X752800Y430367D01*
X752653Y430485D01*
X752565Y430572D01*
X752507Y430602D01*
X752477Y430631D01*
X752184Y430953D01*
X751921Y431275D01*
X751687Y431627D01*
X751482Y431978D01*
X751335Y432329D01*
X751189Y432681D01*
X750984Y433354D01*
X750925Y433647D01*
X750867Y433940D01*
X750837Y434174D01*
X750808Y434409D01*
X750779Y434585D01*
Y434702D01*
Y434790D01*
Y434819D01*
Y435229D01*
X750837Y435639D01*
X750984Y436371D01*
X751218Y437015D01*
X751452Y437572D01*
X751716Y438011D01*
X751833Y438187D01*
X751950Y438362D01*
X752038Y438480D01*
X752097Y438567D01*
X752126Y438597D01*
X752155Y438626D01*
X752477Y438978D01*
X752858Y439270D01*
X753239Y439534D01*
X753649Y439739D01*
X754059Y439944D01*
X754498Y440090D01*
X755289Y440325D01*
X755669Y440412D01*
X756021Y440471D01*
X756343Y440500D01*
X756607Y440530D01*
X756841Y440559D01*
X757163D01*
X757690Y440530D01*
D02*
G37*
G36*
X766008D02*
X766300Y440500D01*
X766564Y440412D01*
X766798Y440325D01*
X766974Y440237D01*
X767091Y440178D01*
X767179Y440120D01*
X767208Y440090D01*
X767413Y439885D01*
X767618Y439651D01*
X767999Y439124D01*
X768145Y438860D01*
X768263Y438685D01*
X768321Y438538D01*
X768350Y438480D01*
Y440295D01*
X772304D01*
Y429284D01*
X768058D01*
Y432974D01*
Y433442D01*
X768028Y433882D01*
X767999Y434292D01*
X767970Y434643D01*
X767911Y434965D01*
X767853Y435287D01*
X767794Y435522D01*
X767735Y435756D01*
X767677Y435961D01*
X767618Y436137D01*
X767501Y436371D01*
X767443Y436517D01*
X767413Y436576D01*
X767238Y436810D01*
X767033Y436986D01*
X766798Y437103D01*
X766593Y437191D01*
X766417Y437250D01*
X766271Y437279D01*
X765949D01*
X765773Y437220D01*
X765393Y437132D01*
X765217Y437074D01*
X765070Y437015D01*
X764983Y436986D01*
X764953Y436957D01*
X763635Y439944D01*
X764045Y440149D01*
X764426Y440295D01*
X764778Y440412D01*
X765070Y440471D01*
X765334Y440530D01*
X765510Y440559D01*
X765685D01*
X766008Y440530D01*
D02*
G37*
G36*
X745419Y429284D02*
X741671D01*
X736970Y440261D01*
X732358Y429284D01*
X732475Y428991D01*
X732621Y428727D01*
X732738Y428522D01*
X732885Y428347D01*
X732973Y428200D01*
X733061Y428112D01*
X733119Y428083D01*
X733148Y428054D01*
X733324Y427937D01*
X733529Y427849D01*
X733910Y427761D01*
X734086Y427732D01*
X734232Y427702D01*
X734349D01*
X734759Y427732D01*
X735140Y427761D01*
X735462Y427819D01*
X735784Y427878D01*
X736019Y427937D01*
X736224Y427966D01*
X736341Y428024D01*
X736370D01*
X736048Y425066D01*
X735374Y424979D01*
X734818Y424920D01*
X734320Y424861D01*
X733939Y424832D01*
X733617D01*
X733412Y424803D01*
X733236D01*
X732446Y424861D01*
X731772Y424979D01*
X731186Y425125D01*
X730718Y425330D01*
X730337Y425506D01*
X730073Y425681D01*
X729927Y425799D01*
X729868Y425828D01*
X729722Y425974D01*
X729576Y426150D01*
X729312Y426560D01*
X729048Y426999D01*
X728814Y427468D01*
X728638Y427878D01*
X728463Y428229D01*
X728433Y428376D01*
X728375Y428464D01*
X728345Y428522D01*
Y428552D01*
X723953Y440295D01*
X728140D01*
X730249Y432944D01*
X732533Y440295D01*
X741231D01*
X743457Y433296D01*
X745595Y440295D01*
X749988D01*
X745419Y429284D01*
D02*
G37*
G36*
X708548D02*
X704331D01*
Y434555D01*
X704302Y435082D01*
X704243Y435522D01*
X704184Y435902D01*
X704097Y436195D01*
X704009Y436400D01*
X703921Y436547D01*
X703892Y436635D01*
X703862Y436664D01*
X703687Y436869D01*
X703482Y437015D01*
X703277Y437103D01*
X703072Y437191D01*
X702896Y437220D01*
X702749Y437250D01*
X702632D01*
X702398Y437220D01*
X702193Y437191D01*
X701988Y437103D01*
X701842Y437045D01*
X701724Y436957D01*
X701637Y436869D01*
X701607Y436840D01*
X701578Y436810D01*
X701432Y436635D01*
X701344Y436400D01*
X701227Y435902D01*
X701197Y435697D01*
X701168Y435522D01*
Y435405D01*
Y435346D01*
Y429284D01*
X696921D01*
Y436283D01*
X696951Y437045D01*
X697068Y437689D01*
X697243Y438245D01*
X697419Y438714D01*
X697595Y439065D01*
X697771Y439300D01*
X697888Y439446D01*
X697917Y439505D01*
X698327Y439856D01*
X698766Y440120D01*
X699206Y440295D01*
X699645Y440442D01*
X700055Y440500D01*
X700348Y440530D01*
X700465Y440559D01*
X700641D01*
X701051Y440530D01*
X701432Y440500D01*
X701783Y440442D01*
X702076Y440354D01*
X702310Y440266D01*
X702486Y440207D01*
X702603Y440178D01*
X702632Y440149D01*
X702954Y439973D01*
X703247Y439798D01*
X703540Y439593D01*
X703804Y439388D01*
X704009Y439183D01*
X704184Y439036D01*
X704302Y438919D01*
X704331Y438890D01*
Y444512D01*
X708548D01*
Y429284D01*
D02*
G37*
G36*
X717539Y440530D02*
X718154Y440471D01*
X718681Y440383D01*
X719150Y440295D01*
X719501Y440207D01*
X719765Y440120D01*
X719940Y440061D01*
X719999Y440032D01*
X720292Y439885D01*
X720555Y439739D01*
X720819Y439563D01*
X721053Y439417D01*
X721258Y439270D01*
X721405Y439153D01*
X721492Y439065D01*
X721522Y439036D01*
X721785Y438802D01*
X722020Y438538D01*
X722225Y438304D01*
X722371Y438070D01*
X722517Y437865D01*
X722605Y437718D01*
X722664Y437601D01*
X722693Y437572D01*
X722869Y437132D01*
X723015Y436635D01*
X723103Y436166D01*
X723191Y435727D01*
X723220Y435317D01*
X723250Y435024D01*
Y434907D01*
Y434819D01*
Y434760D01*
Y434731D01*
X723220Y434145D01*
X723162Y433618D01*
X723103Y433179D01*
X723015Y432798D01*
X722927Y432505D01*
X722840Y432271D01*
X722810Y432154D01*
X722781Y432095D01*
X722576Y431744D01*
X722371Y431422D01*
X722166Y431129D01*
X721961Y430895D01*
X721785Y430690D01*
X721639Y430514D01*
X721522Y430426D01*
X721492Y430397D01*
X721170Y430133D01*
X720819Y429928D01*
X720468Y429752D01*
X720175Y429606D01*
X719882Y429489D01*
X719677Y429401D01*
X719530Y429372D01*
X719472Y429342D01*
X719003Y429225D01*
X718505Y429167D01*
X718037Y429108D01*
X717568Y429049D01*
X717158D01*
X716836Y429020D01*
X716543D01*
X715899Y429049D01*
X715313Y429108D01*
X714786Y429167D01*
X714376Y429284D01*
X714025Y429372D01*
X713761Y429430D01*
X713615Y429489D01*
X713556Y429518D01*
X713146Y429723D01*
X712765Y429957D01*
X712443Y430192D01*
X712150Y430397D01*
X711916Y430602D01*
X711769Y430777D01*
X711652Y430895D01*
X711623Y430924D01*
X711359Y431275D01*
X711125Y431656D01*
X710949Y432037D01*
X710774Y432388D01*
X710657Y432681D01*
X710569Y432915D01*
X710539Y433062D01*
X710510Y433120D01*
X714522Y433589D01*
X714640Y433267D01*
X714786Y433003D01*
X714932Y432769D01*
X715079Y432593D01*
X715196Y432447D01*
X715313Y432359D01*
X715372Y432300D01*
X715401Y432271D01*
X715606Y432124D01*
X715840Y432037D01*
X716309Y431920D01*
X716485Y431890D01*
X716631Y431861D01*
X716777D01*
X717129Y431890D01*
X717451Y431978D01*
X717744Y432095D01*
X717978Y432212D01*
X718154Y432329D01*
X718300Y432447D01*
X718388Y432534D01*
X718418Y432564D01*
X718623Y432857D01*
X718769Y433179D01*
X718886Y433530D01*
X718945Y433852D01*
X719003Y434145D01*
X719033Y434380D01*
Y434555D01*
Y434614D01*
X719003Y435141D01*
X718945Y435610D01*
X718828Y436020D01*
X718710Y436342D01*
X718593Y436576D01*
X718476Y436752D01*
X718418Y436869D01*
X718388Y436898D01*
X718125Y437162D01*
X717861Y437337D01*
X717568Y437484D01*
X717305Y437572D01*
X717070Y437630D01*
X716895Y437660D01*
X716719D01*
X716426Y437630D01*
X716162Y437601D01*
X715928Y437542D01*
X715752Y437484D01*
X715606Y437396D01*
X715489Y437337D01*
X715430Y437308D01*
X715401Y437279D01*
X715225Y437132D01*
X715079Y436986D01*
X714874Y436635D01*
X714786Y436488D01*
X714727Y436371D01*
X714698Y436283D01*
Y436254D01*
X710715Y436781D01*
X710979Y437425D01*
X711272Y438011D01*
X711623Y438480D01*
X711945Y438890D01*
X712238Y439183D01*
X712502Y439417D01*
X712677Y439534D01*
X712707Y439593D01*
X712736D01*
X712999Y439768D01*
X713322Y439915D01*
X713966Y440149D01*
X714640Y440325D01*
X715313Y440442D01*
X715899Y440500D01*
X716162Y440530D01*
X716397Y440559D01*
X716836D01*
X717539Y440530D01*
D02*
G37*
G36*
X780914Y442316D02*
Y440295D01*
X782466D01*
Y437191D01*
X780914D01*
Y433296D01*
X780885Y432652D01*
X780856Y432095D01*
X780797Y431656D01*
X780739Y431275D01*
X780680Y430982D01*
X780621Y430777D01*
X780563Y430660D01*
Y430631D01*
X780416Y430338D01*
X780241Y430104D01*
X780065Y429869D01*
X779889Y429723D01*
X779743Y429577D01*
X779596Y429489D01*
X779509Y429430D01*
X779479Y429401D01*
X779157Y429284D01*
X778776Y429196D01*
X778396Y429108D01*
X778015Y429079D01*
X777663Y429049D01*
X777400Y429020D01*
X777136D01*
X776609Y429049D01*
X776082Y429079D01*
X775584Y429137D01*
X775145Y429196D01*
X774764Y429254D01*
X774442Y429284D01*
X774325Y429313D01*
X774237Y429342D01*
X774178D01*
X774501Y432271D01*
X774793Y432183D01*
X775057Y432124D01*
X775291Y432066D01*
X775467Y432037D01*
X775613D01*
X775731Y432007D01*
X775818D01*
X775994Y432037D01*
X776141Y432066D01*
X776375Y432183D01*
X776521Y432300D01*
X776551Y432359D01*
X776580Y432447D01*
X776609Y432593D01*
X776638Y432886D01*
X776668Y433032D01*
Y433149D01*
Y433237D01*
Y433267D01*
Y437191D01*
X774354D01*
Y440295D01*
X776668D01*
Y444512D01*
X780914Y442316D01*
D02*
G37*
G36*
X664736Y470841D02*
X660519D01*
Y481852D01*
X664736D01*
Y470841D01*
D02*
G37*
G36*
X693231D02*
X688926D01*
Y473682D01*
X687345Y475234D01*
X685119Y470841D01*
X680345D01*
X684533Y477987D01*
X680580Y481852D01*
X685793D01*
X688926Y478192D01*
Y486070D01*
X693231D01*
Y470841D01*
D02*
G37*
G36*
X729956Y482087D02*
X730308Y482057D01*
X730630Y482028D01*
X730923Y481970D01*
X731128Y481940D01*
X731245Y481911D01*
X731303D01*
X731655Y481852D01*
X731977Y481765D01*
X732270Y481677D01*
X732504Y481589D01*
X732680Y481530D01*
X732797Y481472D01*
X732885Y481442D01*
X732914Y481413D01*
X733207Y481237D01*
X733441Y481062D01*
X733646Y480886D01*
X733822Y480710D01*
X733968Y480564D01*
X734056Y480476D01*
X734115Y480388D01*
X734144Y480359D01*
X734291Y480125D01*
X734437Y479861D01*
X734642Y479334D01*
X734701Y479070D01*
X734759Y478895D01*
X734788Y478777D01*
Y478719D01*
X730747Y478279D01*
X730659Y478514D01*
X730542Y478719D01*
X730425Y478895D01*
X730337Y479041D01*
X730249Y479129D01*
X730161Y479187D01*
X730132Y479246D01*
X730103D01*
X729898Y479363D01*
X729634Y479451D01*
X729136Y479568D01*
X728902D01*
X728726Y479597D01*
X728258D01*
X728023Y479539D01*
X727818Y479510D01*
X727672Y479451D01*
X727555Y479392D01*
X727467Y479334D01*
X727408Y479305D01*
Y479275D01*
X727291Y479129D01*
X727233Y478982D01*
X727115Y478602D01*
Y478455D01*
X727086Y478309D01*
Y478221D01*
Y478192D01*
X727643Y477987D01*
X727906Y477899D01*
X728140Y477811D01*
X728345Y477752D01*
X728492Y477694D01*
X728580Y477664D01*
X728609D01*
X728755Y477635D01*
X728931Y477577D01*
X729370Y477489D01*
X729898Y477372D01*
X730396Y477254D01*
X730893Y477167D01*
X731098Y477108D01*
X731303Y477079D01*
X731450Y477049D01*
X731567Y477020D01*
X731655Y476991D01*
X731684D01*
X732358Y476844D01*
X732943Y476640D01*
X733412Y476435D01*
X733763Y476259D01*
X734056Y476083D01*
X734232Y475937D01*
X734349Y475820D01*
X734378Y475790D01*
X734613Y475468D01*
X734788Y475146D01*
X734935Y474795D01*
X735023Y474472D01*
X735081Y474179D01*
X735111Y473945D01*
Y473799D01*
Y473769D01*
Y473740D01*
X735081Y473272D01*
X734964Y472832D01*
X734788Y472422D01*
X734613Y472100D01*
X734437Y471837D01*
X734261Y471661D01*
X734144Y471514D01*
X734115Y471485D01*
X733676Y471192D01*
X733207Y470958D01*
X732709Y470812D01*
X732211Y470694D01*
X731772Y470636D01*
X731596Y470607D01*
X731421D01*
X731274Y470577D01*
X731098D01*
X730571Y470607D01*
X730073Y470636D01*
X729634Y470724D01*
X729253Y470812D01*
X728960Y470870D01*
X728726Y470958D01*
X728580Y470987D01*
X728521Y471017D01*
X728199Y471163D01*
X727906Y471339D01*
X727643Y471544D01*
X727379Y471719D01*
X727174Y471895D01*
X726998Y472042D01*
X726881Y472129D01*
X726852Y472159D01*
X726793Y471866D01*
X726764Y471632D01*
X726735Y471514D01*
Y471456D01*
X726647Y471280D01*
X726530Y471075D01*
X726442Y470899D01*
X726413Y470870D01*
Y470841D01*
X722430D01*
X722635Y471309D01*
X722722Y471485D01*
X722781Y471661D01*
X722810Y471778D01*
X722840Y471866D01*
X722869Y471924D01*
Y471954D01*
X722898Y472129D01*
X722927Y472334D01*
X722957Y472744D01*
Y472920D01*
Y473067D01*
Y473154D01*
Y473184D01*
Y478045D01*
Y478338D01*
X723015Y478631D01*
X723045Y478895D01*
X723103Y479129D01*
X723162Y479334D01*
X723220Y479510D01*
X723250Y479627D01*
X723279Y479656D01*
X723396Y479978D01*
X723542Y480242D01*
X723689Y480476D01*
X723835Y480652D01*
X723953Y480798D01*
X724040Y480915D01*
X724099Y480974D01*
X724128Y481003D01*
X724421Y481237D01*
X724743Y481413D01*
X725065Y481589D01*
X725388Y481706D01*
X725651Y481794D01*
X725856Y481852D01*
X726003Y481882D01*
X726061D01*
X726530Y481970D01*
X727028Y482028D01*
X727525Y482057D01*
X728023Y482087D01*
X728433Y482116D01*
X729546D01*
X729956Y482087D01*
D02*
G37*
G36*
X654486Y470841D02*
X650737D01*
X646022Y481852D01*
X650298D01*
X652523Y474853D01*
X654661Y481852D01*
X659054D01*
X654486Y470841D01*
D02*
G37*
G36*
X853661D02*
X849795D01*
Y482438D01*
X846867Y470841D01*
X843352D01*
X840395Y482438D01*
Y470841D01*
X836529D01*
Y486070D01*
X842737D01*
X845110Y476786D01*
X847452Y486070D01*
X853661D01*
Y470841D01*
D02*
G37*
G36*
X784194D02*
X780241D01*
Y472452D01*
X779948Y472100D01*
X779655Y471807D01*
X779421Y471544D01*
X779186Y471368D01*
X779011Y471222D01*
X778864Y471134D01*
X778776Y471075D01*
X778747Y471046D01*
X778396Y470899D01*
X778044Y470782D01*
X777693Y470694D01*
X777371Y470636D01*
X777107Y470607D01*
X776873Y470577D01*
X776697D01*
X776228Y470607D01*
X775789Y470694D01*
X775379Y470782D01*
X775028Y470929D01*
X774764Y471046D01*
X774530Y471134D01*
X774413Y471222D01*
X774354Y471251D01*
X773973Y471544D01*
X773651Y471866D01*
X773358Y472188D01*
X773124Y472539D01*
X772948Y472832D01*
X772802Y473067D01*
X772714Y473242D01*
X772685Y473272D01*
Y473301D01*
X772480Y473828D01*
X772333Y474384D01*
X772216Y474912D01*
X772158Y475410D01*
X772099Y475849D01*
Y476025D01*
X772070Y476200D01*
Y476317D01*
Y476405D01*
Y476464D01*
Y476493D01*
Y476991D01*
X772128Y477459D01*
X772187Y477869D01*
X772275Y478279D01*
X772363Y478660D01*
X772480Y478982D01*
X772597Y479305D01*
X772714Y479597D01*
X772860Y479832D01*
X772978Y480037D01*
X773095Y480242D01*
X773183Y480388D01*
X773270Y480505D01*
X773329Y480593D01*
X773358Y480622D01*
X773388Y480652D01*
X773651Y480915D01*
X773915Y481150D01*
X774178Y481325D01*
X774471Y481501D01*
X775028Y481765D01*
X775555Y481940D01*
X776023Y482028D01*
X776228Y482087D01*
X776375D01*
X776521Y482116D01*
X777078D01*
X777400Y482057D01*
X777722Y481999D01*
X777986Y481940D01*
X778191Y481882D01*
X778366Y481823D01*
X778484Y481794D01*
X778513Y481765D01*
X778806Y481618D01*
X779069Y481472D01*
X779304Y481296D01*
X779509Y481150D01*
X779684Y481003D01*
X779801Y480886D01*
X779889Y480798D01*
X779919Y480769D01*
Y486070D01*
X784194D01*
Y470841D01*
D02*
G37*
G36*
X664736Y483170D02*
X660519D01*
Y486070D01*
X664736D01*
Y483170D01*
D02*
G37*
G36*
X829178Y482087D02*
X829529Y482057D01*
X829852Y482028D01*
X830144Y481970D01*
X830349Y481940D01*
X830467Y481911D01*
X830525D01*
X830876Y481852D01*
X831199Y481765D01*
X831491Y481677D01*
X831726Y481589D01*
X831901Y481530D01*
X832019Y481472D01*
X832106Y481442D01*
X832136Y481413D01*
X832429Y481237D01*
X832663Y481062D01*
X832868Y480886D01*
X833044Y480710D01*
X833190Y480564D01*
X833278Y480476D01*
X833336Y480388D01*
X833366Y480359D01*
X833512Y480125D01*
X833659Y479861D01*
X833864Y479334D01*
X833922Y479070D01*
X833981Y478895D01*
X834010Y478777D01*
Y478719D01*
X829969Y478279D01*
X829881Y478514D01*
X829764Y478719D01*
X829646Y478895D01*
X829559Y479041D01*
X829471Y479129D01*
X829383Y479187D01*
X829354Y479246D01*
X829324D01*
X829119Y479363D01*
X828856Y479451D01*
X828358Y479568D01*
X828124D01*
X827948Y479597D01*
X827479D01*
X827245Y479539D01*
X827040Y479510D01*
X826893Y479451D01*
X826776Y479392D01*
X826689Y479334D01*
X826630Y479305D01*
Y479275D01*
X826513Y479129D01*
X826454Y478982D01*
X826337Y478602D01*
Y478455D01*
X826308Y478309D01*
Y478221D01*
Y478192D01*
X826864Y477987D01*
X827128Y477899D01*
X827362Y477811D01*
X827567Y477752D01*
X827714Y477694D01*
X827801Y477664D01*
X827831D01*
X827977Y477635D01*
X828153Y477577D01*
X828592Y477489D01*
X829119Y477372D01*
X829617Y477254D01*
X830115Y477167D01*
X830320Y477108D01*
X830525Y477079D01*
X830671Y477049D01*
X830789Y477020D01*
X830876Y476991D01*
X830906D01*
X831579Y476844D01*
X832165Y476640D01*
X832634Y476435D01*
X832985Y476259D01*
X833278Y476083D01*
X833454Y475937D01*
X833571Y475820D01*
X833600Y475790D01*
X833834Y475468D01*
X834010Y475146D01*
X834156Y474795D01*
X834244Y474472D01*
X834303Y474179D01*
X834332Y473945D01*
Y473799D01*
Y473769D01*
Y473740D01*
X834303Y473272D01*
X834186Y472832D01*
X834010Y472422D01*
X833834Y472100D01*
X833659Y471837D01*
X833483Y471661D01*
X833366Y471514D01*
X833336Y471485D01*
X832897Y471192D01*
X832429Y470958D01*
X831931Y470812D01*
X831433Y470694D01*
X830994Y470636D01*
X830818Y470607D01*
X830642D01*
X830496Y470577D01*
X830320D01*
X829793Y470607D01*
X829295Y470636D01*
X828856Y470724D01*
X828475Y470812D01*
X828182Y470870D01*
X827948Y470958D01*
X827801Y470987D01*
X827743Y471017D01*
X827421Y471163D01*
X827128Y471339D01*
X826864Y471544D01*
X826601Y471719D01*
X826396Y471895D01*
X826220Y472042D01*
X826103Y472129D01*
X826074Y472159D01*
X826015Y471866D01*
X825986Y471632D01*
X825956Y471514D01*
Y471456D01*
X825869Y471280D01*
X825751Y471075D01*
X825664Y470899D01*
X825634Y470870D01*
Y470841D01*
X821651D01*
X821856Y471309D01*
X821944Y471485D01*
X822003Y471661D01*
X822032Y471778D01*
X822061Y471866D01*
X822091Y471924D01*
Y471954D01*
X822120Y472129D01*
X822149Y472334D01*
X822178Y472744D01*
Y472920D01*
Y473067D01*
Y473154D01*
Y473184D01*
Y478045D01*
Y478338D01*
X822237Y478631D01*
X822266Y478895D01*
X822325Y479129D01*
X822383Y479334D01*
X822442Y479510D01*
X822471Y479627D01*
X822501Y479656D01*
X822618Y479978D01*
X822764Y480242D01*
X822911Y480476D01*
X823057Y480652D01*
X823174Y480798D01*
X823262Y480915D01*
X823321Y480974D01*
X823350Y481003D01*
X823643Y481237D01*
X823965Y481413D01*
X824287Y481589D01*
X824609Y481706D01*
X824873Y481794D01*
X825078Y481852D01*
X825224Y481882D01*
X825283D01*
X825751Y481970D01*
X826249Y482028D01*
X826747Y482057D01*
X827245Y482087D01*
X827655Y482116D01*
X828768D01*
X829178Y482087D01*
D02*
G37*
G36*
X707406Y470841D02*
X703189D01*
Y476112D01*
X703159Y476640D01*
X703101Y477079D01*
X703042Y477459D01*
X702954Y477752D01*
X702867Y477957D01*
X702779Y478104D01*
X702749Y478192D01*
X702720Y478221D01*
X702544Y478426D01*
X702339Y478572D01*
X702134Y478660D01*
X701929Y478748D01*
X701754Y478777D01*
X701607Y478807D01*
X701490D01*
X701256Y478777D01*
X701051Y478748D01*
X700846Y478660D01*
X700699Y478602D01*
X700582Y478514D01*
X700494Y478426D01*
X700465Y478397D01*
X700436Y478367D01*
X700289Y478192D01*
X700201Y477957D01*
X700084Y477459D01*
X700055Y477254D01*
X700026Y477079D01*
Y476962D01*
Y476903D01*
Y470841D01*
X695779D01*
Y477840D01*
X695808Y478602D01*
X695926Y479246D01*
X696101Y479802D01*
X696277Y480271D01*
X696453Y480622D01*
X696628Y480857D01*
X696746Y481003D01*
X696775Y481062D01*
X697185Y481413D01*
X697624Y481677D01*
X698064Y481852D01*
X698503Y481999D01*
X698913Y482057D01*
X699206Y482087D01*
X699323Y482116D01*
X699499D01*
X699909Y482087D01*
X700289Y482057D01*
X700641Y481999D01*
X700934Y481911D01*
X701168Y481823D01*
X701344Y481765D01*
X701461Y481735D01*
X701490Y481706D01*
X701812Y481530D01*
X702105Y481355D01*
X702398Y481150D01*
X702662Y480945D01*
X702867Y480740D01*
X703042Y480593D01*
X703159Y480476D01*
X703189Y480447D01*
Y486070D01*
X707406D01*
Y470841D01*
D02*
G37*
G36*
X800302Y482087D02*
X800799Y482057D01*
X801268Y481970D01*
X801737Y481852D01*
X802117Y481735D01*
X802498Y481618D01*
X802850Y481472D01*
X803142Y481325D01*
X803435Y481150D01*
X803670Y481003D01*
X803875Y480886D01*
X804050Y480769D01*
X804167Y480652D01*
X804255Y480564D01*
X804314Y480535D01*
X804343Y480505D01*
X804636Y480183D01*
X804870Y479861D01*
X805105Y479510D01*
X805280Y479158D01*
X805573Y478484D01*
X805778Y477811D01*
X805895Y477225D01*
X805925Y476962D01*
X805954Y476757D01*
X805983Y476581D01*
Y476435D01*
Y476347D01*
Y476317D01*
X805954Y475673D01*
X805866Y475058D01*
X805720Y474531D01*
X805573Y474062D01*
X805427Y473682D01*
X805280Y473389D01*
X805192Y473213D01*
X805163Y473184D01*
Y473154D01*
X804841Y472686D01*
X804490Y472276D01*
X804167Y471954D01*
X803816Y471661D01*
X803552Y471456D01*
X803318Y471309D01*
X803172Y471222D01*
X803113Y471192D01*
X802615Y470987D01*
X802030Y470841D01*
X801473Y470724D01*
X800917Y470665D01*
X800419Y470607D01*
X800214D01*
X800009Y470577D01*
X799657D01*
X798779Y470607D01*
X797988Y470694D01*
X797315Y470812D01*
X797051Y470870D01*
X796787Y470929D01*
X796553Y470987D01*
X796348Y471046D01*
X796172Y471104D01*
X796026Y471163D01*
X795938Y471222D01*
X795850Y471251D01*
X795821Y471280D01*
X795792D01*
X795294Y471602D01*
X794854Y471954D01*
X794474Y472364D01*
X794122Y472744D01*
X793859Y473125D01*
X793654Y473418D01*
X793566Y473535D01*
X793507Y473623D01*
X793478Y473652D01*
Y473682D01*
X797637Y474062D01*
X797930Y473740D01*
X798164Y473535D01*
X798310Y473389D01*
X798339Y473359D01*
X798369D01*
X798779Y473184D01*
X799189Y473096D01*
X799335D01*
X799452Y473067D01*
X799569D01*
X799921Y473096D01*
X800214Y473184D01*
X800507Y473301D01*
X800712Y473418D01*
X800917Y473535D01*
X801034Y473652D01*
X801122Y473740D01*
X801151Y473769D01*
X801297Y473974D01*
X801415Y474209D01*
X801590Y474707D01*
X801620Y474941D01*
X801649Y475117D01*
X801678Y475234D01*
Y475292D01*
X793244D01*
Y475761D01*
X793273Y476522D01*
X793361Y477225D01*
X793478Y477840D01*
X793595Y478338D01*
X793742Y478748D01*
X793859Y479041D01*
X793917Y479129D01*
X793947Y479217D01*
X793976Y479246D01*
Y479275D01*
X794269Y479773D01*
X794591Y480183D01*
X794942Y480535D01*
X795264Y480857D01*
X795587Y481091D01*
X795821Y481237D01*
X795997Y481355D01*
X796026Y481384D01*
X796055D01*
X796612Y481618D01*
X797227Y481794D01*
X797842Y481940D01*
X798427Y482028D01*
X798954Y482087D01*
X799189D01*
X799394Y482116D01*
X799774D01*
X800302Y482087D01*
D02*
G37*
G36*
X766652Y470841D02*
X766769Y470548D01*
X766915Y470284D01*
X767033Y470079D01*
X767179Y469904D01*
X767267Y469757D01*
X767355Y469669D01*
X767413Y469640D01*
X767443Y469611D01*
X767618Y469494D01*
X767823Y469406D01*
X768204Y469318D01*
X768380Y469289D01*
X768526Y469259D01*
X768643D01*
X769053Y469289D01*
X769434Y469318D01*
X769756Y469376D01*
X770078Y469435D01*
X770313Y469494D01*
X770518Y469523D01*
X770635Y469581D01*
X770664D01*
X770342Y466624D01*
X769668Y466536D01*
X769112Y466477D01*
X768614Y466419D01*
X768233Y466389D01*
X767911D01*
X767706Y466360D01*
X767530D01*
X766740Y466419D01*
X766066Y466536D01*
X765480Y466682D01*
X765012Y466887D01*
X764631Y467063D01*
X764368Y467239D01*
X764221Y467356D01*
X764163Y467385D01*
X764016Y467532D01*
X763870Y467707D01*
X763606Y468117D01*
X763343Y468557D01*
X763108Y469025D01*
X762933Y469435D01*
X762757Y469786D01*
X762728Y469933D01*
X762669Y470021D01*
X762640Y470079D01*
Y470109D01*
X758247Y481852D01*
X762435D01*
X764543Y474502D01*
X766827Y481852D01*
X771279D01*
X766652Y470841D01*
D02*
G37*
%LPC*%
G36*
X750896Y456198D02*
X750749D01*
X750457Y456169D01*
X750164Y456081D01*
X749929Y455964D01*
X749724Y455846D01*
X749549Y455700D01*
X749432Y455583D01*
X749344Y455495D01*
X749314Y455466D01*
X749109Y455173D01*
X748963Y454851D01*
X748846Y454470D01*
X748787Y454148D01*
X748729Y453826D01*
X748699Y453562D01*
Y453386D01*
Y453357D01*
Y453328D01*
X748729Y452800D01*
X748787Y452332D01*
X748875Y451922D01*
X748992Y451629D01*
X749109Y451366D01*
X749197Y451219D01*
X749256Y451102D01*
X749285Y451073D01*
X749519Y450838D01*
X749754Y450692D01*
X750017Y450575D01*
X750252Y450487D01*
X750457Y450428D01*
X750632Y450399D01*
X750779D01*
X751101Y450428D01*
X751394Y450516D01*
X751657Y450633D01*
X751862Y450751D01*
X752038Y450868D01*
X752155Y450985D01*
X752243Y451073D01*
X752272Y451102D01*
X752477Y451395D01*
X752624Y451746D01*
X752712Y452098D01*
X752770Y452478D01*
X752829Y452800D01*
X752858Y453064D01*
Y453240D01*
Y453269D01*
Y453298D01*
X752829Y453826D01*
X752770Y454265D01*
X752682Y454616D01*
X752565Y454938D01*
X752448Y455173D01*
X752360Y455348D01*
X752302Y455436D01*
X752272Y455466D01*
X752038Y455700D01*
X751774Y455876D01*
X751540Y456022D01*
X751277Y456110D01*
X751072Y456169D01*
X750896Y456198D01*
D02*
G37*
G36*
X814330Y478953D02*
X814213D01*
X813920Y478924D01*
X813656Y478865D01*
X813422Y478748D01*
X813217Y478631D01*
X813041Y478514D01*
X812924Y478397D01*
X812866Y478338D01*
X812836Y478309D01*
X812661Y478045D01*
X812514Y477723D01*
X812426Y477401D01*
X812338Y477108D01*
X812309Y476815D01*
X812280Y476581D01*
Y476435D01*
Y476405D01*
Y476376D01*
X812309Y475878D01*
X812368Y475439D01*
X812455Y475087D01*
X812543Y474795D01*
X812661Y474590D01*
X812748Y474414D01*
X812807Y474326D01*
X812836Y474297D01*
X813041Y474092D01*
X813276Y473945D01*
X813481Y473828D01*
X813715Y473769D01*
X813891Y473711D01*
X814037Y473682D01*
X814183D01*
X814447Y473711D01*
X814710Y473769D01*
X814915Y473887D01*
X815091Y474004D01*
X815238Y474092D01*
X815355Y474209D01*
X815413Y474267D01*
X815443Y474297D01*
X815618Y474560D01*
X815735Y474853D01*
X815823Y475175D01*
X815882Y475497D01*
X815911Y475790D01*
X815940Y476054D01*
Y476200D01*
Y476259D01*
X815911Y476757D01*
X815853Y477196D01*
X815794Y477547D01*
X815706Y477840D01*
X815618Y478074D01*
X815530Y478221D01*
X815501Y478309D01*
X815472Y478338D01*
X815267Y478543D01*
X815062Y478689D01*
X814857Y478807D01*
X814652Y478865D01*
X814476Y478924D01*
X814330Y478953D01*
D02*
G37*
G36*
X673375Y479217D02*
X673229D01*
X672936Y479187D01*
X672643Y479100D01*
X672409Y478982D01*
X672204Y478865D01*
X672028Y478719D01*
X671911Y478602D01*
X671823Y478514D01*
X671794Y478484D01*
X671589Y478192D01*
X671442Y477869D01*
X671325Y477489D01*
X671267Y477167D01*
X671208Y476844D01*
X671179Y476581D01*
Y476405D01*
Y476376D01*
Y476347D01*
X671208Y475820D01*
X671267Y475351D01*
X671355Y474941D01*
X671472Y474648D01*
X671589Y474384D01*
X671677Y474238D01*
X671735Y474121D01*
X671765Y474092D01*
X671999Y473857D01*
X672233Y473711D01*
X672497Y473594D01*
X672731Y473506D01*
X672936Y473447D01*
X673112Y473418D01*
X673258D01*
X673580Y473447D01*
X673873Y473535D01*
X674137Y473652D01*
X674342Y473769D01*
X674517Y473887D01*
X674635Y474004D01*
X674723Y474092D01*
X674752Y474121D01*
X674957Y474414D01*
X675103Y474765D01*
X675191Y475117D01*
X675250Y475497D01*
X675308Y475820D01*
X675338Y476083D01*
Y476259D01*
Y476288D01*
Y476317D01*
X675308Y476844D01*
X675250Y477284D01*
X675162Y477635D01*
X675045Y477957D01*
X674928Y478192D01*
X674840Y478367D01*
X674781Y478455D01*
X674752Y478484D01*
X674517Y478719D01*
X674254Y478895D01*
X674020Y479041D01*
X673756Y479129D01*
X673551Y479187D01*
X673375Y479217D01*
D02*
G37*
G36*
X757222Y437660D02*
X757075D01*
X756782Y437630D01*
X756489Y437542D01*
X756255Y437425D01*
X756050Y437308D01*
X755874Y437162D01*
X755757Y437045D01*
X755669Y436957D01*
X755640Y436927D01*
X755435Y436635D01*
X755289Y436312D01*
X755172Y435932D01*
X755113Y435610D01*
X755054Y435287D01*
X755025Y435024D01*
Y434848D01*
Y434819D01*
Y434790D01*
X755054Y434262D01*
X755113Y433794D01*
X755201Y433384D01*
X755318Y433091D01*
X755435Y432827D01*
X755523Y432681D01*
X755582Y432564D01*
X755611Y432534D01*
X755845Y432300D01*
X756079Y432154D01*
X756343Y432037D01*
X756577Y431949D01*
X756782Y431890D01*
X756958Y431861D01*
X757104D01*
X757427Y431890D01*
X757719Y431978D01*
X757983Y432095D01*
X758188Y432212D01*
X758364Y432329D01*
X758481Y432447D01*
X758569Y432534D01*
X758598Y432564D01*
X758803Y432857D01*
X758950Y433208D01*
X759037Y433559D01*
X759096Y433940D01*
X759155Y434262D01*
X759184Y434526D01*
Y434702D01*
Y434731D01*
Y434760D01*
X759155Y435287D01*
X759096Y435727D01*
X759008Y436078D01*
X758891Y436400D01*
X758774Y436635D01*
X758686Y436810D01*
X758627Y436898D01*
X758598Y436927D01*
X758364Y437162D01*
X758100Y437337D01*
X757866Y437484D01*
X757602Y437572D01*
X757397Y437630D01*
X757222Y437660D01*
D02*
G37*
G36*
X727115Y476054D02*
X727086D01*
Y475351D01*
Y475087D01*
X727115Y474824D01*
X727174Y474619D01*
X727203Y474443D01*
X727262Y474297D01*
X727320Y474179D01*
X727350Y474121D01*
Y474092D01*
X727467Y473916D01*
X727584Y473740D01*
X727877Y473477D01*
X728023Y473389D01*
X728140Y473301D01*
X728199Y473272D01*
X728228Y473242D01*
X728463Y473125D01*
X728668Y473067D01*
X729078Y472949D01*
X729253D01*
X729400Y472920D01*
X729751D01*
X729956Y472979D01*
X730132Y473008D01*
X730278Y473067D01*
X730396Y473125D01*
X730483Y473154D01*
X730513Y473213D01*
X730542D01*
X730659Y473330D01*
X730718Y473477D01*
X730835Y473740D01*
Y473857D01*
X730864Y473945D01*
Y474004D01*
Y474033D01*
X730835Y474179D01*
X730806Y474355D01*
X730688Y474590D01*
X730601Y474765D01*
X730542Y474795D01*
Y474824D01*
X730366Y474941D01*
X730132Y475058D01*
X729868Y475175D01*
X729576Y475292D01*
X729341Y475380D01*
X729107Y475439D01*
X728960Y475468D01*
X728902Y475497D01*
X728228Y475673D01*
X727906Y475790D01*
X727643Y475878D01*
X727408Y475937D01*
X727233Y475995D01*
X727115Y476054D01*
D02*
G37*
G36*
X778161Y478953D02*
X778015D01*
X777751Y478924D01*
X777517Y478865D01*
X777312Y478748D01*
X777136Y478660D01*
X777019Y478543D01*
X776902Y478426D01*
X776843Y478367D01*
X776814Y478338D01*
X776638Y478074D01*
X776521Y477782D01*
X776404Y477459D01*
X776346Y477137D01*
X776316Y476844D01*
X776287Y476610D01*
Y476464D01*
Y476435D01*
Y476405D01*
X776316Y475878D01*
X776375Y475439D01*
X776463Y475087D01*
X776551Y474795D01*
X776638Y474560D01*
X776726Y474414D01*
X776785Y474326D01*
X776814Y474297D01*
X777019Y474092D01*
X777224Y473945D01*
X777429Y473828D01*
X777634Y473769D01*
X777810Y473711D01*
X777956Y473682D01*
X778074D01*
X778366Y473711D01*
X778630Y473769D01*
X778864Y473887D01*
X779069Y474004D01*
X779216Y474092D01*
X779362Y474209D01*
X779421Y474267D01*
X779450Y474297D01*
X779626Y474560D01*
X779743Y474882D01*
X779860Y475234D01*
X779919Y475585D01*
X779948Y475878D01*
X779977Y476142D01*
Y476317D01*
Y476347D01*
Y476376D01*
X779948Y476844D01*
X779889Y477225D01*
X779801Y477547D01*
X779684Y477840D01*
X779596Y478045D01*
X779509Y478192D01*
X779450Y478279D01*
X779421Y478309D01*
X779186Y478514D01*
X778952Y478689D01*
X778718Y478807D01*
X778513Y478865D01*
X778308Y478924D01*
X778161Y478953D01*
D02*
G37*
G36*
X826337Y476054D02*
X826308D01*
Y475351D01*
Y475087D01*
X826337Y474824D01*
X826396Y474619D01*
X826425Y474443D01*
X826484Y474297D01*
X826542Y474179D01*
X826571Y474121D01*
Y474092D01*
X826689Y473916D01*
X826806Y473740D01*
X827098Y473477D01*
X827245Y473389D01*
X827362Y473301D01*
X827421Y473272D01*
X827450Y473242D01*
X827684Y473125D01*
X827889Y473067D01*
X828299Y472949D01*
X828475D01*
X828621Y472920D01*
X828973D01*
X829178Y472979D01*
X829354Y473008D01*
X829500Y473067D01*
X829617Y473125D01*
X829705Y473154D01*
X829734Y473213D01*
X829764D01*
X829881Y473330D01*
X829939Y473477D01*
X830057Y473740D01*
Y473857D01*
X830086Y473945D01*
Y474004D01*
Y474033D01*
X830057Y474179D01*
X830027Y474355D01*
X829910Y474590D01*
X829822Y474765D01*
X829764Y474795D01*
Y474824D01*
X829588Y474941D01*
X829354Y475058D01*
X829090Y475175D01*
X828797Y475292D01*
X828563Y475380D01*
X828329Y475439D01*
X828182Y475468D01*
X828124Y475497D01*
X827450Y475673D01*
X827128Y475790D01*
X826864Y475878D01*
X826630Y475937D01*
X826454Y475995D01*
X826337Y476054D01*
D02*
G37*
G36*
X799774Y479627D02*
X799599D01*
X799306Y479597D01*
X799013Y479539D01*
X798779Y479451D01*
X798603Y479363D01*
X798427Y479246D01*
X798310Y479158D01*
X798252Y479100D01*
X798222Y479070D01*
X798047Y478836D01*
X797900Y478572D01*
X797783Y478279D01*
X797695Y477987D01*
X797607Y477723D01*
X797578Y477518D01*
X797549Y477372D01*
Y477313D01*
X801678D01*
X801620Y477664D01*
X801561Y477957D01*
X801502Y478221D01*
X801415Y478426D01*
X801327Y478602D01*
X801268Y478719D01*
X801239Y478777D01*
X801209Y478807D01*
X800975Y479070D01*
X800712Y479275D01*
X800419Y479422D01*
X800184Y479539D01*
X799950Y479597D01*
X799774Y479627D01*
D02*
G37*
%LPD*%
M02*
